<?xml version="1.0" encoding="UTF-8" standalone="no"?>
<!-- Created with Inkscape (http://www.inkscape.org/) -->

<svg
   xmlns:dc="http://purl.org/dc/elements/1.1/"
   xmlns:cc="http://creativecommons.org/ns#"
   xmlns:rdf="http://www.w3.org/1999/02/22-rdf-syntax-ns#"
   xmlns:svg="http://www.w3.org/2000/svg"
   xmlns="http://www.w3.org/2000/svg"
   xmlns:sodipodi="http://sodipodi.sourceforge.net/DTD/sodipodi-0.dtd"
   xmlns:inkscape="http://www.inkscape.org/namespaces/inkscape"
   id="svg70861"
   version="1.1"
   inkscape:version="0.91 r13725"
   xml:space="preserve"
   width="337.5"
   height="270"
   viewBox="0 0 337.5 270"
   sodipodi:docname="biphoton_random_walk.svg"><metadata
     id="metadata70867"><rdf:RDF><cc:Work
         rdf:about=""><dc:format>image/svg+xml</dc:format><dc:type
           rdf:resource="http://purl.org/dc/dcmitype/StillImage" /><dc:title></dc:title></cc:Work></rdf:RDF></metadata><defs
     id="defs70865"><clipPath
       clipPathUnits="userSpaceOnUse"
       id="clipPath70879"><path
         d="m 48.846875,39.14375 195.329685,0 0,161.22031 -195.329685,0 0,-161.22031 z"
         id="path70881"
         inkscape:connector-curvature="0" /></clipPath><clipPath
       clipPathUnits="userSpaceOnUse"
       id="clipPath70889"><path
         d="m 48.846875,39.14375 195.329685,0 0,161.22031 -195.329685,0 0,-161.22031 z"
         id="path70891"
         inkscape:connector-curvature="0" /></clipPath><clipPath
       clipPathUnits="userSpaceOnUse"
       id="clipPath70973"><path
         d="m -184,-236 1472,0 0,1165 -1472,0 0,-1165 z"
         id="path70975"
         inkscape:connector-curvature="0" /></clipPath></defs><sodipodi:namedview
     pagecolor="#ffffff"
     bordercolor="#666666"
     borderopacity="1"
     objecttolerance="10"
     gridtolerance="10"
     guidetolerance="10"
     inkscape:pageopacity="0"
     inkscape:pageshadow="2"
     inkscape:window-width="640"
     inkscape:window-height="480"
     id="namedview70863"
     showgrid="false"
     inkscape:zoom="0.87407407"
     inkscape:cx="168.75"
     inkscape:cy="135"
     inkscape:window-x="0"
     inkscape:window-y="0"
     inkscape:window-maximized="0"
     inkscape:current-layer="g70869" /><g
     id="g70869"
     inkscape:groupmode="layer"
     inkscape:label="random-walk"
     transform="matrix(1.25,0,0,-1.25,0,270)"><path
       d="M 0,0 270,0 270,216 0,216 0,0 Z"
       style="fill:#ffffff;fill-opacity:1;fill-rule:nonzero;stroke:none"
       id="path70871"
       inkscape:connector-curvature="0" /><path
       d="m 48.846875,39.14375 195.329685,0 0,161.22031 -195.329685,0 0,-161.22031 z"
       style="fill:#ffffff;fill-opacity:1;fill-rule:nonzero;stroke:none"
       id="path70873"
       inkscape:connector-curvature="0" /><g
       id="g70875"><g
         id="g70877"
         clip-path="url(#clipPath70879)"><path
           d="m 48.846875,62.175223 0.01953,0 0.175797,-3.685036 0.01953,0 0.156263,-2.763776 0.117198,3.685035 0.01953,-0.921259 0.09766,-1.842517 0.01953,0.921259 0.07813,0 0.136731,3.685035 0.01953,-0.921259 0.01953,0 0.0586,0.921259 0.01953,-0.921259 0.175797,-3.685035 0.01953,0 0.136731,-1.842518 0.01953,0 0.0586,1.842518 0.0586,-0.921259 0.01953,0 0.01953,-0.921259 0.03907,0.921259 0,0 0.195329,4.606294 0.03907,0 0.117198,-0.921259 0.03907,0.921259 0.0586,-0.921259 0.01953,0 0.156264,2.763777 0.09766,-1.842518 0.01953,0.921259 0.0586,1.842518 0.03907,-1.842518 0.0586,-1.842518 0.0586,0.921259 0.117198,0.921259 0.0586,-0.921259 0.03907,0.921259 0.0586,1.842518 0.03907,-1.842518 0.214862,-5.527553 0.03907,0 0.03907,-0.921259 0.01953,0.921259 0,0 0.09766,0.921259 0.136731,-2.763777 0.13673,1.842518 0.136731,-1.842518 0.117198,0.921259 0.03907,-0.921259 0.01953,0.921259 0,0 0.136731,1.842518 0.01953,0 0.156263,2.763776 0.01953,0 0.01953,0.921259 0.01953,-0.921259 0,0 0.156264,-2.763776 0.01953,0 0.01953,-0.921259 0.03907,0.921259 0,0 0.19533,4.606294 0.01953,0 0.0586,-0.921259 0.03907,0.921259 0.09766,0.921259 0.09766,-0.921259 0.156264,2.763777 0.01953,0 0.175797,3.685036 0.09766,0 0.156264,2.763777 0.0586,0 0.156264,2.763776 0.03907,0 0.09766,-1.842518 0.01953,0.921259 0.0586,0.921259 0.03907,-0.921259 0.01953,0 0.0586,-0.921259 0.01953,0.921259 0.03907,0.921259 0.01953,-0.921259 0,0 0.09767,-1.842517 0.01953,0.921258 0.03907,0 0.175797,-3.685035 0.07813,0.921259 0.01953,-0.921259 0.01953,0 0.13673,5.527553 0.0586,-0.921259 0.01953,0 0.117198,0.921259 0.03907,0 0.175797,3.685036 0.01953,0 0.0586,0.921259 0.03907,-0.921259 0.09766,-1.842518 0.01953,0.921259 0.03907,0 0.117198,-0.921259 0.01953,0 0.03907,0.921259 0.03907,-0.921259 0.09766,-0.921259 0.13673,3.685036 0.01953,-0.921259 0.03907,0 0.01953,0.921259 0.03907,-0.921259 0,0 0.07813,-1.842518 0.03907,0.921259 0.117198,2.763777 0.01953,-0.921259 0.117198,-4.606295 0.03907,0.921259 0.156263,2.763777 0.136731,-2.763777 0.07813,3.685036 0.03907,-1.842518 0.03907,-0.921259 0.01953,0.921259 0,0 0.117198,1.842518 0.09766,-1.842518 0.01953,0.921259 0.01953,0 0.136731,1.842518 0.01953,0 0.07813,0.921259 0.01953,-0.921259 0.03907,0 0.117198,0.921259 0.07813,-0.921259 0.01953,0.921259 0.0586,0 0.07813,3.685036 0.03907,-1.842518 0.136731,-1.842518 0.01953,0 0.175797,-3.685036 0.01953,0 0.117198,3.685036 0.01953,-0.921259 0.117197,-1.842518 0.117198,2.763777 0.01953,-0.921259 0.09766,0 0.03907,-1.842518 0.07813,0.921259 0.03907,0 0.03907,0.921259 0.0586,-0.921259 0.01953,0 0.01953,0.921259 0.01953,-0.921259 0,0 0.117197,-0.921259 0.01953,0 0.136731,1.842518 0.117198,0 0.156264,2.763777 0.01953,-0.921259 0.0586,0.921259 0.01953,0.921259 0.01953,-0.921259 0,0 0.214863,-6.448813 0.156264,2.763777 0.01953,0 0.175797,-3.685036 0.01953,0 0.117197,0.921259 0.03907,0 0.09766,1.842518 0.01953,-0.921259 0.03907,0 0.156264,-2.763777 0.0586,0 0.13673,-1.842518 0.01953,0.921259 0.0586,-0.921259 0.117198,-1.842517 0.156264,2.763776 0.01953,0 0.01953,-0.921259 0.01953,0.921259 0,0 0.175797,3.685036 0.03907,0 0.01953,-0.921259 0.01953,0.921259 0,0 0.01953,0.921259 0.01953,-0.921259 0,0 0.136731,-1.842518 0.09766,0 0.07813,0.921259 0.01953,-0.921259 0.0586,0 0.09766,1.842518 0.01953,-0.921259 0.01953,0 0.117198,2.763777 0.01953,-0.921259 0.01953,0 0.117198,0.921259 0.01953,0 0.09766,1.842518 0.01953,-0.921259 0.01953,0 0.156264,2.763777 0.01953,-0.921259 0.01953,0.921259 0,0 0.136731,1.842518 0.156264,-2.763777 0.136731,2.763777 0.117198,-2.763777 0.01953,0.921259 0.01953,0 0.156263,2.763776 0.07813,0 0.117198,2.763777 0.01953,-0.921259 0.01953,0 0.117198,1.842518 0.0586,-1.842518 0.03907,0.921259 0.01953,0.921259 0.03906,-0.921259 0,0 0.136731,-1.842518 0.0586,0 0.156264,-2.763776 0.01953,0.921259 0.07813,-0.921259 0.0586,-0.921259 0.01953,0.921259 0.0586,0.921259 0.03906,-0.921259 0.01953,0 0.136731,1.842517 0.01953,0 0.117198,-0.921258 0.117198,2.763776 0.01953,-0.921259 0.175797,-3.685035 0.01953,0 0.01953,-0.921259 0.03907,0.921259 0,0 0.0586,0.921259 0.03907,-0.921259 0.01953,0 0.07813,-0.921259 0.01953,0.921259 0.01953,0 0.156264,2.763776 0.03907,0 0.01953,0.921259 0.03907,-0.921259 0,0 0.07813,-1.842517 0.01953,0.921259 0.117198,1.842517 0.117198,-1.842517 0.07813,0.921258 0.01953,-0.921258 0.01953,0 0.117198,-0.921259 0.01953,0 0.01953,0.921259 0.01953,-0.921259 0,0 0.07813,-0.921259 0.01953,0.921259 0.01953,0 0.214863,-5.527554 0.03907,0 0.07813,2.763777 0.03907,-1.842518 0.03907,0 0.156264,2.763777 0.03906,0 0.156264,-2.763777 0.01953,0 0.01953,-0.921259 0.01953,0.921259 0,0 0.156264,2.763777 0.03907,0 0.117198,3.685035 0.01953,-0.921258 0.117197,-1.842518 0.03907,0.921259 0.01953,-0.921259 0,0 0.156264,-2.763777 0.136731,2.763777 0.156264,-3.685036 0.13673,1.842518 0.01953,0 0.136731,1.842518 0.01953,-0.921259 0.07813,0.921259 0.03907,0 0.01953,0.921259 0.01953,-0.921259 0,0 0.01953,-0.921259 0.07813,0.921259 0.01953,0 0.13673,1.842518 0.07813,0 0.07813,1.842517 0.01953,-0.921259 0.09766,-3.685035 0.03907,0.921259 0.09767,0.921259 0.01953,-0.921259 0.01953,0.921259 0,0 0.07813,0.921259 0.01953,-0.921259 0.01953,0 0.13673,3.685035 0.01953,-0.921259 0.03907,0 0.156264,-3.685035 0.136731,1.842518 0.117198,0 0.01953,-0.921259 0.01953,0.921259 0,0 0.0586,2.763776 0.07813,-0.921259 0.09767,0 0.01953,-0.921259 0.01953,0.921259 0,0 0.03907,1.842518 0.0586,-1.842518 0.01953,0 0.07813,1.842518 0.01953,-0.921259 0.0586,-1.842518 0.0586,0.921259 0.01953,0 0.156264,-3.685035 0.09767,1.842518 0.01953,-0.921259 0.01953,0 0.175797,3.685035 0.117198,-0.921259 0.09766,2.763777 0.03907,-0.921259 0.01953,0 0.07813,1.842518 0.01953,-0.921259 0.09767,-1.842518 0.01953,0.921259 0.117198,0.921259 0.0586,0 0.0586,0.921259 0.03907,-0.921259 0.01953,0 0.01953,0.921259 0.01953,-0.921259 0,0 0.156264,-3.685036 0.175797,3.685036 0.0586,0 0.07813,0.921259 0.01953,-0.921259 0.117197,-0.921259 0.03907,0 0.01953,-0.921259 0.03907,0.921259 0,0 0.09767,0.921259 0.175797,-3.685036 0.01953,0 0.0586,-2.763776 0.03907,1.842518 0.156263,3.685035 0.07813,-0.921259 0.01953,0.921259 0.03907,0 0.09766,0.921259 0.07813,-1.842518 0.03907,0.921259 0.01953,0 0.09767,2.763777 0.03907,-0.921259 0.175796,-3.685036 0.214863,0 0.136731,1.842518 0.01953,0 0.117198,-0.921259 0.234395,6.448813 0.117198,-3.685036 0.03907,0.921259 0.07813,0 0.03907,0.921259 0.0586,-0.921259 0.01953,-0.921259 0.01953,0.921259 0,0 0.214862,5.527554 0.07813,0 0.0586,1.842517 0.03907,-1.842517 0.03907,0 0.117198,3.685035 0.01953,-0.921259 0.117197,-2.763776 0.01953,0.921259 0.07813,0 0.01953,-0.921259 0.01953,0.921259 0,0 0.09767,2.763776 0.01953,-0.921259 0.01953,-0.921259 0.03907,0.921259 0,0 0.117198,2.763779 0.01953,-0.921261 0.01953,0 0.136731,-3.685035 0.01953,0.921258 0.03907,0 0.03907,-0.921258 0.01953,0.921258 0,0 0.01953,0.921259 0.03907,-0.921259 0,0 0.175797,-3.685035 0.136731,0 0.01953,-0.921259 0.01953,0.921259 0,0 0.156263,2.763777 0.0586,-1.842518 0.03907,0.921259 0.07813,1.842517 0.03907,-0.921258 0.03907,0 0.0586,-0.921259 0.03907,0.921259 0.01953,0 0.156264,-2.763777 0.156263,3.685035 0.136731,-2.763776 0.01953,0.921259 0.0586,-0.921259 0.156264,-3.685036 0.214862,5.527554 0.09767,0 0.136731,1.842517 0.03907,0 0.01953,0.921259 0.01953,-0.921259 0,0 0.156264,-2.763776 0.03907,0 0.07813,-1.842518 0.01953,0.921259 0.136731,1.842518 0.03907,0 0.156264,2.763776 0.01953,-0.921259 0.03907,0.921259 0,0 0.01953,0.921259 0.01953,-0.921259 0,0 0.136731,-1.842518 0.07813,0 0.156264,2.763777 0.0586,0 0.117198,-1.842518 0.07813,1.842518 0.01953,-0.921259 0.01953,-0.921259 0.03907,0.921259 0,0 0.09766,0.921259 0.0586,-0.921259 0.01953,0.921259 0.01953,0.921261 0.07813,-0.921261 0.07813,0 0.175797,3.685031 0.09767,-0.92125 0.0586,1.84251 0.03906,-1.84251 0.117198,-3.68504 0.01953,0.921259 0.214863,5.527551 0.01953,0 0.0586,1.84252 0.0586,-0.92126 0.07813,0 0.07813,-0.92126 0.01953,0.92126 0.07813,0 0.09767,1.84252 0.01953,-0.92126 0.01953,0 0.01953,-0.92126 0.0586,0.92126 0.156264,3.68504 0.01953,-0.92126 0.07813,0.92126 0.01953,0 0.01953,-0.92126 0.01953,0.92126 0,0 0.136731,1.84251 0.01953,0 0.01953,0.92126 0.01953,-0.92126 0,0 0.156264,-2.76377 0.01953,0 0.156264,-3.68504 0.175796,3.68504 0.01953,0 0.214863,7.37007 0.01953,-0.92126 0.01953,0 0.175797,5.52755 0.01953,-0.92126 0.01953,0 0.117197,-0.92125 0.09766,0 0.07813,1.84251 0.03907,-0.92126 0.136731,-1.84251 0.01953,0.92126 0.03907,-0.92126 0,0 0.117197,-0.92126 0.01953,0 0.136731,2.76377 0.07813,-0.92125 0.01953,0.92125 0.03907,0.92126 0.01953,-0.92126 0,0 0.117198,-1.84251 0.01953,0.92126 0.0586,-0.92126 0.0586,-0.92126 0.03907,0.92126 0.09766,0 0.01953,-0.92126 0.03907,0.92126 0,0 0.117198,0.92126 0.03907,0 0.07813,1.84251 0.01953,-0.92126 0.07813,-1.84251 0.03907,0.92126 0.117198,0.92125 0.0586,0 0.175797,-3.68503 0.03907,0 0.156264,2.76378 0.01953,-0.92126 0.01953,0.92126 0,0 0.156263,2.76377 0.03907,0 0.03907,0.92126 0.0586,-0.92126 0.03907,0 0.09767,-0.92126 0.0586,1.84252 0.0586,-0.92126 0.0586,0 0.195329,4.6063 0.214863,-5.52756 0.01953,0 0.09767,2.76378 0.03907,-0.92126 0.01953,-0.92126 0.07813,0.92126 0.117198,0.92126 0.01953,0 0.117198,1.84252 0.0586,-0.92126 0.01953,0.92126 0.03907,0.92126 0.01953,-0.92126 0,0 0.117198,-1.84252 0.136731,1.84252 0.03907,0 0.03907,-0.92126 0.03907,0.92126 0.03906,0.92126 0.0586,-0.92126 0.01953,-0.92126 0.07813,0.92126 0.01953,0.92126 0.01953,-0.92126 0,0 0.07813,-0.92126 0.01953,0.92126 0.03907,0.92126 0.01953,-0.92126 0,0 0.175797,-4.6063 0.01953,0.92126 0.01953,-0.92126 0,0 0.175796,-3.68503 0.01953,0 0.117198,-0.92126 0.03907,0 0.09766,-1.84252 0.01953,0.92126 0.0586,0 0.09767,-0.92126 0.117197,0.92126 0.01953,0 0.156264,2.76378 0.0586,-0.92126 0.03907,0.92126 0.01953,0 0.117198,-0.92126 0.175796,4.60629 0.136731,-1.84252 0.136731,0 0.156264,-2.76377 0.01953,0 0.214862,-5.52756 0.03907,0 0.01953,0.92126 0.07813,-0.92126 0.156264,-3.68503 0.156264,2.76378 0.01953,0 0.156263,-2.76378 0.09767,0 0.117198,-0.92126 0.156264,2.76378 0.117198,-0.92126 0.03906,0 0.09767,-2.76378 0.03907,0.92126 0.09767,0 0.01953,0.92126 0.07813,-0.92126 0.09766,-2.76378 0.01953,0.92126 0.136731,1.84252 0.0586,-1.84252 0.03907,0.92126 0.156264,2.76378 0.01953,0 0.03907,-0.92126 0.01953,0.92126 0,0 0.19533,4.60629 0.03907,0 0.175796,3.68504 0.117198,-0.92126 0.0586,0 0.136731,1.84252 0.03907,0 0.03907,0.92126 0.01953,-0.92126 0,0 0.03907,-0.92126 0.0586,0.92126 0.03907,0 0.01953,-0.92126 0.07813,0.92126 0.01953,0 0.136731,-1.84252 0.01953,0 0.19533,4.60629 0.01953,0 0.07813,1.84252 0.03907,-0.92126 0.01953,0 0.01953,0.92126 0.03907,-0.92126 0,0 0.07813,-0.92126 0.01953,0.92126 0.03907,0 0.117198,0.92126 0.234396,-6.44881 0.0586,0.92126 0.03906,-0.92126 0.01953,0 0.07813,0.92126 0.01953,-0.92126 0.01953,0 0.01953,0.92126 0.03907,-0.92126 0,0 0.136731,-2.76378 0.117198,2.76378 0.01953,-0.92126 0.01953,0 0.0586,0.92126 0.01953,-0.92126 0.156263,-2.76378 0.03907,0 0.01953,0.92126 0.0586,-0.92126 0.09766,-1.84251 0.01953,0.92125 0.03907,0 0.0586,0.92126 0.01953,-0.92126 0.156263,-2.76377 0.03907,0 0.156264,2.76377 0.09766,0 0.0586,-1.84251 0.03907,1.84251 0.07813,0 0.03907,1.84252 0.07813,-0.92126 0.01953,0 0.175796,-3.68503 0.03907,0 0.136731,-1.84252 0.03907,0 0.117198,0.92126 0.117198,-2.76378 0.01953,0.92126 0.01953,0 0.117198,-2.76378 0.01953,0.92126 0.01953,0 0.07813,0.92126 0.01953,-0.92126 0.136731,-2.76377 0.0586,2.76377 0.03907,-1.84252 0.03907,-0.92125 0.03907,0.92125 0.0586,0.92126 0.01953,-0.92126 0.136731,-1.84251 0.07813,0 0.0586,2.76377 0.07813,-0.92126 0.156264,-3.685031 0.07813,0.921261 0.01953,-0.921261 0.0586,-1.842518 0.0586,0.921259 0.01953,0 0.0586,1.84252 0.03907,-1.84252 0.0586,0 0.01953,-0.921259 0.07813,0.921259 0.01953,0 0.117198,-1.842518 0.09766,1.842518 0.01953,-0.921259 0.136731,-2.763776 0.156271,2.763776 0.0195,0 0.1172,0.921259 0.0195,0 0.1172,-0.921259 0.1172,2.763779 0.0195,-0.921261 0.0195,0 0.0195,0.921261 0.0586,-0.921261 0.11719,-0.921259 0.0195,0 0.0977,-0.921259 0.15626,2.763779 0.0391,0 0.19533,-4.606296 0.1172,0.921258 0.0586,0 0.17579,3.685038 0.0391,0 0.0781,2.76377 0.0391,-1.84251 0.0195,0 0.13673,1.84251 0.0391,0 0.0977,-0.92125 0.13673,1.84251 0.1172,-0.92126 0.0391,0.92126 0.0195,-0.92126 0,0 0.0391,-0.92125 0.0195,0.92125 0,0 0.15626,2.76378 0.0195,0 0.0195,-0.92126 0.0195,0.92126 0,0 0.0195,0.92126 0.0195,-0.92126 0,0 0.11719,-0.92126 0.0195,0 0.0195,-0.92126 0.0195,0.92126 0,0 0.0586,0.92126 0.0391,-0.92126 0.13673,-1.84252 0.0586,0 0.0391,-0.92125 0.0195,0.92125 0,0 0.0391,1.84252 0.0391,-1.84252 0.1172,-0.92125 0.0391,0 0.1172,-1.84252 0.0195,0.92126 0.0586,-0.92126 0.15627,-2.763779 0.0391,0 0.0781,-0.921259 0.0195,0.921259 0.0195,0.921259 0.0195,-0.921259 0,0 0.13673,-1.842517 0.0586,0 0.13673,-1.842518 0.15627,3.685035 0.11719,-0.921259 0.0195,0 0.0391,-0.921258 0.0195,0.921258 0,0 0.15626,2.763777 0.0586,0 0.15626,-2.763777 0.13673,1.842518 0.0586,0 0.0391,0.921259 0.0586,-0.921259 0.0195,-0.921259 0.0391,0.921259 0,0 0.0781,0.921259 0.0195,-0.921259 0.0195,0 0.0195,0.921259 0.0195,-0.921259 0,0 0.1758,-3.685035 0.0195,0 0.15626,2.763776 0.0195,0 0.0391,-0.921259 0.0195,0.921259 0,0 0.0195,0.921259 0.0391,-0.921259 0,0 0.13674,-3.685035 0.0195,0.921259 0.0391,0 0.0586,1.842517 0.0586,-0.921258 0.0195,-0.921259 0.0586,0.921259 0.0781,1.842517 0.0195,-0.921259 0.15626,-2.763776 0.13673,1.842518 0.0586,0 0.0781,2.763776 0.0586,-0.921259 0.0586,0 0.1172,-1.842517 0.1758,3.685035 0.13673,-2.763777 0.15626,2.763777 0.0195,-0.921259 0.0195,0.921259 0,0 0.0586,0.921261 0.0391,-0.921261 0.13673,-1.842518 0.0195,0 0.17579,3.685039 0.0195,0 0.11719,3.68503 0.0391,-0.92126 0.0391,0 0.13674,-1.84251 0.0586,0 0.15627,2.76377 0.0977,0 0.0195,0.92126 0.0195,-0.92126 0,0 0.0781,-0.92126 0.0195,0.92126 0.0977,1.84252 0.0195,-0.92126 0.0195,-0.92126 0.0195,0.92126 0,0 0.0781,0.92126 0.0195,-0.92126 0.0391,0 0.0391,-0.92126 0.0195,0.92126 0,0 0.1172,0.92126 0.11719,-2.76378 0.0195,0.92126 0.0391,0 0.1172,0.92126 0.0195,0 0.13673,1.84252 0.0391,0 0.0781,-0.92126 0.0195,0.92126 0.0391,0.92126 0.0195,-0.92126 0,0 0.0586,-0.92126 0.0195,0.92126 0.15626,2.76378 0.0977,0 0.1172,-1.84252 0.0391,1.84252 0.0586,-1.84252 0.0586,0 0.13673,1.84252 0.0195,0 0.21486,-5.52756 0.0391,0 0.0195,0.92126 0.0586,-0.92126 0.1172,-1.84252 0.0977,2.76378 0.0391,-0.92126 0.0195,0 0.0781,-0.92126 0.0195,0.92126 0.0781,0 0.15626,-3.68503 0.0195,0.92126 0.0391,-0.92126 0,0 0.0391,-0.92126 0.0391,0.92126 0.0391,0.92126 0.0391,-0.92126 0.13673,-1.842521 0.0195,0 0.0391,-1.842518 0.0781,0.921259 0.0586,1.84252 0.0586,-0.921261 0.0195,0 0.17579,3.685031 0.0586,0 0.13673,1.84252 0.13673,-1.84252 0.0195,0 0.0195,0.92126 0.0195,-0.92126 0,0 0.0195,-0.92125 0.0195,0.92125 0,0 0.15626,2.76378 0.13673,0 0.0391,0.92126 0.0195,-0.92126 0,0 0.0195,-0.92126 0.0195,0.92126 0,0 0.1172,0.92126 0.11719,0 0.1758,-3.68504 0.15626,4.6063 0.0195,-0.92126 0.0195,0 0.0781,1.84252 0.0391,-0.92126 0.0195,0 0.0195,-0.92126 0.0195,0.92126 0,0 0.21486,5.52755 0.0195,0 0.0391,0.92126 0.0586,-0.92126 0.0195,0 0.13673,-1.84251 0.0586,0.92125 0.0195,-0.92125 0.0781,-2.76378 0.0391,1.84252 0.0781,0.92126 0.0195,-0.92126 0.0391,-0.92126 0.0586,0.92126 0.0391,0 0.0781,-0.92126 0.0195,0.92126 0.1172,1.84251 0.0195,-0.92125 0.0781,0.92125 0.19533,4.6063 0.13673,-1.84252 0.0391,0 0.0781,-0.92126 0.0195,0.92126 0.0391,0 0.1172,-0.92126 0.0195,0 0.0195,0.92126 0.0195,-0.92126 0,0 0.1172,-3.68503 0.0391,0.92126 0.0195,0 0.0977,-0.92126 0.1172,0.92126 0.13673,-2.76378 0.17579,3.68503 0.0195,0 0.0977,-1.84251 0.0195,0.92126 0.0195,0 0.15626,2.76377 0.0391,0 0.0977,-0.92126 0.0586,0.92126 0.0391,-0.92126 0.0195,0 0.13673,-1.84251 0.0391,0 0.0391,-0.92126 0.0195,0.92126 0,0 0.0586,0.92125 0.0195,-0.92125 0.0781,-1.84252 0.0195,0.92126 0.0195,0.92126 0.0195,-0.92126 0,0 0.0391,-0.92126 0.0586,0.92126 0.0586,0 0.0977,-1.84252 0.0195,0.92126 0.0391,0 0.0195,-0.92126 0.0195,0.92126 0,0 0.1172,0.92126 0.13673,-1.84252 0.1172,0.92126 0.0195,0 0.15627,-2.76378 0.0195,0 0.13673,-2.76378 0.15626,2.76378 0.0586,-0.92126 0.0195,0.92126 0.0781,1.84252 0.0195,-0.92126 0.13673,-1.84252 0.1172,1.84252 0.17579,-3.68504 0.0391,0 0.0781,1.84252 0.0391,-0.92126 0.0195,0 0.0195,-0.92126 0.0195,0.92126 0,0 0.1172,2.76378 0.0195,-0.92126 0.0195,0 0.0977,1.84252 0.0195,-0.92126 0.1172,-0.92126 0.0195,0 0.13673,-1.84252 0.0195,0.92126 0.0195,-0.92126 0,0 0.15626,-2.76377 0.1172,0 0.0195,-0.92126 0.0781,0.92126 0.0195,0 0.17579,-3.68504 0.0781,0.921259 0.0195,-0.921259 0.0195,0 0.1172,1.84252 0.0391,-1.84252 0.0586,1.84252 0.0195,0 0.15626,-2.763779 0.0586,0 0.15626,2.763779 0.0391,0 0.0195,0.92126 0.0391,-0.92126 0,0 0.0781,-0.921261 0.0195,0.921261 0.0391,0 0.0586,2.76377 0.0391,-1.84251 0.13673,-2.76378 0.0977,0.921259 0.0781,-0.921259 0.0195,0.921259 0.0391,0 0.1172,-0.921259 0.0195,0.921259 0.0195,-0.921259 0,0 0.0781,-1.842518 0.0391,0.921259 0.1172,1.842518 0.13673,-1.842518 0.0195,0 0.0781,-0.921259 0.0195,0.921259 0.21486,5.527549 0.0586,-0.92125 0.0195,0.92125 0.13673,1.84252 0.13673,-1.84252 0.2344,6.44882 0.0781,0 0.15626,2.76377 0.0586,0 0.13673,-1.84251 0.0586,1.84251 0.0391,-0.92125 0.0586,-0.92126 0.0391,0.92126 0.0195,0 0.0781,-2.76378 0.0586,0.92126 0.15626,2.76377 0.0195,0 0.27347,8.29133 0.0195,0 0.0586,0.92126 0.0391,-0.92126 0.0391,0 0.0781,0.92126 0.0195,-0.92126 0.0195,0 0.1172,-0.92125 0.0391,0.92125 0.0195,-0.92125 0,0 0.0586,-0.92126 0.0195,0.92126 0.11719,1.84251 0.0195,-0.92126 0.0195,0.92126 0,0 0.0977,0.92126 0.0977,-2.76377 0.0391,0.92125 0.0195,0 0.0391,1.84252 0.0586,-1.84252 0.0195,0 0.0586,-1.84251 0.0391,1.84251 0.0195,0.92126 0.0391,-0.92126 0,0 0.15626,-3.68503 0.0195,0.92126 0.0195,-0.92126 0,0 0.0781,-0.92126 0.0195,0.92126 0.0195,0 0.13673,1.84252 0.0586,0 0.0781,-0.92126 0.0195,0.92126 0.0391,0 0.13673,-1.84252 0.13673,1.84252 0.1172,-0.92126 0.0391,1.84252 0.0586,-1.84252 0.0781,-2.76378 0.0586,0.92126 0.0195,0 0.0977,0.92126 0.1758,-5.52755 0.0195,0.92125 0.15626,2.76378 0.0391,0 0.0977,-1.84252 0.0195,0.92126 0.0391,0 0.1172,3.68504 0.0391,-0.92126 0.0391,0 0.1172,-0.92126 0.0195,0 0.15627,2.76378 0.0781,0 0.1758,3.68503 0.13673,-3.68503 0.0195,0.92126 0.1172,0.92125 0.0195,0 0.13673,-4.60629 0.0391,0.92126 0.0586,0 0.0586,1.84252 0.0586,-0.92126 0.0586,0 0.1172,-2.76378 0.0195,0.92126 0.0586,0 0.0586,0.92126 0.0391,-0.92126 0.0391,0 0.1172,0.92126 0.0586,0 0.0781,-0.92126 0.0195,0.92126 0.0586,0 0.1172,-0.92126 0.0391,0 0.15626,2.76378 0.0977,-2.76378 0.0195,0.92126 0.0195,0.92126 0.0391,-0.92126 0,0 0.1172,-2.76378 0.0195,0.92126 0.0195,0 0.0195,0.92126 0.0195,-0.92126 0,0 0.19533,-5.52755 0.0977,1.84252 0.0195,-0.92126 0.11719,-0.92126 0.0977,1.84252 0.0195,-0.92126 0.1172,-0.92126 0.0195,0 0.0586,0.92126 0.0195,-0.92126 0.1172,-1.84252 0.19533,4.60629 0.0391,0 0.0195,-0.92125 0.0391,0.92125 0,0 0.11719,0.92126 0.0195,0 0.0195,-0.92126 0.0195,0.92126 0,0 0.0781,2.76378 0.0391,-1.84252 0.0391,0 0.11719,1.84252 0.0977,-1.84252 0.0195,0.92126 0.0195,0 0.0391,-0.92126 0.0586,0.92126 0.1172,0.92126 0.0781,0 0.0977,-0.92126 0.11719,3.68504 0.0391,-0.92126 0.0781,0 0.13673,-3.68504 0.0195,0.92126 0.0781,0 0.17579,-3.68503 0.0195,0 0.0977,1.84251 0.0195,-0.92126 0.0391,0 0.0977,2.76378 0.0195,-0.92126 0.13673,-1.84252 0.0586,0 0.0391,0.92126 0.0195,-0.92126 0,0 0.0195,-0.92125 0.0781,0.92125 0.0977,0 0.0195,-0.92125 0.0195,0.92125 0,0 0.1758,3.68504 0.21486,-5.52755 0.0391,0 0.13673,1.84251 0.0195,0 0.1758,-3.68503 0.0195,0.92126 0.0195,-0.92126 0,0 0.0781,-0.92126 0.0195,0.92126 0.0586,0.92126 0.0391,-0.92126 0.21487,-6.44881 0.0391,0.92125 0.0195,-0.92125 0,0 0.15627,-2.763781 0.0195,0 0.0195,0.921261 0.0391,-0.921261 0,0 0.1172,-2.763777 0.0195,0.921259 0.0195,0 0.13673,-1.842517 0.13674,0 0.0586,1.842517 0.0391,-1.842517 0.0195,0 0.13673,-2.763777 0.0977,1.842518 0.0195,-0.921259 0.0195,0 0.0977,2.763776 0.0391,-0.921258 0.19533,-4.606295 0.0391,1.842518 0.0781,-0.921259 0.0391,0 0.1758,-3.685036 0.0195,0 0.1172,1.842518 0.15626,-2.763777 0.1172,0.921259 0.15626,-2.763777 0.0195,0 0.0391,1.842518 0.0586,-1.842518 0.0781,-0.921259 0.0195,0.921259 0.0195,0 0.25393,8.291331 0.0195,-0.921259 0.0391,0.921259 0,0 0.11719,0.921259 0.0195,0 0.13673,-1.842518 0.0781,0 0.0391,0.921259 0.0195,-0.921259 0,0 0.0586,-0.921259 0.0391,0.921259 0.0781,0.921259 0.0195,-0.921259 0.0195,0 0.0195,-0.921259 0.0391,0.921259 0,0 0.19533,4.606294 0.0195,0 0.15627,-2.763776 0.0586,0 0.1758,3.685035 0.0195,0 0.0977,-0.921259 0.0195,0.921259 0.0781,-0.921259 0.0195,0 0.21486,5.527549 0.0195,0 0.13673,-1.84251 0.15627,2.76377 0.0391,0 0.0781,0.92126 0.0195,-0.92126 0.0781,-1.84251 0.0391,0.92125 0.13673,1.84252 0.0195,0 0.0781,1.84252 0.0391,-0.92126 0.11719,-0.92126 0.0977,1.84252 0.0195,-0.92126 0.0391,0 0.0195,-0.92126 0.0391,0.92126 0,0 0.13673,1.84252 0.0195,0 0.0195,-0.92126 0.0195,0.92126 0,0 0.13673,1.84252 0.0391,0 0.0781,1.84252 0.0391,-0.92126 0.0391,0 0.13673,2.76377 0.0195,-0.92126 0.0195,0.92126 0,0 0.15627,4.6063 0.0195,-0.92126 0.0391,0 0.17579,-3.68504 0.0391,0 0.0586,0.92126 0.0195,-0.92126 0.0781,-0.92126 0.0195,0.92126 0.0195,0 0.0977,-1.84251 0.0195,0.92125 0.0391,0 0.13673,-1.84251 0.0391,0 0.0195,0.92126 0.0391,-0.92126 0,0 0.0977,-1.84252 0.0195,0.92126 0.0195,0 0.15626,2.76377 0.1172,-2.76377 0.0195,0.92126 0.0586,0.92126 0.0195,-0.92126 0.0586,-0.92126 0.0391,0.92126 0.0586,0.92126 0.0391,-0.92126 0.13673,-2.76378 0.0195,0.92126 0.0391,-0.92126 0,0 0.11719,-0.92126 0.0195,0 0.0586,-0.92126 0.0391,0.92126 0.0781,0 0.0586,1.84252 0.0391,-1.84252 0.0391,0 0.13673,1.84252 0.1758,-3.68504 0.0195,0.92126 0.0195,-0.92126 0,0 0.0195,-0.92126 0.0195,0.92126 0,0 0.0977,3.68504 0.0391,-1.84252 0.1172,0 0.1172,0.92126 0.0391,0 0.13673,-1.84252 0.15626,2.76378 0.0195,0 0.0195,-0.92126 0.0391,0.92126 0,0 0.0977,3.68503 0.0391,-0.92125 0.0195,-0.92126 0.0781,0.92126 0.0391,0 0.21487,5.52755 0.0195,-0.92126 0.0195,0.92126 0,0 0.15627,2.76378 0.0195,0 0.0586,0.92125 0.0391,-0.92125 0.0586,-1.84252 0.0391,1.84252 0.0195,0 0.0586,-2.76378 0.0586,1.84252 0.0781,0 0.1172,-0.92126 0.0781,0 0.0781,-0.92126 0.0195,0.92126 0.0391,0 0.13673,-1.84252 0.0391,0 0.0586,0.92126 0.0391,-0.92126 0.0195,0 0.11719,0.92126 0.0781,0 0.11719,-1.84252 0.0977,0.92126 0.0781,-2.76378 0.0391,1.84252 0.0195,0 0.0195,0.92126 0.0391,-0.92126 0,0 0.0195,-0.92126 0.0781,0.92126 0.0391,0.92126 0.0195,-0.92126 0,0 0.13673,-2.76378 0.1758,3.68504 0.0195,0 0.0781,1.84252 0.0195,-0.92126 0.0195,-0.92126 0.0781,0.92126 0.0391,0 0.19533,4.60629 0.17579,-3.68503 0.0195,0 0.13673,-4.6063 0.0391,0.92126 0.0391,0 0.13673,4.6063 0.0391,-0.92126 0.0195,-0.92126 0.0195,0.92126 0,0 0.13673,1.84252 0.0195,0 0.0391,0.92125 0.0586,-0.92125 0.0391,0 0.15626,2.76377 0.0195,-0.92126 0.0586,0.92126 0.1172,0.92126 0.0195,0 0.0195,-0.92126 0.0195,0.92126 0,0 0.0977,0.92126 0.0586,-0.92126 0.0195,0.92126 0.0977,0.92126 0.0781,-1.84252 0.0195,0.92126 0.11719,0.92126 0.0391,0 0.0977,2.76378 0.0195,-0.92126 0.0977,-0.92126 0.0781,1.84252 0.0195,-0.92126 0.0586,-0.92126 0.0195,0.92126 0.0391,0.92126 0.0586,-0.92126 0.0391,0 0.0195,0.92126 0.0781,-0.92126 0.0195,0 0.13673,1.84252 0.21486,-5.52756 0.0195,0 0.1172,-1.84252 0.0781,2.76378 0.0391,-1.84252 0.0586,-0.92126 0.0391,0.92126 0.1172,0 0.15627,2.76378 0.0195,0 0.1758,-3.68504 0.0391,0 0.19533,4.6063 0.0195,0 0.15627,3.68503 0.1172,-0.92125 0.0977,0 0.0391,1.84251 0.0781,-0.92126 0.0195,-0.92125 0.0391,0.92125 0,0 0.0391,1.84252 0.0781,-0.92126 0.0586,-1.84251 0.0586,0.92125 0.0195,0 0.0781,-1.84251 0.0391,0.92126 0.0391,0.92125 0.0391,-0.92125 0.13673,-1.84252 0.0586,0 0.0195,0.92126 0.0781,-0.92126 0.0195,0 0.0977,1.84252 0.0195,-0.92126 0.0195,0 0.0781,-2.76378 0.0391,1.84252 0.0586,0 0.1172,0.92126 0.0195,0 0.0195,0.92126 0.0781,-0.92126 0.0195,0 0.0391,0.92126 0.0195,-0.92126 0,0 0.0781,-1.84252 0.0391,0.92126 0.0391,0 0.13673,-1.84252 0.0391,0 0.0391,-0.92126 0.0195,0.92126 0,0 0.0781,0.92126 0.0195,-0.92126 0.0195,0 0.17579,3.68504 0.0195,0 0.17579,3.68503 0.0195,-0.92126 0.0195,0.92126 0,0 0.0781,1.84252 0.0391,-0.92126 0.0391,0 0.1172,-0.92126 0.0977,0 0.0781,-1.84252 0.0391,0.92126 0.0195,0 0.0195,-0.92126 0.0391,0.92126 0,0 0.0586,0.92126 0.0195,-0.92126 0.0781,-1.84252 0.0195,0.92126 0.1172,0.92126 0.0195,0 0.1758,3.68504 0.1172,-2.76378 0.0195,0.92126 0.15626,2.76378 0.0195,0 0.0391,0.92126 0.0195,-0.92126 0,0 0.19533,-5.52756 0.0977,0.92126 0.1172,-4.60629 0.0586,0.92126 0.15626,2.76377 0.0586,0 0.0195,-0.92126 0.0195,0.92126 0,0 0.0781,1.84252 0.0391,-0.92126 0.0195,0 0.0391,-0.92126 0.0195,0.92126 0,0 0.13673,1.84252 0.0195,0 0.13673,-1.84252 0.0391,0 0.0195,0.92126 0.0781,-0.92126 0.0195,0 0.1172,0.92126 0.0391,0 0.0391,-0.92126 0.0586,0.92126 0.0195,0 0.1172,-0.92126 0.0391,0 0.0195,-0.92126 0.0586,0.92126 0.0195,0.92126 0.0586,-0.92126 0.1172,-1.84252 0.19533,4.6063 0.0391,0 0.0781,0.92126 0.0195,-0.92126 0.0781,-1.84252 0.0195,0.92126 0.19533,4.60629 0.1172,0 0.0391,0.92126 0.0195,-0.92126 0,0 0.13673,-3.68503 0.0195,0.92126 0.0391,0 0.1172,-2.76378 0.0195,0.92126 0.0781,0 0.1172,2.76378 0.0195,-0.92126 0.0781,-0.92126 0.0195,0.92126 0.0391,0 0.0391,-0.92126 0.0195,0.92126 0,0 0.1172,0.92126 0.13673,-1.84252 0.0195,0 0.0586,-0.92126 0.0195,0.92126 0.0195,0.92126 0.0781,-0.92126 0.0195,0 0.0781,-0.92126 0.0195,0.92126 0.0195,0 0.15627,2.76378 0.15626,-3.68504 0.0195,0.92126 0.0195,-0.92126 0,0 0.0195,-0.92126 0.0195,0.92126 0,0 0.0391,1.84252 0.0781,-0.92126 0.0195,0 0.1172,0.92126 0.0195,-0.92126 0.0391,0.92126 0,0 0.0781,1.84252 0.0195,-0.92126 0.0195,-0.92126 0.0195,0.92126 0,0 0.0391,1.84251 0.0781,-0.92125 0.1172,0 0.0977,-2.76378 0.0391,0.92126 0.0391,0 0.0977,-0.92126 0.0977,1.84252 0.0195,-0.92126 0.0391,0 0.15627,2.76377 0.0195,0 0.15626,2.76378 0.0195,0 0.1172,1.84252 0.0391,-0.92126 0.0195,0.92126 0,0 0.13673,1.84252 0.0977,-0.92126 0.0195,0.92126 0.0195,-0.92126 0,0 0.0586,-1.84252 0.0391,0.92126 0.13673,1.84252 0.13673,-3.68504 0.0195,0.92126 0.0781,0 0.1758,3.68504 0.0195,0 0.0195,0.92125 0.0586,-0.92125 0.13673,-1.84252 0.0586,1.84252 0.0586,-0.92126 0.0195,0 0.0391,-1.84252 0.0781,0.92126 0.0195,0.92126 0.0391,-0.92126 0,0 0.1758,-3.68504 0.0195,0 0.13673,2.76378 0.0391,-0.92126 0.0195,0.92126 0,0 0.0195,0.92126 0.0781,-0.92126 0.0391,0 0.1172,-1.84252 0.2344,6.44881 0.0195,0 0.0391,0.92126 0.0195,-0.92126 0,0 0.0586,-0.92126 0.0391,0.92126 0.0195,0 0.1172,2.76378 0.0195,-0.92126 0.0391,0 0.1172,0.92126 0.0195,0 0.0391,0.92126 0.0195,-0.92126 0,0 0.15627,-2.76378 0.0195,0 0.1172,-0.92126 0.0195,0 0.0586,-0.92125 0.0391,0.92125 0.0195,0 0.13673,-1.84251 0.13673,1.84251 0.0781,0 0.1172,0.92126 0.0391,0 0.0195,0.92126 0.0195,-0.92126 0,0 0.19533,-4.60629 0.0195,0 0.13674,-1.84252 0.0195,0 0.15626,2.76378 0.0195,-0.92126 0.0195,0.92126 0,0 0.15626,4.60629 0.0195,-0.92126 0.0586,-2.76377 0.0586,1.84251 0.0391,0 0.0977,1.84252 0.0195,-0.92126 0.0195,0 0.0586,0.92126 0.0391,-0.92126 0.13674,-1.84251 0.0586,0.92125 0.0195,-0.92125 0.17579,-3.68504 0.0391,0 0.19533,-4.60629 0.0391,0 0.0195,-0.92126 0.0391,0.92126 0,0 0.1172,0.92125 0.0781,0 0.0391,-1.84251 0.0391,1.84251 0.0195,0.92126 0.0195,-0.92126 0,0 0.13673,-1.84251 0.0195,0 0.0391,0.92126 0.0586,-0.92126 0.0781,-0.92126 0.0195,0.92126 0.0195,0 0.0391,-0.92126 0.0195,0.92126 0,0 0.15626,2.76377 0.0195,0 0.0781,2.76378 0.0586,-0.92126 0.0195,0 0.0586,0.92126 0.0195,-0.92126 0.0781,-1.84252 0.0195,0.92126 0.0391,0.92126 0.0391,-0.92126 0.15626,-2.76377 0.0977,0 0.0977,-3.68504 0.0586,0.92126 0.0391,0 0.0586,-0.92126 0.0391,0.92126 0.0195,0 0.0586,0.92126 0.0391,-0.92126 0.0195,0 0.1172,-0.92126 0.0391,0.92126 0.0195,-0.92126 0,0 0.13673,-3.68504 0.0195,0.92126 0.0195,0 0.13673,1.84252 0.0195,0 0.21486,-5.52755 0.0195,0 0.0586,-2.76378 0.0781,0.92126 0.0195,0 0.21486,5.52755 0.1172,-0.92126 0.0977,0 0.0977,-0.92125 0.0586,0.92125 0.0195,-0.92125 0.1758,-3.68504 0.0781,0 0.15626,-2.76378 0.0195,0 0.0977,-0.92126 0.15626,2.76378 0.15627,-2.76378 0.13673,2.76378 0.0586,-1.84252 0.0586,0.92126 0.0391,0 0.15626,-5.52755 0.0391,0.92126 0.0195,0 0.0781,1.84251 0.0195,-0.92125 0.0195,-0.92126 0.0586,0.92126 0.0781,0.92125 0.0195,-0.92125 0.13673,-4.6063 0.0391,0.92126 0.0195,0 0.0977,1.84252 0.0195,-0.92126 0.0195,0 0.15626,3.68503 0.1172,-2.76377 0.0195,0.92126 0.0781,0 0.0586,1.84251 0.0391,-0.92125 0.23439,-6.44882 0.0195,0 0.13673,-1.84251 0.0977,0 0.13673,-1.84252 0.1172,0.92126 0.0391,0 0.0391,0.92126 0.0195,-0.92126 0,0 0.15627,-3.68504 0.13673,4.6063 0.0391,-0.92126 0.0781,-1.84252 0.0391,0.92126 0.0195,0 0.15626,2.76377 0.0195,-0.92125 0.0586,0.92125 0.0586,1.84252 0.0586,-0.92126 0.0586,0 0.1172,-1.84251 0.0781,1.84251 0.0391,-0.92126 0.0977,-0.92125 0.0391,1.84251 0.0586,-0.92126 0.13673,-2.76377 0.0391,0.92126 0.0586,-0.92126 0.0195,0 0.15627,-2.76378 0.0781,2.76378 0.0586,-0.92126 0.0195,0 0.0391,0.92126 0.0586,-0.92126 0.0195,0 0.0781,-1.84252 0.0391,0.92126 0.0781,0 0.15626,-2.76378 0.0195,0 0.0586,-0.92126 0.0391,0.92126 0.0391,0 0.13674,1.84252 0.11719,-1.84252 0.1172,0.92126 0.1172,-0.92126 0.0391,0.92126 0.0195,-0.92126 0,0 0.1172,-3.68503 0.0391,0.92126 0.0586,0 0.0391,-1.84252 0.0781,0.92126 0.0195,0 0.0195,-0.92126 0.0195,0.92126 0,0 0.11719,0.92126 0.0391,0 0.1758,3.68503 0.0391,-0.92126 0.0586,0.92126 0.0195,0 0.0781,-0.92126 0.0195,0.92126 0.0586,0 0.19533,-4.60629 0.0195,0.92126 0.0195,-0.92126 0,0 0.0977,-1.842521 0.0195,0.921261 0.0391,0 0.1172,-0.921261 0.0391,0 0.0195,0.921261 0.0781,-0.921261 0.0195,0 0.0195,0.921261 0.0195,-0.921261 0,0 0.11719,-0.921259 0.0586,0 0.0977,-0.921259 0.15626,3.685039 0.0586,-1.842521 0.0391,1.842521 0.11719,0.92126 0.0195,0 0.0195,-0.92126 0.0195,0.92126 0,0 0.1172,2.76377 0.0195,-0.92126 0.0195,0 0.11719,0.92126 0.0586,0 0.0586,0.92126 0.0195,-0.92126 0.0195,-0.92126 0.0195,0.92126 0,0 0.0195,0.92126 0.0195,-0.92126 0,0 0.0391,-1.84252 0.0391,1.84252 0.15626,2.76378 0.21487,-5.52755 0.0195,0 0.0977,-0.92126 0.0781,0.92126 0.0195,-0.92126 0.0195,0 0.0195,0.92126 0.0195,-0.92126 0,0 0.11719,-0.92126 0.0195,0 0.1172,-2.763779 0.0195,0.921259 0.0195,0 0.0195,0.921259 0.0586,-0.921259 0.1172,-1.842518 0.0391,1.842518 0.0781,-0.921259 0.0391,-0.921259 0.0586,0.921259 0.0781,3.685039 0.0586,-0.92126 0.15627,-2.763779 0.0195,0 0.1172,2.763779 0.0195,-0.921261 0.13673,-1.842518 0.0781,0 0.0195,-0.921259 0.0195,0.921259 0,0 0.0195,0.921259 0.0781,-0.921259 0.0195,0 0.0391,0.921259 0.0391,-0.921259 0.1172,-3.685035 0.0195,0.921259 0.0781,0.921259 0.0195,-0.921259 0.0781,0 0.0586,-0.921259 0.0391,0.921259 0.13673,1.842517 0.0586,0 0.0391,-0.921258 0.0195,0.921258 0,0 0.0195,0.921259 0.0586,-0.921259 0.0391,-1.842517 0.0781,0.921259 0.0391,0 0.11719,1.842517 0.15627,-3.685035 0.0977,1.842518 0.0195,-0.921259 0.0195,0 0.13673,-1.842518 0.0195,0 0.1172,-0.921259 0.1172,0.921259 0.0195,0 0.1172,-0.921259 0.0586,0 0.13673,2.763777 0.0781,-2.763777 0.0391,1.842518 0.0977,0 0.13673,1.842518 0.0391,0 0.0586,0.921258 0.0195,-0.921258 0.1172,-0.921259 0.0391,0 0.0391,0.921259 0.0195,-0.921259 0,0 0.0195,-0.921259 0.0391,0.921259 0,0 0.1172,2.763776 0.0195,-0.921259 0.0586,0 0.25393,7.370068 0.1172,-0.92126 0.0195,0 0.0195,0.92126 0.0781,-0.92126 0.0195,0 0.0977,0.92126 0.1758,-3.68503 0.0391,0 0.11719,0.92126 0.1172,-2.76378 0.0195,0.921259 0.0586,0.921261 0.0391,-0.921261 0.0195,0 0.1758,-4.606294 0.0195,0.921259 0.0391,-0.921259 0,0 0.15626,-2.763777 0.0391,1.842518 0.0586,-1.842518 0.0586,-0.921259 0.0195,0.921259 0.0195,0.921259 0.0391,-0.921259 0,0 0.0586,-1.842518 0.0586,0.921259 0.0977,1.842518 0.0195,-0.921259 0.0195,0 0.0586,-0.921259 0.0391,0.921259 0.0195,0 0.0781,1.842518 0.0391,-0.921259 0.1172,-0.921259 0.0195,0 0.21487,5.527553 0.0391,0 0.0977,1.842518 0.0195,-0.921259 0.13673,-1.842518 0.0391,1.842518 0.0391,-1.842518 0.0391,-0.921258 0.0586,0.921258 0.0195,0 0.0391,0.921259 0.0391,-0.921259 0.1172,-2.763776 0.0195,0.921259 0.0195,0 0.0586,2.763776 0.0781,-0.921259 0.0195,-0.921258 0.0195,0.921258 0,0 0.0391,0.921259 0.0586,-0.921259 0.0391,0 0.15627,2.763777 0.0781,-0.921259 0.0195,0.921259 0.0391,0 0.1172,2.763781 0.0195,-0.92126 0.0977,0 0.0586,1.84251 0.0391,-0.92125 0.1172,-0.92126 0.0391,0 0.13673,-2.76378 0.13673,1.84252 0.0586,0 0.13673,-1.84252 0.0391,0 0.0977,-1.842518 0.0195,0.921259 0.0391,0 0.1172,1.842518 0.0977,-1.842518 0.0195,0.921259 0.0391,0 0.13673,-1.842518 0.13674,1.842518 0.0586,0 0.15627,2.76378 0.0781,-0.92126 0.0195,0.92126 0.0977,0 0.0977,0.92126 0.15627,-2.763781 0.0195,0 0.13673,-1.842518 0.0195,0 0.0977,3.685039 0.0586,-0.92126 0.0391,0 0.13673,-2.763779 0.0195,0.921259 0.0586,-0.921259 0.15626,-2.763776 0.0195,0.921259 0.0391,-0.921259 0,0 0.0195,-0.921259 0.0195,0.921259 0,0 0.15627,3.685035 0.0977,-0.921259 0.0977,0.921259 0.0586,-1.842518 0.0391,1.842518 0.1172,0.921259 0.1172,0 0.1172,-0.921259 0.0391,0 0.1172,-0.921259 0.0391,0.921259 0.0586,-0.921259 0.0391,0 0.0195,0.921259 0.0195,-0.921259 0,0 0.0977,-1.842517 0.0195,0.921258 0.0781,0.921259 0.0195,-0.921259 0.1172,-0.921258 0.0195,0 0.15626,-3.685036 0.1172,0.921259 0.0195,0 0.19533,-4.606295 0.0586,0 0.0586,-1.842518 0.0586,0.921259 0.0195,0 0.0586,-0.921259 0.0195,0.921259 0.0195,0.921259 0.0195,-0.921259 0,0 0.0195,-0.921259 0.0195,0.921259 0,0 0.0977,0.921259 0.0977,-3.685036 0.0586,0.921259 0.0586,0.921259 0.0195,-0.921259 0.13673,-1.842518 0.0195,0 0.13673,-1.842517 0.0195,0 0.17579,3.685035 0.13673,-1.842518 0.0586,0 0.0977,0.921259 0.0391,-0.921259 0.0586,0.921259 0.0586,0 0.13673,-1.842517 0.0781,0.921258 0.0195,-0.921258 0.0391,0 0.13673,-1.842518 0.0195,0 0.21486,-5.527554 0.0586,0.921259 0.0195,-0.921259 0.1172,-1.842518 0.13673,2.763777 0.0391,-0.921259 0.0391,0.921259 0.13673,1.842518 0.0391,0 0.15626,-2.763777 0.0195,0 0.0781,-0.921259 0.0195,0.921259 0.0391,0 0.0195,0.921259 0.0195,-0.921259 0,0 0.1172,-2.763777 0.0195,0.921259 0.15627,3.685036 0.15626,-2.763777 0.0391,0 0.0391,-0.921259 0.0195,0.921259 0,0 0.1172,0.921259 0.0195,-0.921259 0.0781,0.921259 0.0586,0 0.0195,0.921259 0.0781,-0.921259 0.1172,0 0.19533,4.606295 0.0391,0 0.13673,-2.763777 0.1172,0.921259 0.0781,0 0.0977,-0.921259 0.1172,0.921259 0.0195,0 0.1758,3.685036 0.0977,0 0.15627,-2.763777 0.0195,0 0.0391,-0.921259 0.0195,0.921259 0,0 0.15626,2.763777 0.1172,-1.842518 0.15626,2.763777 0.0391,-0.921259 0.0586,0.921259 0.0195,0 0.0391,-0.921259 0.0391,0.921259 0.0195,0.921258 0.0195,-0.921258 0,0 0.0586,-0.921259 0.0391,0.921259 0.0391,0 0.0586,-2.763777 0.0781,0.921259 0.0391,0 0.0195,-0.921259 0.0195,0.921259 0,0 0.0195,0.921259 0.0195,-0.921259 0,0 0.0781,-0.921259 0.0195,0.921259 0.0195,0 0.0586,0.921259 0.0391,-0.921259 0.0586,0 0.19533,4.606294 0.13673,-1.842518 0.0586,1.842518 0.0391,-1.842518 0.0195,0 0.11719,3.685036 0.0391,-0.921259 0.0781,-1.842518 0.0391,0.921259 0.0195,0.921259 0.0195,-0.921259 0,0 0.0195,-0.921259 0.0195,0.921259 0,0 0.0195,0.921259 0.0586,-0.921259 0.0977,-1.842518 0.0195,0.921259 0.13673,1.842518 0.0195,0 0.0195,-0.921259 0.0195,0.921259 0,0 0.13673,1.842518 0.0586,0 0.0781,2.763777 0.0586,-0.921259 0.0391,0 0.0586,2.763777 0.0781,-0.921259 0.0781,0 0.1172,0.921259 0.0195,0 0.13673,-1.842518 0.0391,0 0.13673,-1.842518 0.0195,0.921259 0.0195,-0.921259 0,0 0.13673,-1.842518 0.1172,2.763777 0.0195,-0.921259 0.1172,-2.763777 0.0195,0.921259 0.0781,0 0.17579,4.606295 0.1172,-0.921259 0.0195,0 0.0781,-1.842518 0.0195,0.921259 0.0195,0.921259 0.0391,-0.921259 0,0 0.0195,-0.921259 0.0586,0.921259 0.0391,0.921259 0.0195,-0.921259 0,0 0.19533,-4.606295 0.0391,0 0.13673,-5.527553 0.0391,1.842518 0.0586,0 0.13673,1.842517 0.0781,-0.921258 0.0195,0.921258 0.0391,0 0.19533,4.606295 0.0586,0 0.1172,-1.842518 0.0586,1.842518 0.0391,-1.842518 0.0195,0 0.0586,-2.763777 0.0586,1.842518 0.0391,0 0.13673,2.763777 0.0977,-1.842518 0.0195,0.921259 0.0195,0 0.0195,0.921259 0.0391,-0.921259 0,0 0.0977,-2.763777 0.0391,0.921259 0.1758,3.685036 0.0391,0 0.1172,0.921259 0.0195,0 0.0977,-1.842518 0.0195,0.921259 0.0977,0 0.1172,-2.763777 0.0195,0.921259 0.13673,2.763777 0.1172,-0.921259 0.11719,2.763777 0.0195,-0.921259 0.0391,0 0.0977,0.921259 0.13673,-1.842518 0.0195,0 0.0781,-1.842518 0.0391,0.921259 0.0977,0.921259 0.13674,-1.842518 0.0195,0 0.0391,0.921259 0.0391,-0.921259 0.0195,-0.921259 0.0391,0.921259 0,0 0.25393,7.370072 0.13673,-1.842518 0.0781,0.921259 0.0195,-0.921259 0.15627,-2.763777 0.0195,0 0.0195,0.921259 0.0195,-0.921259 0,0 0.0977,-0.921259 0.1172,0.921259 0.0195,0 0.13673,-1.842518 0.0391,0 0.0781,-1.842518 0.0391,0.921259 0.0586,0 0.17579,3.685036 0.0391,0 0.0977,-2.763777 0.0391,0.921259 0.0781,0.921259 0.0195,-0.921259 0.13673,-3.685036 0.0195,0.921259 0.0391,0 0.15627,-2.763777 0.0781,0 0.0977,-0.921259 0.0391,0.921259 0.0195,-0.921259 0,0 0.0391,-1.842517 0.0781,0.921259 0.13673,1.842517 0.1172,-0.921259 0.0195,0 0.0195,0.921259 0.0195,-0.921259 0,0 0.0586,-0.921258 0.0391,0.921258 0.1172,0.921259 0.0781,0 0.0977,-2.763776 0.0195,0.921259 0.0195,0.921258 0.0195,-0.921258 0,0 0.0586,-1.842518 0.0586,0.921259 0.0586,0.921259 0.0195,-0.921259 0.0195,-0.921259 0.0391,0.921259 0,0 0.0195,0.921259 0.0781,-0.921259 0.13673,-1.842518 0.0195,0 0.1758,-3.685036 0.0195,0 0.13673,3.685036 0.0195,-0.921259 0.0586,-0.921259 0.0195,0.921259 0.0195,0.921259 0.0781,-0.921259 0.0195,0 0.11719,0.921259 0.0195,0 0.0391,0.921259 0.0195,-0.921259 0,0 0.0195,-0.921259 0.0195,0.921259 0,0 0.0391,0.921259 0.0391,-0.921259 0.0195,-0.921259 0.0195,0.921259 0,0 0.13673,3.685035 0.0195,-0.921258 0.0586,0 0.19533,-4.606295 0.1172,1.842518 0.0391,-1.842518 0.0586,1.842518 0.0391,1.842518 0.0781,-0.921259 0.21487,-5.527554 0.0781,0 0.15626,2.763777 0.0586,-1.842518 0.0586,0.921259 0.0195,0 0.0195,-0.921259 0.0195,0.921259 0,0 0.0977,0.921259 0.0586,-0.921259 0.0195,0.921259 0.0977,2.763777 0.0391,-0.921259 0.0195,0 0.0781,1.842518 0.0391,-0.921259 0.0195,0 0.0977,-1.842518 0.0195,0.921259 0.0391,0.921259 0.0195,-0.921259 0,0 0.0586,-1.842518 0.0391,1.842518 0.0391,0 0.15626,-2.763777 0.0195,0 0.19533,-4.606295 0.0977,0.921259 0.0781,-0.921259 0.0195,0.921259 0.0195,0 0.0195,0.921259 0.0391,-0.921259 0,0 0.19533,-4.606294 0.0391,0.921259 0.0586,-0.921259 0.0977,-1.842518 0.0195,0.921259 0.0195,0 0.1172,-3.685036 0.0391,0.921259 0.15627,2.763777 0.15626,-5.527554 0.0391,0.921259 0.0391,0 0.1758,-3.685036 0.0195,0 0.0586,-0.921259 0.0391,0.921259 0.17579,3.685036 0.0195,0 0.0391,-0.921259 0.0391,0.921259 0.0977,0.921259 0.1172,-1.842518 0.0391,0.921259 0.0195,-0.921259 0,0 0.0195,-0.921259 0.0195,0.921259 0,0 0.13673,1.842518 0.0781,-0.921259 0.0195,0.921259 0.0391,0 0.0195,0.921259 0.0781,-0.921259 0.0977,-1.842518 0.0195,0.921259 0.0195,0 0.0391,0.921259 0.0195,-0.921259 0,0 0.15627,-2.763777 0.0781,0 0.0391,-0.921259 0.0195,0.921259 0,0 0.13673,1.842518 0.0195,-0.921259 0.0781,0.921259 0.0195,0 0.15626,-2.763777 0.0781,2.763777 0.0586,-0.921259 0.0195,0 0.13673,2.763777 0.0781,-2.763777 0.0586,0.921259 0.0195,0 0.0195,0.921259 0.0391,-0.921259 0,0 0.13673,-1.842518 0.0391,0 0.0391,1.842518 0.0781,-0.921259 0.1758,-3.685036 0.13673,3.685036 0.0195,-0.921259 0.15627,-2.763777 0.0391,0 0.15627,4.606295 0.0195,-0.921259 0.0586,-0.921259 0.0195,0.921259 0.1172,0.921259 0.0391,0 0.0586,-2.763777 0.0781,0.921259 0.0195,0 0.0977,2.763777 0.0391,-0.921259 0.0586,0 0.17579,3.685036 0.1172,-0.921259 0.0195,0 0.0391,0.921259 0.0586,-0.921259 0.0391,0 0.0781,-0.921259 0.0195,0.921259 0.1172,1.842518 0.15626,-2.763777 0.0195,0 0.0195,0.921259 0.0195,-0.921259 0,0 0.0781,-0.921259 0.0195,0.921259 0.0195,0 0.0391,-1.842518 0.0586,1.842518 0.0977,0 0.0781,0.921259 0.0195,-0.921259 0.0391,-0.921259 0.0195,0.921259 0,0 0.13673,2.763777 0.0781,-0.921259 0.0195,0.921259 0.0195,0 0.15626,-2.763777 0.0391,0 0.0195,-0.921259 0.0195,0.921259 0,0 0.13673,1.842518 0.0391,0 0.13673,-1.842518 0.0391,0 0.1172,-0.921259 0.13673,1.842518 0.0195,0 0.0781,-0.921259 0.0195,0.921259 0.0195,0 0.0586,0.921259 0.0195,-0.921259 0.19533,-5.527554 0.15626,4.606295 0.0195,-0.921259 0.15626,-2.763777 0.0195,0 0.0781,-1.842518 0.0195,0.921259 0.0391,0.921259 0.0195,-0.921259 0,0 0.1172,-0.921259 0.0195,0 0.0195,0.921259 0.0195,-0.921259 0,0 0.0195,-0.921259 0.0195,0.921259 0,0 0.0977,2.763777 0.0391,-0.921259 0.0391,0 0.17579,3.685036 0.0195,0 0.0195,-0.921259 0.0195,0.921259 0,0 0.0977,1.842518 0.0195,-0.921259 0.0195,0 0.13673,-1.842518 0.0586,0 0.0781,1.842518 0.0195,-0.921259 0.0977,-1.842518 0.0195,0.921259 0.0586,0.921259 0.0391,-0.921259 0.1758,-3.685036 0.0195,0 0.0391,0.921259 0.0586,-0.921259 0.0391,0 0.0781,-0.921259 0.0195,0.921259 0.0195,0 0.0977,-0.921259 0.13673,1.842518 0.0586,0 0.1758,4.606295 0.13673,-1.842518 0.0195,0.921259 0.0781,-0.921259 0.0781,-1.842518 0.0195,0.921259 0.13673,1.842518 0.0781,0 0.1172,0.921259 0.15627,-2.763777 0.0781,0 0.15626,-2.763777 0.0195,0 0.0977,1.842518 0.0195,-0.921259 0.0781,0 0.0781,3.685036 0.0586,-1.842518 0.0586,0 0.13673,-1.842518 0.0195,0 0.0195,0.921259 0.0781,-0.921259 0.1172,-0.921259 0.0391,0 0.0195,-0.921259 0.0195,0.921259 0,0 0.0195,0.921259 0.0195,-0.921259 0,0 0.1172,-0.921259 0.0195,0 0.1172,0.921259 0.0391,0 0.0391,0.921259 0.0391,-0.921259 0.21487,-5.527553 0.21486,0 0.1172,-0.921259 0.0195,0 0.0195,-0.921259 0.0391,0.921259 0,0 0.1758,3.685036 0.0781,-1.842518 0.0195,0.921259 0.15626,3.685035 0.13673,-1.842518 0.0391,1.842518 0.0586,-1.842518 0.0195,0 0.0781,0.921259 0.0195,-0.921259 0.1172,-0.921258 0.0586,0.921258 0.0195,-0.921258 0.0391,-0.921259 0.0586,0.921259 0.0195,0 0.0781,-2.763777 0.0391,0.921259 0.0977,1.842518 0.0195,-0.921259 0.0195,0 0.0391,-0.921259 0.0195,0.921259 0,0 0.1172,0.921259 0.0781,0 0.1172,-1.842518 0.21486,5.527553 0.0391,0 0.1758,3.685036 0.0586,0 0.0391,0.921259 0.0195,-0.921259 0,0 0.0195,-0.921259 0.0781,0.921259 0.0195,0 0.1172,-2.763777 0.0195,0.921259 0.0195,0 0.0781,-2.763777 0.0391,1.842518 0.0195,0 0.13673,1.842518 0.0195,-0.921259 0.0391,0.921259 0,0 0.0977,0.921259 0.0586,-0.921259 0.0195,0.921259 0.0977,0.921259 0.11719,-2.763777 0.0195,0.921259 0.0391,0 0.1758,-3.685036 0.0195,0 0.0977,-0.921259 0.0195,0.921259 0.0391,-0.921259 0,0 0.0391,-0.921259 0.0195,0.921259 0,0 0.13673,4.606295 0.0391,-0.921259 0.0195,0 0.0977,-1.842518 0.0195,0.921259 0.13673,0 0.0391,-0.921259 0.0586,0.921259 0.0195,0 0.1172,-0.921259 0.0781,1.842518 0.0391,-0.921259 0.0195,-0.921259 0.0586,0.921259 0.1172,1.842518 0.11719,-0.921259 0.0195,0 0.15626,-2.763777 0.0781,0.921259 0.0195,-0.921259 0.0195,0 0.13673,1.842518 0.0977,0 0.0391,0.921259 0.0586,-0.921259 0.0391,0 0.0586,-0.921259 0.0195,0.921259 0.17579,3.685036 0.0977,0 0.0195,0.921259 0.0586,-0.921259 0.0195,-0.921259 0.0391,0.921259 0,0 0.1172,2.763777 0.0195,-0.921259 0.0195,0 0.13673,1.842518 0.0195,0 0.0586,-1.842518 0.0391,0.921259 0.0391,0.921259 0.0391,-0.921259 0.0781,-0.921259 0.0195,0.921259 0.0586,2.763776 0.0781,-0.921258 0.0391,0 0.0977,0.921258 0.15626,-2.763776 0.19533,4.606294 0.0195,0 0.0391,0.921259 0.0586,-0.921259 0.0586,-0.921259 0.0391,0.921259 0.0195,0 0.15626,-2.763776 0.0781,0 0.13673,-1.842518 0.15626,2.763776 0.0391,0 0.0391,0.921259 0.0195,-0.921259 0,0 0.1758,-4.606294 0.2344,6.448812 0.0391,0 0.1172,-0.921259 0.0586,1.842518 0.0586,-0.921259 0.0195,-0.921259 0.0391,0.921259 0,0 0.13673,3.685036 0.0195,-0.921259 0.0391,0 0.17579,3.685036 0.0391,0 0.13673,1.842518 0.1172,-0.921259 0.0391,0 0.1172,-0.921259 0.0586,0 0.1172,-1.842518 0.13673,4.606295 0.0391,-0.921259 0.0195,0 0.1758,3.685035 0.0195,0 0.15626,4.606295 0.0195,-0.921259 0.0391,0 0.0195,0.921259 0.0781,-0.921259 0.0195,0 0.1172,0.921259 0.0195,0 0.1172,-0.921259 0.13673,3.685036 0.0195,-0.921259 0.0391,0 0.11719,1.842518 0.0586,-0.921259 0.0391,0.921259 0.0391,0 0.13673,1.842518 0.0195,-0.921259 0.0391,0.921259 0,0 0.0977,2.763776 0.0391,-0.921259 0.0391,0 0.1172,-0.921258 0.0195,0 0.13673,-1.842518 0.0195,0 0.0391,-0.921259 0.0586,0.921259 0.0391,0 0.0977,-1.842518 0.0195,0.921259 0.0586,0 0.0977,-1.842518 0.0195,0.921259 0.0391,0 0.0391,-0.921259 0.0586,0.921259 0.0586,2.763777 0.0586,-0.921259 0.0391,-1.842518 0.0195,0.921259"
           style="fill:none;stroke:#0000ff;stroke-width:1.5;stroke-linecap:square;stroke-linejoin:round;stroke-miterlimit:10;stroke-dasharray:none;stroke-opacity:1"
           id="path70883"
           inkscape:connector-curvature="0" /></g></g><g
       id="g70885"><g
         id="g70887"
         clip-path="url(#clipPath70889)"><path
           d="m 48.846875,62.175223 1.152445,0 0.156264,2.763777 1.875165,0 0.117198,0.921259 2.812747,0 0.117198,0.921259 1.875165,0 0.117198,0.921259 1.601703,0 0.117198,0.921259 3.691731,0 0.117198,0.921259 0.781319,0 0.117198,0.921259 1.816566,0 0.117197,0.921258 0.781319,0 0.136731,1.842518 0.957115,0 0.117198,0.921259 0.878984,0 0.117198,0.921259 0.429725,0 0.117198,0.921259 0.625055,0 0.117198,-0.921259 1.093846,0 0.117198,0.921259 2.129093,0 0.117198,0.921259 0.117198,0 0.117198,0.921259 0.312527,0 0.117198,0.921259 1.621236,0 0.117198,0.921259 2.011896,0 0.117198,0.921259 1.230577,0 0.117198,0.921259 0.644588,0 0.117197,0.921259 0.488325,0 0.117198,0.921259 1.640769,0 0.117198,0.921258 1.484505,0 0.117198,0.921259 0.91805,0 0.13673,1.842518 0.664121,0 0.117198,0.921259 0.761786,0 0.117198,0.921259 0.175796,0 0.117198,0.921259 1.914231,0 0.117198,0.921259 1.015714,0 0.117198,0.921259 0.703187,0 0.117198,0.921259 1.113379,0 0.117198,0.921259 0.996181,0 0.136731,1.842518 0.585989,0 0.117198,0.921259 0.72272,0 0.117198,0.921258 2.422088,0 0.117198,0.921259 0.33206,0 0.136731,1.842518 0.52739,0 0.117198,0.921261 1.953295,0 0.1172,0.92126 1.58217,0 0.1172,0.92126 0.82038,0 0.1172,0.92125 0.66412,0 0.1172,0.92126 4.82464,0 0.1172,0.92126 1.50404,0 0.1172,0.92126 0.0391,0 0.1172,0.92126 2.14863,0 0.11719,0.92126 4.29726,0 0.1172,0.92126 3.12527,0 0.13673,1.84252 0.46879,0 0.1172,0.92126 3.24247,0 0.13673,1.84251 2.38303,0 0.11719,0.92126 0.85945,0 0.13674,1.84252 5.64502,0 0.1172,0.92126 0.44926,0 0.1172,0.92126 1.8361,0 0.11719,0.92126 3.75033,0 0.1172,0.92126 1.30871,0 0.1172,0.92125 0.1172,0 0.11719,0.92126 0.0977,0 0.1172,0.92126 0.58599,0 0.13673,1.84252 0.80085,0 0.13673,1.84252 3.59407,0 0.11719,0.92126 0.0586,0 0.1172,0.92126 0.15626,0 0.1172,0.92126 1.44544,0 0.13673,1.84251 2.94948,0 0.13673,1.84252 0.42973,0 0.11719,0.92126 0.95712,0 0.1172,0.92126 1.4845,0 0.1172,0.92126 0.293,0 0.11719,0.92126 0.3516,0 0.11719,0.92126 2.16816,0 0.1172,0.92125 0.0977,0 0.11719,0.92126 0.42973,0 0.1172,0.92126 0.31253,0 0.11719,0.92126 0.74226,0 0.11719,0.92126 0.46879,0 0.1172,0.92126 0.42973,0 0.1172,0.92126 4.16052,0 0.1172,0.92126 0.48832,0 0.1172,0.92126 2.89088,0 0.1172,0.92125 0.25392,0 0.1172,0.92126 1.42591,0 0.1172,0.92126 1.46497,0 0.1172,0.92126 0.19533,0 0.13673,1.84252 1.09384,0 0.1172,0.92126 0.97665,0 0.1172,0.92126 0.17579,0 0.1172,0.92126 2.28536,0 0.13673,1.84251 2.42209,0 0.1172,0.92126 0.0195,0 0.1172,0.92126 4.80511,0 0.13673,1.84252 0.13673,0 0.1172,0.92126 0.60552,0 0.1172,0.92126 4.62931,0 0.1172,0.92126 1.87516,0 0.1172,0.92126 0.56646,0 0.11719,0.92125 0.0391,0 0.1172,0.92126 1.17198,0 0.11719,0.92126 5.21531,0 0.11719,0.92126 0.4688,0 0.11719,0.92126 0.13673,0 0.1172,0.92126 0.25393,0 0.1172,0.92126 0.83992,0 0.11719,0.92126 1.69937,0 0.1172,0.92126 3.34014,0 0.1172,0.92125 1.17197,0 0.1172,0.92126 0.0391,0 0.1172,0.92126 0.19533,0 0.11719,0.92126 0.58599,0 0.1172,0.92126 0.68365,0 0.1172,0.92126 0.2344,0 0.11719,0.92126 0.78132,0 0.1172,0.92126 0.82039,0 0.11719,0.92126 3.555,0 0.1172,0.92125 0.91805,0 0.13673,1.84252 0.19533,0 0.1172,0.92126 1.46497,0 0.1172,0.92126 0.50786,0 0.1172,0.92126 1.6603,0 0.1172,0.92126 1.19151,0 0.11719,0.92126 7.87179,0 0.1172,0.92126 0.48832,0 0.1172,0.92126 0.19533,0 0.1172,0.92125 0.56645,0 0.13674,1.84252 0.54692,0 0.1172,0.92126 0.0977,0 0.1172,0.92126 0.56645,0 0.1172,0.92126 0.85945,0 0.1172,0.92126 0.74225,0 0.1172,0.92126 1.56264,0 0.1172,0.92126 0.64458,0 0.1172,0.92125 2.0705,0 0.1172,0.92126 0.37112,0 0.1172,0.92126 1.25011,0 0,0"
           style="fill:none;stroke:#ff0000;stroke-width:2;stroke-linecap:butt;stroke-linejoin:round;stroke-miterlimit:10;stroke-dasharray:6, 6;stroke-dashoffset:0;stroke-opacity:1"
           id="path70893"
           inkscape:connector-curvature="0" /></g></g><g
       id="g70895"><path
         d="m 244.17656,39.14375 0,161.22031"
         style="fill:none;stroke:#000000;stroke-width:1;stroke-linecap:square;stroke-linejoin:miter;stroke-miterlimit:10;stroke-dasharray:none;stroke-opacity:1"
         id="path70897"
         inkscape:connector-curvature="0" /><path
         d="m 48.846875,39.14375 195.329685,0"
         style="fill:none;stroke:#000000;stroke-width:1;stroke-linecap:square;stroke-linejoin:miter;stroke-miterlimit:10;stroke-dasharray:none;stroke-opacity:1"
         id="path70899"
         inkscape:connector-curvature="0" /><path
         d="m 48.846875,200.36406 195.329685,0"
         style="fill:none;stroke:#000000;stroke-width:1;stroke-linecap:square;stroke-linejoin:miter;stroke-miterlimit:10;stroke-dasharray:none;stroke-opacity:1"
         id="path70901"
         inkscape:connector-curvature="0" /><path
         d="m 48.846875,39.14375 0,161.22031"
         style="fill:none;stroke:#000000;stroke-width:1;stroke-linecap:square;stroke-linejoin:miter;stroke-miterlimit:10;stroke-dasharray:none;stroke-opacity:1"
         id="path70903"
         inkscape:connector-curvature="0" /><path
         d="m 48.846875,39.14375 0,4"
         style="fill:#000000;fill-opacity:1;fill-rule:nonzero;stroke:#000000;stroke-width:0.5;stroke-linecap:butt;stroke-linejoin:round;stroke-miterlimit:10;stroke-dasharray:none;stroke-opacity:1"
         id="path70905"
         inkscape:connector-curvature="0" /><path
         d="m 48.846875,200.36406 0,-4"
         style="fill:#000000;fill-opacity:1;fill-rule:nonzero;stroke:#000000;stroke-width:0.5;stroke-linecap:butt;stroke-linejoin:round;stroke-miterlimit:10;stroke-dasharray:none;stroke-opacity:1"
         id="path70907"
         inkscape:connector-curvature="0" /><text
         transform="matrix(1,0,0,-1,46.323437,27.55)"
         style="font-variant:normal;font-weight:normal;font-size:10px;font-family:BitstreamVeraSans;-inkscape-font-specification:BitstreamVeraSans-Roman;writing-mode:lr-tb;fill:#000000;fill-opacity:1;fill-rule:nonzero;stroke:none"
         id="text70909"><tspan
           x="0"
           y="0"
           id="tspan70911">0</tspan></text>
<path
         d="m 87.912812,39.14375 0,4"
         style="fill:#000000;fill-opacity:1;fill-rule:nonzero;stroke:#000000;stroke-width:0.5;stroke-linecap:butt;stroke-linejoin:round;stroke-miterlimit:10;stroke-dasharray:none;stroke-opacity:1"
         id="path70913"
         inkscape:connector-curvature="0" /><path
         d="m 87.912812,200.36406 0,-4"
         style="fill:#000000;fill-opacity:1;fill-rule:nonzero;stroke:#000000;stroke-width:0.5;stroke-linecap:butt;stroke-linejoin:round;stroke-miterlimit:10;stroke-dasharray:none;stroke-opacity:1"
         id="path70915"
         inkscape:connector-curvature="0" /><text
         transform="matrix(1,0,0,-1,75.889375,27.55)"
         style="font-variant:normal;font-weight:normal;font-size:10px;font-family:BitstreamVeraSans;-inkscape-font-specification:BitstreamVeraSans-Roman;writing-mode:lr-tb;fill:#000000;fill-opacity:1;fill-rule:nonzero;stroke:none"
         id="text70917"><tspan
           x="0 6.3600001 12.72 19.08"
           y="0"
           sodipodi:role="line"
           id="tspan70919">2000</tspan></text>
<path
         d="m 126.97875,39.14375 0,4"
         style="fill:#000000;fill-opacity:1;fill-rule:nonzero;stroke:#000000;stroke-width:0.5;stroke-linecap:butt;stroke-linejoin:round;stroke-miterlimit:10;stroke-dasharray:none;stroke-opacity:1"
         id="path70921"
         inkscape:connector-curvature="0" /><path
         d="m 126.97875,200.36406 0,-4"
         style="fill:#000000;fill-opacity:1;fill-rule:nonzero;stroke:#000000;stroke-width:0.5;stroke-linecap:butt;stroke-linejoin:round;stroke-miterlimit:10;stroke-dasharray:none;stroke-opacity:1"
         id="path70923"
         inkscape:connector-curvature="0" /><text
         transform="matrix(1,0,0,-1,114.83031,27.55)"
         style="font-variant:normal;font-weight:normal;font-size:10px;font-family:BitstreamVeraSans;-inkscape-font-specification:BitstreamVeraSans-Roman;writing-mode:lr-tb;fill:#000000;fill-opacity:1;fill-rule:nonzero;stroke:none"
         id="text70925"><tspan
           x="0 6.3600001 12.72 19.08"
           y="0"
           sodipodi:role="line"
           id="tspan70927">4000</tspan></text>
<path
         d="m 166.04469,39.14375 0,4"
         style="fill:#000000;fill-opacity:1;fill-rule:nonzero;stroke:#000000;stroke-width:0.5;stroke-linecap:butt;stroke-linejoin:round;stroke-miterlimit:10;stroke-dasharray:none;stroke-opacity:1"
         id="path70929"
         inkscape:connector-curvature="0" /><path
         d="m 166.04469,200.36406 0,-4"
         style="fill:#000000;fill-opacity:1;fill-rule:nonzero;stroke:#000000;stroke-width:0.5;stroke-linecap:butt;stroke-linejoin:round;stroke-miterlimit:10;stroke-dasharray:none;stroke-opacity:1"
         id="path70931"
         inkscape:connector-curvature="0" /><text
         transform="matrix(1,0,0,-1,154.00562,27.55)"
         style="font-variant:normal;font-weight:normal;font-size:10px;font-family:BitstreamVeraSans;-inkscape-font-specification:BitstreamVeraSans-Roman;writing-mode:lr-tb;fill:#000000;fill-opacity:1;fill-rule:nonzero;stroke:none"
         id="text70933"><tspan
           x="0 6.3600001 12.72 19.08"
           y="0"
           sodipodi:role="line"
           id="tspan70935">6000</tspan></text>
<path
         d="m 205.11062,39.14375 0,4"
         style="fill:#000000;fill-opacity:1;fill-rule:nonzero;stroke:#000000;stroke-width:0.5;stroke-linecap:butt;stroke-linejoin:round;stroke-miterlimit:10;stroke-dasharray:none;stroke-opacity:1"
         id="path70937"
         inkscape:connector-curvature="0" /><path
         d="m 205.11062,200.36406 0,-4"
         style="fill:#000000;fill-opacity:1;fill-rule:nonzero;stroke:#000000;stroke-width:0.5;stroke-linecap:butt;stroke-linejoin:round;stroke-miterlimit:10;stroke-dasharray:none;stroke-opacity:1"
         id="path70939"
         inkscape:connector-curvature="0" /><text
         transform="matrix(1,0,0,-1,193.06375,27.55)"
         style="font-variant:normal;font-weight:normal;font-size:10px;font-family:BitstreamVeraSans;-inkscape-font-specification:BitstreamVeraSans-Roman;writing-mode:lr-tb;fill:#000000;fill-opacity:1;fill-rule:nonzero;stroke:none"
         id="text70941"><tspan
           x="0 6.3600001 12.72 19.08"
           y="0"
           sodipodi:role="line"
           id="tspan70943">8000</tspan></text>
<path
         d="m 244.17656,39.14375 0,4"
         style="fill:#000000;fill-opacity:1;fill-rule:nonzero;stroke:#000000;stroke-width:0.5;stroke-linecap:butt;stroke-linejoin:round;stroke-miterlimit:10;stroke-dasharray:none;stroke-opacity:1"
         id="path70945"
         inkscape:connector-curvature="0" /><path
         d="m 244.17656,200.36406 0,-4"
         style="fill:#000000;fill-opacity:1;fill-rule:nonzero;stroke:#000000;stroke-width:0.5;stroke-linecap:butt;stroke-linejoin:round;stroke-miterlimit:10;stroke-dasharray:none;stroke-opacity:1"
         id="path70947"
         inkscape:connector-curvature="0" /><text
         transform="matrix(1,0,0,-1,229.15312,27.55)"
         style="font-variant:normal;font-weight:normal;font-size:10px;font-family:BitstreamVeraSans;-inkscape-font-specification:BitstreamVeraSans-Roman;writing-mode:lr-tb;fill:#000000;fill-opacity:1;fill-rule:nonzero;stroke:none"
         id="text70949"><tspan
           x="0 6.3600001 12.72 19.08 25.440001"
           y="0"
           sodipodi:role="line"
           id="tspan70951">10000</tspan></text>
<text
         transform="matrix(1,0,0,-1,114.60547,12.878125)"
         style="font-variant:normal;font-weight:normal;font-size:10px;font-family:BitstreamVeraSans;-inkscape-font-specification:BitstreamVeraSans-Roman;writing-mode:lr-tb;fill:#000000;fill-opacity:1;fill-rule:nonzero;stroke:none"
         id="text70953"><tspan
           x="0 6.1100001 10.22 13 19.129999 21.91 25.09 32.57 38.91 48.650002 55 61.150002"
           y="0"
           sodipodi:role="line"
           id="tspan70955">Trial Number</tspan></text>
<path
         d="m 48.846875,39.14375 4,0"
         style="fill:#000000;fill-opacity:1;fill-rule:nonzero;stroke:#000000;stroke-width:0.5;stroke-linecap:butt;stroke-linejoin:round;stroke-miterlimit:10;stroke-dasharray:none;stroke-opacity:1"
         id="path70957"
         inkscape:connector-curvature="0" /><path
         d="m 244.17656,39.14375 -4,0"
         style="fill:#000000;fill-opacity:1;fill-rule:nonzero;stroke:#000000;stroke-width:0.5;stroke-linecap:butt;stroke-linejoin:round;stroke-miterlimit:10;stroke-dasharray:none;stroke-opacity:1"
         id="path70959"
         inkscape:connector-curvature="0" /><g
         id="g70961"
         transform="translate(25.471875,36.385937)"><text
           transform="matrix(1,0,0,-1,8.3789063,0)"
           style="font-variant:normal;font-weight:normal;font-size:10px;font-family:BitstreamVeraSans;-inkscape-font-specification:BitstreamVeraSans-Roman;writing-mode:lr-tb;fill:#000000;fill-opacity:1;fill-rule:nonzero;stroke:none"
           id="text70963"><tspan
             x="0 6.3600001"
             y="0"
             sodipodi:role="line"
             id="tspan70965">50</tspan></text>
<g
           id="g70967"
           transform="scale(0.01,0.01)"><g
             id="g70969"><g
               id="g70971"
               clip-path="url(#clipPath70973)"><path
                 d="m 106,355 626,0 0,-83 -626,0 0,83"
                 style="fill:#000000;fill-opacity:1;fill-rule:nonzero;stroke:none"
                 id="path70977"
                 inkscape:connector-curvature="0" /></g></g></g></g><path
         d="m 48.846875,62.175223 4,0"
         style="fill:#000000;fill-opacity:1;fill-rule:nonzero;stroke:#000000;stroke-width:0.5;stroke-linecap:butt;stroke-linejoin:round;stroke-miterlimit:10;stroke-dasharray:none;stroke-opacity:1"
         id="path70979"
         inkscape:connector-curvature="0" /><path
         d="m 244.17656,62.175223 -4,0"
         style="fill:#000000;fill-opacity:1;fill-rule:nonzero;stroke:#000000;stroke-width:0.5;stroke-linecap:butt;stroke-linejoin:round;stroke-miterlimit:10;stroke-dasharray:none;stroke-opacity:1"
         id="path70981"
         inkscape:connector-curvature="0" /><text
         transform="matrix(1,0,0,-1,39.8,59.417411)"
         style="font-variant:normal;font-weight:normal;font-size:10px;font-family:BitstreamVeraSans;-inkscape-font-specification:BitstreamVeraSans-Roman;writing-mode:lr-tb;fill:#000000;fill-opacity:1;fill-rule:nonzero;stroke:none"
         id="text70983"><tspan
           x="0"
           y="0"
           id="tspan70985">0</tspan></text>
<path
         d="m 48.846875,85.206696 4,0"
         style="fill:#000000;fill-opacity:1;fill-rule:nonzero;stroke:#000000;stroke-width:0.5;stroke-linecap:butt;stroke-linejoin:round;stroke-miterlimit:10;stroke-dasharray:none;stroke-opacity:1"
         id="path70987"
         inkscape:connector-curvature="0" /><path
         d="m 244.17656,85.206696 -4,0"
         style="fill:#000000;fill-opacity:1;fill-rule:nonzero;stroke:#000000;stroke-width:0.5;stroke-linecap:butt;stroke-linejoin:round;stroke-miterlimit:10;stroke-dasharray:none;stroke-opacity:1"
         id="path70989"
         inkscape:connector-curvature="0" /><text
         transform="matrix(1,0,0,-1,33.55,82.448884)"
         style="font-variant:normal;font-weight:normal;font-size:10px;font-family:BitstreamVeraSans;-inkscape-font-specification:BitstreamVeraSans-Roman;writing-mode:lr-tb;fill:#000000;fill-opacity:1;fill-rule:nonzero;stroke:none"
         id="text70991"><tspan
           x="0 6.3600001"
           y="0"
           sodipodi:role="line"
           id="tspan70993">50</tspan></text>
<path
         d="m 48.846875,108.23817 4,0"
         style="fill:#000000;fill-opacity:1;fill-rule:nonzero;stroke:#000000;stroke-width:0.5;stroke-linecap:butt;stroke-linejoin:round;stroke-miterlimit:10;stroke-dasharray:none;stroke-opacity:1"
         id="path70995"
         inkscape:connector-curvature="0" /><path
         d="m 244.17656,108.23817 -4,0"
         style="fill:#000000;fill-opacity:1;fill-rule:nonzero;stroke:#000000;stroke-width:0.5;stroke-linecap:butt;stroke-linejoin:round;stroke-miterlimit:10;stroke-dasharray:none;stroke-opacity:1"
         id="path70997"
         inkscape:connector-curvature="0" /><text
         transform="matrix(1,0,0,-1,27.51875,105.48036)"
         style="font-variant:normal;font-weight:normal;font-size:10px;font-family:BitstreamVeraSans;-inkscape-font-specification:BitstreamVeraSans-Roman;writing-mode:lr-tb;fill:#000000;fill-opacity:1;fill-rule:nonzero;stroke:none"
         id="text70999"><tspan
           x="0 6.3600001 12.72"
           y="0"
           sodipodi:role="line"
           id="tspan71001">100</tspan></text>
<path
         d="m 48.846875,131.26964 4,0"
         style="fill:#000000;fill-opacity:1;fill-rule:nonzero;stroke:#000000;stroke-width:0.5;stroke-linecap:butt;stroke-linejoin:round;stroke-miterlimit:10;stroke-dasharray:none;stroke-opacity:1"
         id="path71003"
         inkscape:connector-curvature="0" /><path
         d="m 244.17656,131.26964 -4,0"
         style="fill:#000000;fill-opacity:1;fill-rule:nonzero;stroke:#000000;stroke-width:0.5;stroke-linecap:butt;stroke-linejoin:round;stroke-miterlimit:10;stroke-dasharray:none;stroke-opacity:1"
         id="path71005"
         inkscape:connector-curvature="0" /><text
         transform="matrix(1,0,0,-1,27.51875,128.51183)"
         style="font-variant:normal;font-weight:normal;font-size:10px;font-family:BitstreamVeraSans;-inkscape-font-specification:BitstreamVeraSans-Roman;writing-mode:lr-tb;fill:#000000;fill-opacity:1;fill-rule:nonzero;stroke:none"
         id="text71007"><tspan
           x="0 6.3600001 12.72"
           y="0"
           sodipodi:role="line"
           id="tspan71009">150</tspan></text>
<path
         d="m 48.846875,154.30112 4,0"
         style="fill:#000000;fill-opacity:1;fill-rule:nonzero;stroke:#000000;stroke-width:0.5;stroke-linecap:butt;stroke-linejoin:round;stroke-miterlimit:10;stroke-dasharray:none;stroke-opacity:1"
         id="path71011"
         inkscape:connector-curvature="0" /><path
         d="m 244.17656,154.30112 -4,0"
         style="fill:#000000;fill-opacity:1;fill-rule:nonzero;stroke:#000000;stroke-width:0.5;stroke-linecap:butt;stroke-linejoin:round;stroke-miterlimit:10;stroke-dasharray:none;stroke-opacity:1"
         id="path71013"
         inkscape:connector-curvature="0" /><text
         transform="matrix(1,0,0,-1,27.159375,151.5433)"
         style="font-variant:normal;font-weight:normal;font-size:10px;font-family:BitstreamVeraSans;-inkscape-font-specification:BitstreamVeraSans-Roman;writing-mode:lr-tb;fill:#000000;fill-opacity:1;fill-rule:nonzero;stroke:none"
         id="text71015"><tspan
           x="0 6.3600001 12.72"
           y="0"
           sodipodi:role="line"
           id="tspan71017">200</tspan></text>
<path
         d="m 48.846875,177.33259 4,0"
         style="fill:#000000;fill-opacity:1;fill-rule:nonzero;stroke:#000000;stroke-width:0.5;stroke-linecap:butt;stroke-linejoin:round;stroke-miterlimit:10;stroke-dasharray:none;stroke-opacity:1"
         id="path71019"
         inkscape:connector-curvature="0" /><path
         d="m 244.17656,177.33259 -4,0"
         style="fill:#000000;fill-opacity:1;fill-rule:nonzero;stroke:#000000;stroke-width:0.5;stroke-linecap:butt;stroke-linejoin:round;stroke-miterlimit:10;stroke-dasharray:none;stroke-opacity:1"
         id="path71021"
         inkscape:connector-curvature="0" /><text
         transform="matrix(1,0,0,-1,27.159375,174.57478)"
         style="font-variant:normal;font-weight:normal;font-size:10px;font-family:BitstreamVeraSans;-inkscape-font-specification:BitstreamVeraSans-Roman;writing-mode:lr-tb;fill:#000000;fill-opacity:1;fill-rule:nonzero;stroke:none"
         id="text71023"><tspan
           x="0 6.3600001 12.72"
           y="0"
           sodipodi:role="line"
           id="tspan71025">250</tspan></text>
<path
         d="m 48.846875,200.36406 4,0"
         style="fill:#000000;fill-opacity:1;fill-rule:nonzero;stroke:#000000;stroke-width:0.5;stroke-linecap:butt;stroke-linejoin:round;stroke-miterlimit:10;stroke-dasharray:none;stroke-opacity:1"
         id="path71027"
         inkscape:connector-curvature="0" /><path
         d="m 244.17656,200.36406 -4,0"
         style="fill:#000000;fill-opacity:1;fill-rule:nonzero;stroke:#000000;stroke-width:0.5;stroke-linecap:butt;stroke-linejoin:round;stroke-miterlimit:10;stroke-dasharray:none;stroke-opacity:1"
         id="path71029"
         inkscape:connector-curvature="0" /><text
         transform="matrix(1,0,0,-1,27.190625,197.60625)"
         style="font-variant:normal;font-weight:normal;font-size:10px;font-family:BitstreamVeraSans;-inkscape-font-specification:BitstreamVeraSans-Roman;writing-mode:lr-tb;fill:#000000;fill-opacity:1;fill-rule:nonzero;stroke:none"
         id="text71031"><tspan
           x="0 6.3600001 12.72"
           y="0"
           sodipodi:role="line"
           id="tspan71033">300</tspan></text>
<text
         transform="matrix(0,1,1,0,18.39375,94.488281)"
         style="font-variant:normal;font-weight:normal;font-size:10px;font-family:BitstreamVeraSans;-inkscape-font-specification:BitstreamVeraSans-Roman;writing-mode:lr-tb;fill:#000000;fill-opacity:1;fill-rule:nonzero;stroke:none"
         id="text71035"><tspan
           x="0 7.48 13.63 17.549999 20.73 27.08 29.860001 36.209999 42.549999 48.68"
           y="0"
           sodipodi:role="line"
           id="tspan71037">Net Signal</tspan></text>
</g></g></svg>