<?xml version="1.0" encoding="UTF-8" standalone="no"?>
<!-- Created with Inkscape (http://www.inkscape.org/) -->

<svg
   xmlns:dc="http://purl.org/dc/elements/1.1/"
   xmlns:cc="http://creativecommons.org/ns#"
   xmlns:rdf="http://www.w3.org/1999/02/22-rdf-syntax-ns#"
   xmlns:svg="http://www.w3.org/2000/svg"
   xmlns="http://www.w3.org/2000/svg"
   xmlns:sodipodi="http://sodipodi.sourceforge.net/DTD/sodipodi-0.dtd"
   xmlns:inkscape="http://www.inkscape.org/namespaces/inkscape"
   id="svg71359"
   version="1.1"
   inkscape:version="0.91 r13725"
   xml:space="preserve"
   width="325"
   height="220"
   viewBox="0 0 325 220"
   sodipodi:docname="biphton_n_pixel_plot.svg"><metadata
     id="metadata71365"><rdf:RDF><cc:Work
         rdf:about=""><dc:format>image/svg+xml</dc:format><dc:type
           rdf:resource="http://purl.org/dc/dcmitype/StillImage" /><dc:title></dc:title></cc:Work></rdf:RDF></metadata><defs
     id="defs71363" /><sodipodi:namedview
     pagecolor="#ffffff"
     bordercolor="#666666"
     borderopacity="1"
     objecttolerance="10"
     gridtolerance="10"
     guidetolerance="10"
     inkscape:pageopacity="0"
     inkscape:pageshadow="2"
     inkscape:window-width="1918"
     inkscape:window-height="2088"
     id="namedview71361"
     showgrid="false"
     inkscape:zoom="1"
     inkscape:cx="162.5"
     inkscape:cy="110"
     inkscape:window-x="1913"
     inkscape:window-y="0"
     inkscape:window-maximized="0"
     inkscape:current-layer="g71367" /><g
     id="g71367"
     inkscape:groupmode="layer"
     inkscape:label="n_pixel_plot"
     transform="matrix(1.25,0,0,-1.25,0,220)"><g
       id="g71369"
       transform="matrix(1,0,0,-1,9.0957642e-7,175.20486)"><path
         d="m 38.43,79.195 0.75,0 0.109,-0.004 1.719,0 0.105,-0.003 0.325,0 29.023,-14.762 2.687,-2.11 2.688,-1.906 2.687,-1.722 2.688,-1.563 2.687,-1.414 2.684,-1.289 2.688,-1.176 2.687,-1.074 2.688,-0.992 2.687,-0.91 2.688,-0.844 2.687,-0.781 2.688,-0.727 2.687,-0.676 2.688,-0.629 2.687,-0.59 2.688,-0.554 2.687,-0.52 2.688,-0.488 2.687,-0.461 2.688,-0.437 2.687,-0.411 2.688,-0.39 2.683,-0.371 2.688,-0.352 2.687,-0.332 2.688,-0.32 2.687,-0.301 2.688,-0.289 2.687,-0.277 2.688,-0.266 2.687,-0.25 2.688,-0.242 2.687,-0.231 2.688,-0.222 2.687,-0.215 2.688,-0.203 2.687,-0.196 2.688,-0.191 2.687,-0.18 2.684,-0.176 2.687,-0.168 2.688,-0.164 2.687,-0.156 2.688,-0.152 2.687,-0.145 2.688,-0.14 2.687,-0.137 5.375,-0.258 5.375,-0.242 5.375,-0.227 5.375,-0.211 2.688,-0.101 2.687,-0.098 2.684,-0.094 2.687,-0.093 2.688,-0.09 5.375,-0.172 2.687,-0.078 2.688,-0.082 2.687,-0.078 2.688,-0.074 2.687,-0.071"
         style="fill:none;stroke:#0000ff;stroke-width:1.44000006;stroke-linecap:square;stroke-linejoin:miter;stroke-miterlimit:3.25;stroke-dasharray:none;stroke-opacity:1"
         id="path71371"
         inkscape:connector-curvature="0" /><path
         d="m 38.43,94.398 3.008,0 29.023,-19.855 2.687,-2.699 2.688,-2.426 2.687,-2.188 2.688,-1.968 2.687,-1.785 2.684,-1.618 2.688,-1.468 2.687,-1.344 2.688,-1.231 2.687,-1.132 2.688,-1.043 2.687,-0.965 2.688,-0.899 2.687,-0.836 2.688,-0.785 2.687,-0.734 2.688,-0.695 2.687,-0.657 2.688,-0.625 2.687,-0.59 2.688,-0.566 2.687,-0.539 2.688,-0.516 2.683,-0.492 2.688,-0.472 2.687,-0.454 2.688,-0.437 2.687,-0.418 2.688,-0.402 2.687,-0.387 2.688,-0.375 2.687,-0.356 2.688,-0.347 2.687,-0.332 2.688,-0.321 2.687,-0.308 2.688,-0.297 2.687,-0.285 2.688,-0.278 2.687,-0.265 2.684,-0.254 2.687,-0.25 2.688,-0.238 2.687,-0.227 2.688,-0.223 2.687,-0.214 2.688,-0.207 2.687,-0.2 2.688,-0.191 2.687,-0.188 2.688,-0.179 2.687,-0.172 2.688,-0.168 2.687,-0.164 2.688,-0.156 2.687,-0.153 2.688,-0.144 2.687,-0.141 2.684,-0.141 2.687,-0.132 5.375,-0.25 2.688,-0.121 2.687,-0.118 2.688,-0.113 5.375,-0.219 2.687,-0.101"
         style="fill:none;stroke:#ff0000;stroke-width:1.44000006;stroke-linecap:square;stroke-linejoin:miter;stroke-miterlimit:3.25;stroke-dasharray:2.88, 2.88;stroke-dashoffset:0;stroke-opacity:1"
         id="path71373"
         inkscape:connector-curvature="0" /><path
         d="m 77.516,170 1.007,-6.027 2.688,-13.743 2.687,-11.804 2.684,-10.196 2.688,-8.859 2.687,-7.734 2.688,-6.785 2.687,-5.981 2.688,-5.297 2.687,-4.707 2.688,-4.203 2.687,-3.766 2.688,-3.386 2.687,-3.055 2.688,-2.766 2.687,-2.507 2.688,-2.286 2.687,-2.085 2.688,-1.907 2.687,-1.75 2.688,-1.609 2.683,-1.481 2.688,-1.371 2.687,-1.265 2.688,-1.172 2.687,-1.09 2.688,-1.016 2.687,-0.945 2.688,-0.879 2.687,-0.824 2.688,-0.77 2.687,-0.722 2.688,-0.68 2.687,-0.637 2.688,-0.597 2.687,-0.567 2.688,-0.531 2.687,-0.504 2.684,-0.473 2.687,-0.449 2.688,-0.426 2.687,-0.406 2.688,-0.379 2.687,-0.363 2.688,-0.348 2.687,-0.328 2.688,-0.312 2.687,-0.297 2.688,-0.285 2.687,-0.27 2.688,-0.262 2.687,-0.246 2.688,-0.234 2.687,-0.227 2.688,-0.218 2.687,-0.207 2.684,-0.2 2.687,-0.191 2.688,-0.18 2.687,-0.175 2.688,-0.172 2.687,-0.16 2.688,-0.157 2.687,-0.152 2.688,-0.145 2.687,-0.136"
         style="fill:none;stroke:#800080;stroke-width:1.44000006;stroke-linecap:square;stroke-linejoin:miter;stroke-miterlimit:3.25;stroke-dasharray:0.72, 2.88, 2.88, 2.88;stroke-dashoffset:0;stroke-opacity:1"
         id="path71375"
         inkscape:connector-curvature="0" /><path
         d="m 81.211,170 2.687,-15.805 2.684,-13.242 2.688,-11.207 2.687,-9.57 2.688,-8.235 2.687,-7.14 2.688,-6.227 2.687,-5.465 2.688,-4.82 2.687,-4.277 2.688,-3.813 2.687,-3.41 2.688,-3.062 2.687,-2.762 2.688,-2.5 2.687,-2.266 2.688,-2.066 2.687,-1.887 2.688,-1.726 2.683,-1.582 2.688,-1.461 2.687,-1.344 2.688,-1.242 2.687,-1.149 2.688,-1.066 2.687,-0.992 2.688,-0.922 2.687,-0.864 2.688,-0.804 2.687,-0.75 2.688,-0.707 2.687,-0.66 2.688,-0.622 2.687,-0.585 2.688,-0.551 2.687,-0.52 2.684,-0.488 2.687,-0.461 2.688,-0.441 2.687,-0.414 2.688,-0.391 2.687,-0.375 2.688,-0.352 2.687,-0.336 2.688,-0.32 2.687,-0.305 2.688,-0.293 2.687,-0.277 2.688,-0.262 2.687,-0.254 2.688,-0.238 2.687,-0.23 2.688,-0.223 2.687,-0.211 2.684,-0.203 2.687,-0.191 2.688,-0.188 2.687,-0.18 2.688,-0.171 2.687,-0.165 2.688,-0.156 2.687,-0.152 2.688,-0.149 2.687,-0.14"
         style="fill:none;stroke:#000000;stroke-width:1.44000006;stroke-linecap:square;stroke-linejoin:miter;stroke-miterlimit:3.25;stroke-dasharray:0.72, 2.88;stroke-dashoffset:0;stroke-opacity:1"
         id="path71377"
         inkscape:connector-curvature="0" /><path
         d="m 123.113,147.66 27.364,0"
         style="fill:none;stroke:#0000ff;stroke-width:1.44000006;stroke-linecap:square;stroke-linejoin:miter;stroke-miterlimit:3.25;stroke-dasharray:none;stroke-opacity:1"
         id="path71379"
         inkscape:connector-curvature="0" /><text
         transform="matrix(1,0,0,-1,156.33497,145.05915)"
         style="font-variant:normal;font-weight:normal;font-size:10.07910156px;font-family:Arial;-inkscape-font-specification:ArialMT;writing-mode:lr-tb;fill:#000000;fill-opacity:1;fill-rule:nonzero;stroke:none"
         id="text71381"><tspan
           x="0"
           y="0"
           id="tspan71383">N</tspan></text>
<text
         transform="matrix(1,0,0,-1,163.61208,145.05915)"
         style="font-variant:normal;font-weight:normal;font-size:10.07910156px;font-family:MathematicaSans;-inkscape-font-specification:MathematicaSans;writing-mode:lr-tb;fill:#000000;fill-opacity:1;fill-rule:nonzero;stroke:none"
         id="text71385"><tspan
           x="0"
           y="0"
           id="tspan71387">=</tspan></text>
<text
         transform="matrix(1,0,0,-1,169.48819,145.05915)"
         style="font-variant:normal;font-weight:normal;font-size:10.07910156px;font-family:Arial;-inkscape-font-specification:ArialMT;writing-mode:lr-tb;fill:#000000;fill-opacity:1;fill-rule:nonzero;stroke:none"
         id="text71389"><tspan
           x="0"
           y="0"
           id="tspan71391">2</tspan></text>
<path
         d="m 123.113,130.594 27.364,0"
         style="fill:none;stroke:#ff0000;stroke-width:1.44000006;stroke-linecap:square;stroke-linejoin:miter;stroke-miterlimit:3.25;stroke-dasharray:2.88, 2.88;stroke-dashoffset:0;stroke-opacity:1"
         id="path71393"
         inkscape:connector-curvature="0" /><text
         transform="matrix(1,0,0,-1,156.33497,127.99515)"
         style="font-variant:normal;font-weight:normal;font-size:10.07910156px;font-family:Arial;-inkscape-font-specification:ArialMT;writing-mode:lr-tb;fill:#000000;fill-opacity:1;fill-rule:nonzero;stroke:none"
         id="text71395"><tspan
           x="0"
           y="0"
           id="tspan71397">N</tspan></text>
<text
         transform="matrix(1,0,0,-1,163.61208,127.99515)"
         style="font-variant:normal;font-weight:normal;font-size:10.07910156px;font-family:MathematicaSans;-inkscape-font-specification:MathematicaSans;writing-mode:lr-tb;fill:#000000;fill-opacity:1;fill-rule:nonzero;stroke:none"
         id="text71399"><tspan
           x="0"
           y="0"
           id="tspan71401">=</tspan></text>
<text
         transform="matrix(1,0,0,-1,169.48819,127.99515)"
         style="font-variant:normal;font-weight:normal;font-size:10.07910156px;font-family:Arial;-inkscape-font-specification:ArialMT;writing-mode:lr-tb;fill:#000000;fill-opacity:1;fill-rule:nonzero;stroke:none"
         id="text71403"><tspan
           x="0 5.6039805"
           y="0"
           sodipodi:role="line"
           id="tspan71405">10</tspan></text>
<path
         d="m 123.113,113.531 27.364,0"
         style="fill:none;stroke:#800080;stroke-width:1.44000006;stroke-linecap:square;stroke-linejoin:miter;stroke-miterlimit:3.25;stroke-dasharray:0.72, 2.88, 2.88, 2.88;stroke-dashoffset:0;stroke-opacity:1"
         id="path71407"
         inkscape:connector-curvature="0" /><text
         transform="matrix(1,0,0,-1,156.33497,110.93115)"
         style="font-variant:normal;font-weight:normal;font-size:10.07910156px;font-family:Arial;-inkscape-font-specification:ArialMT;writing-mode:lr-tb;fill:#000000;fill-opacity:1;fill-rule:nonzero;stroke:none"
         id="text71409"><tspan
           x="0"
           y="0"
           id="tspan71411">N</tspan></text>
<text
         transform="matrix(1,0,0,-1,163.61208,110.93115)"
         style="font-variant:normal;font-weight:normal;font-size:10.07910156px;font-family:MathematicaSans;-inkscape-font-specification:MathematicaSans;writing-mode:lr-tb;fill:#000000;fill-opacity:1;fill-rule:nonzero;stroke:none"
         id="text71413"><tspan
           x="0"
           y="0"
           id="tspan71415">=</tspan></text>
<text
         transform="matrix(1,0,0,-1,169.48819,110.93115)"
         style="font-variant:normal;font-weight:normal;font-size:10.07910156px;font-family:Arial;-inkscape-font-specification:ArialMT;writing-mode:lr-tb;fill:#000000;fill-opacity:1;fill-rule:nonzero;stroke:none"
         id="text71417"><tspan
           x="0 5.6039805"
           y="0"
           sodipodi:role="line"
           id="tspan71419">50</tspan></text>
<path
         d="m 123.113,96.469 27.364,0"
         style="fill:none;stroke:#000000;stroke-width:1.44000006;stroke-linecap:square;stroke-linejoin:miter;stroke-miterlimit:3.25;stroke-dasharray:0.72, 2.88;stroke-dashoffset:0;stroke-opacity:1"
         id="path71421"
         inkscape:connector-curvature="0" /><text
         transform="matrix(1,0,0,-1,156.33497,93.867146)"
         style="font-variant:normal;font-weight:normal;font-size:10.07910156px;font-family:Arial;-inkscape-font-specification:ArialMT;writing-mode:lr-tb;fill:#000000;fill-opacity:1;fill-rule:nonzero;stroke:none"
         id="text71423"><tspan
           x="0 6.7126818 12.316663 15.673003 18.464914 24.068895 29.108446 34.702347 38.058689 43.66267 48.702221 54.306202 56.543762 62.147743 64.939651 67.177216 72.781197"
           y="0"
           sodipodi:role="line"
           id="tspan71425">Perfectresolution</tspan></text>
<path
         d="m 257.676,31.598 -223.942,0"
         style="fill:none;stroke:#000000;stroke-width:0.14399999;stroke-linecap:square;stroke-linejoin:miter;stroke-miterlimit:3.25;stroke-dasharray:none;stroke-opacity:1"
         id="path71427"
         inkscape:connector-curvature="0" /><path
         d="m 33.734,31.598 0,138.402"
         style="fill:none;stroke:#000000;stroke-width:0.14399999;stroke-linecap:square;stroke-linejoin:miter;stroke-miterlimit:3.25;stroke-dasharray:none;stroke-opacity:1"
         id="path71429"
         inkscape:connector-curvature="0" /><path
         d="m 33.734,170 223.942,0"
         style="fill:none;stroke:#000000;stroke-width:0.14399999;stroke-linecap:square;stroke-linejoin:miter;stroke-miterlimit:3.25;stroke-dasharray:none;stroke-opacity:1"
         id="path71431"
         inkscape:connector-curvature="0" /><path
         d="m 257.676,170 0,-138.402"
         style="fill:none;stroke:#000000;stroke-width:0.14399999;stroke-linecap:square;stroke-linejoin:miter;stroke-miterlimit:3.25;stroke-dasharray:none;stroke-opacity:1"
         id="path71433"
         inkscape:connector-curvature="0" /><path
         d="m 38.211,31.598 0,2.652"
         style="fill:none;stroke:#000000;stroke-width:0.14399999;stroke-linecap:butt;stroke-linejoin:miter;stroke-miterlimit:3.25;stroke-dasharray:none;stroke-opacity:1"
         id="path71435"
         inkscape:connector-curvature="0" /><text
         transform="matrix(1,0,0,-1,32.207977,20.43756)"
         style="font-variant:normal;font-weight:normal;font-size:8.63964844px;font-family:Arial;-inkscape-font-specification:ArialMT;writing-mode:lr-tb;fill:#000000;fill-opacity:1;fill-rule:nonzero;stroke:none"
         id="text71437"><tspan
           x="0 4.8036442 7.1968269"
           y="0"
           sodipodi:role="line"
           id="tspan71439">0.0</tspan></text>
<path
         d="m 48.961,31.598 0,1.59"
         style="fill:none;stroke:#000000;stroke-width:0.14399999;stroke-linecap:butt;stroke-linejoin:miter;stroke-miterlimit:3.25;stroke-dasharray:none;stroke-opacity:1"
         id="path71441"
         inkscape:connector-curvature="0" /><path
         d="m 59.711,31.598 0,1.59"
         style="fill:none;stroke:#000000;stroke-width:0.14399999;stroke-linecap:butt;stroke-linejoin:miter;stroke-miterlimit:3.25;stroke-dasharray:none;stroke-opacity:1"
         id="path71443"
         inkscape:connector-curvature="0" /><path
         d="m 70.461,31.598 0,1.59"
         style="fill:none;stroke:#000000;stroke-width:0.14399999;stroke-linecap:butt;stroke-linejoin:miter;stroke-miterlimit:3.25;stroke-dasharray:none;stroke-opacity:1"
         id="path71445"
         inkscape:connector-curvature="0" /><path
         d="m 81.211,31.598 0,2.652"
         style="fill:none;stroke:#000000;stroke-width:0.14399999;stroke-linecap:butt;stroke-linejoin:miter;stroke-miterlimit:3.25;stroke-dasharray:none;stroke-opacity:1"
         id="path71447"
         inkscape:connector-curvature="0" /><text
         transform="matrix(1,0,0,-1,75.204428,20.43756)"
         style="font-variant:normal;font-weight:normal;font-size:8.63964844px;font-family:Arial;-inkscape-font-specification:ArialMT;writing-mode:lr-tb;fill:#000000;fill-opacity:1;fill-rule:nonzero;stroke:none"
         id="text71449"><tspan
           x="0 4.8036442 7.1968269"
           y="0"
           sodipodi:role="line"
           id="tspan71451">0.2</tspan></text>
<path
         d="m 91.957,31.598 0,1.59"
         style="fill:none;stroke:#000000;stroke-width:0.14399999;stroke-linecap:butt;stroke-linejoin:miter;stroke-miterlimit:3.25;stroke-dasharray:none;stroke-opacity:1"
         id="path71453"
         inkscape:connector-curvature="0" /><path
         d="m 102.707,31.598 0,1.59"
         style="fill:none;stroke:#000000;stroke-width:0.14399999;stroke-linecap:butt;stroke-linejoin:miter;stroke-miterlimit:3.25;stroke-dasharray:none;stroke-opacity:1"
         id="path71455"
         inkscape:connector-curvature="0" /><path
         d="m 113.457,31.598 0,1.59"
         style="fill:none;stroke:#000000;stroke-width:0.14399999;stroke-linecap:butt;stroke-linejoin:miter;stroke-miterlimit:3.25;stroke-dasharray:none;stroke-opacity:1"
         id="path71457"
         inkscape:connector-curvature="0" /><path
         d="m 124.207,31.598 0,2.652"
         style="fill:none;stroke:#000000;stroke-width:0.14399999;stroke-linecap:butt;stroke-linejoin:miter;stroke-miterlimit:3.25;stroke-dasharray:none;stroke-opacity:1"
         id="path71459"
         inkscape:connector-curvature="0" /><text
         transform="matrix(1,0,0,-1,118.20088,20.43756)"
         style="font-variant:normal;font-weight:normal;font-size:8.63964844px;font-family:Arial;-inkscape-font-specification:ArialMT;writing-mode:lr-tb;fill:#000000;fill-opacity:1;fill-rule:nonzero;stroke:none"
         id="text71461"><tspan
           x="0 4.8036442 7.1968269"
           y="0"
           sodipodi:role="line"
           id="tspan71463">0.4</tspan></text>
<path
         d="m 134.953,31.598 0,1.59"
         style="fill:none;stroke:#000000;stroke-width:0.14399999;stroke-linecap:butt;stroke-linejoin:miter;stroke-miterlimit:3.25;stroke-dasharray:none;stroke-opacity:1"
         id="path71465"
         inkscape:connector-curvature="0" /><path
         d="m 145.703,31.598 0,1.59"
         style="fill:none;stroke:#000000;stroke-width:0.14399999;stroke-linecap:butt;stroke-linejoin:miter;stroke-miterlimit:3.25;stroke-dasharray:none;stroke-opacity:1"
         id="path71467"
         inkscape:connector-curvature="0" /><path
         d="m 156.453,31.598 0,1.59"
         style="fill:none;stroke:#000000;stroke-width:0.14399999;stroke-linecap:butt;stroke-linejoin:miter;stroke-miterlimit:3.25;stroke-dasharray:none;stroke-opacity:1"
         id="path71469"
         inkscape:connector-curvature="0" /><path
         d="m 167.203,31.598 0,2.652"
         style="fill:none;stroke:#000000;stroke-width:0.14399999;stroke-linecap:butt;stroke-linejoin:miter;stroke-miterlimit:3.25;stroke-dasharray:none;stroke-opacity:1"
         id="path71471"
         inkscape:connector-curvature="0" /><text
         transform="matrix(1,0,0,-1,161.19733,20.43756)"
         style="font-variant:normal;font-weight:normal;font-size:8.63964844px;font-family:Arial;-inkscape-font-specification:ArialMT;writing-mode:lr-tb;fill:#000000;fill-opacity:1;fill-rule:nonzero;stroke:none"
         id="text71473"><tspan
           x="0 4.8036442 7.1968269"
           y="0"
           sodipodi:role="line"
           id="tspan71475">0.6</tspan></text>
<path
         d="m 177.953,31.598 0,1.59"
         style="fill:none;stroke:#000000;stroke-width:0.14399999;stroke-linecap:butt;stroke-linejoin:miter;stroke-miterlimit:3.25;stroke-dasharray:none;stroke-opacity:1"
         id="path71477"
         inkscape:connector-curvature="0" /><path
         d="m 188.699,31.598 0,1.59"
         style="fill:none;stroke:#000000;stroke-width:0.14399999;stroke-linecap:butt;stroke-linejoin:miter;stroke-miterlimit:3.25;stroke-dasharray:none;stroke-opacity:1"
         id="path71479"
         inkscape:connector-curvature="0" /><path
         d="m 199.449,31.598 0,1.59"
         style="fill:none;stroke:#000000;stroke-width:0.14399999;stroke-linecap:butt;stroke-linejoin:miter;stroke-miterlimit:3.25;stroke-dasharray:none;stroke-opacity:1"
         id="path71481"
         inkscape:connector-curvature="0" /><path
         d="m 210.199,31.598 0,2.652"
         style="fill:none;stroke:#000000;stroke-width:0.14399999;stroke-linecap:butt;stroke-linejoin:miter;stroke-miterlimit:3.25;stroke-dasharray:none;stroke-opacity:1"
         id="path71483"
         inkscape:connector-curvature="0" /><text
         transform="matrix(1,0,0,-1,204.19378,20.43756)"
         style="font-variant:normal;font-weight:normal;font-size:8.63964844px;font-family:Arial;-inkscape-font-specification:ArialMT;writing-mode:lr-tb;fill:#000000;fill-opacity:1;fill-rule:nonzero;stroke:none"
         id="text71485"><tspan
           x="0 4.8036442 7.1968269"
           y="0"
           sodipodi:role="line"
           id="tspan71487">0.8</tspan></text>
<path
         d="m 220.949,31.598 0,1.59"
         style="fill:none;stroke:#000000;stroke-width:0.14399999;stroke-linecap:butt;stroke-linejoin:miter;stroke-miterlimit:3.25;stroke-dasharray:none;stroke-opacity:1"
         id="path71489"
         inkscape:connector-curvature="0" /><path
         d="m 231.695,31.598 0,1.59"
         style="fill:none;stroke:#000000;stroke-width:0.14399999;stroke-linecap:butt;stroke-linejoin:miter;stroke-miterlimit:3.25;stroke-dasharray:none;stroke-opacity:1"
         id="path71491"
         inkscape:connector-curvature="0" /><path
         d="m 242.445,31.598 0,1.59"
         style="fill:none;stroke:#000000;stroke-width:0.14399999;stroke-linecap:butt;stroke-linejoin:miter;stroke-miterlimit:3.25;stroke-dasharray:none;stroke-opacity:1"
         id="path71493"
         inkscape:connector-curvature="0" /><path
         d="m 253.195,31.598 0,2.652"
         style="fill:none;stroke:#000000;stroke-width:0.14399999;stroke-linecap:butt;stroke-linejoin:miter;stroke-miterlimit:3.25;stroke-dasharray:none;stroke-opacity:1"
         id="path71495"
         inkscape:connector-curvature="0" /><text
         transform="matrix(1,0,0,-1,247.19023,20.43756)"
         style="font-variant:normal;font-weight:normal;font-size:8.63964844px;font-family:Arial;-inkscape-font-specification:ArialMT;writing-mode:lr-tb;fill:#000000;fill-opacity:1;fill-rule:nonzero;stroke:none"
         id="text71497"><tspan
           x="0 4.8036442 7.1968269"
           y="0"
           sodipodi:role="line"
           id="tspan71499">1.0</tspan></text>
<path
         d="m 33.734,31.598 2.653,0"
         style="fill:none;stroke:#000000;stroke-width:0.14399999;stroke-linecap:butt;stroke-linejoin:miter;stroke-miterlimit:3.25;stroke-dasharray:none;stroke-opacity:1"
         id="path71501"
         inkscape:connector-curvature="0" /><text
         transform="matrix(1,0,0,-1,26.769375,28.59756)"
         style="font-variant:normal;font-weight:normal;font-size:8.63964844px;font-family:Arial;-inkscape-font-specification:ArialMT;writing-mode:lr-tb;fill:#000000;fill-opacity:1;fill-rule:nonzero;stroke:none"
         id="text71503"><tspan
           x="0"
           y="0"
           id="tspan71505">0</tspan></text>
<path
         d="m 33.734,38.52 1.59,0"
         style="fill:none;stroke:#000000;stroke-width:0.14399999;stroke-linecap:butt;stroke-linejoin:miter;stroke-miterlimit:3.25;stroke-dasharray:none;stroke-opacity:1"
         id="path71507"
         inkscape:connector-curvature="0" /><path
         d="m 33.734,45.438 1.59,0"
         style="fill:none;stroke:#000000;stroke-width:0.14399999;stroke-linecap:butt;stroke-linejoin:miter;stroke-miterlimit:3.25;stroke-dasharray:none;stroke-opacity:1"
         id="path71509"
         inkscape:connector-curvature="0" /><path
         d="m 33.734,52.359 1.59,0"
         style="fill:none;stroke:#000000;stroke-width:0.14399999;stroke-linecap:butt;stroke-linejoin:miter;stroke-miterlimit:3.25;stroke-dasharray:none;stroke-opacity:1"
         id="path71511"
         inkscape:connector-curvature="0" /><path
         d="m 33.734,59.277 2.653,0"
         style="fill:none;stroke:#000000;stroke-width:0.14399999;stroke-linecap:butt;stroke-linejoin:miter;stroke-miterlimit:3.25;stroke-dasharray:none;stroke-opacity:1"
         id="path71513"
         inkscape:connector-curvature="0" /><text
         transform="matrix(1,0,0,-1,21.964688,56.278048)"
         style="font-variant:normal;font-weight:normal;font-size:8.63964844px;font-family:Arial;-inkscape-font-specification:ArialMT;writing-mode:lr-tb;fill:#000000;fill-opacity:1;fill-rule:nonzero;stroke:none"
         id="text71515"><tspan
           x="0 4.8036442"
           y="0"
           sodipodi:role="line"
           id="tspan71517">20</tspan></text>
<path
         d="m 33.734,66.199 1.59,0"
         style="fill:none;stroke:#000000;stroke-width:0.14399999;stroke-linecap:butt;stroke-linejoin:miter;stroke-miterlimit:3.25;stroke-dasharray:none;stroke-opacity:1"
         id="path71519"
         inkscape:connector-curvature="0" /><path
         d="m 33.734,73.117 1.59,0"
         style="fill:none;stroke:#000000;stroke-width:0.14399999;stroke-linecap:butt;stroke-linejoin:miter;stroke-miterlimit:3.25;stroke-dasharray:none;stroke-opacity:1"
         id="path71521"
         inkscape:connector-curvature="0" /><path
         d="m 33.734,80.039 1.59,0"
         style="fill:none;stroke:#000000;stroke-width:0.14399999;stroke-linecap:butt;stroke-linejoin:miter;stroke-miterlimit:3.25;stroke-dasharray:none;stroke-opacity:1"
         id="path71523"
         inkscape:connector-curvature="0" /><path
         d="m 33.734,86.957 2.653,0"
         style="fill:none;stroke:#000000;stroke-width:0.14399999;stroke-linecap:butt;stroke-linejoin:miter;stroke-miterlimit:3.25;stroke-dasharray:none;stroke-opacity:1"
         id="path71525"
         inkscape:connector-curvature="0" /><text
         transform="matrix(1,0,0,-1,21.964688,83.958536)"
         style="font-variant:normal;font-weight:normal;font-size:8.63964844px;font-family:Arial;-inkscape-font-specification:ArialMT;writing-mode:lr-tb;fill:#000000;fill-opacity:1;fill-rule:nonzero;stroke:none"
         id="text71527"><tspan
           x="0 4.8036442"
           y="0"
           sodipodi:role="line"
           id="tspan71529">40</tspan></text>
<path
         d="m 33.734,93.879 1.59,0"
         style="fill:none;stroke:#000000;stroke-width:0.14399999;stroke-linecap:butt;stroke-linejoin:miter;stroke-miterlimit:3.25;stroke-dasharray:none;stroke-opacity:1"
         id="path71531"
         inkscape:connector-curvature="0" /><path
         d="m 33.734,100.797 1.59,0"
         style="fill:none;stroke:#000000;stroke-width:0.14399999;stroke-linecap:butt;stroke-linejoin:miter;stroke-miterlimit:3.25;stroke-dasharray:none;stroke-opacity:1"
         id="path71533"
         inkscape:connector-curvature="0" /><path
         d="m 33.734,107.719 1.59,0"
         style="fill:none;stroke:#000000;stroke-width:0.14399999;stroke-linecap:butt;stroke-linejoin:miter;stroke-miterlimit:3.25;stroke-dasharray:none;stroke-opacity:1"
         id="path71535"
         inkscape:connector-curvature="0" /><path
         d="m 33.734,114.641 2.653,0"
         style="fill:none;stroke:#000000;stroke-width:0.14399999;stroke-linecap:butt;stroke-linejoin:miter;stroke-miterlimit:3.25;stroke-dasharray:none;stroke-opacity:1"
         id="path71537"
         inkscape:connector-curvature="0" /><text
         transform="matrix(1,0,0,-1,21.964688,111.63902)"
         style="font-variant:normal;font-weight:normal;font-size:8.63964844px;font-family:Arial;-inkscape-font-specification:ArialMT;writing-mode:lr-tb;fill:#000000;fill-opacity:1;fill-rule:nonzero;stroke:none"
         id="text71539"><tspan
           x="0 4.8036442"
           y="0"
           sodipodi:role="line"
           id="tspan71541">60</tspan></text>
<path
         d="m 33.734,121.559 1.59,0"
         style="fill:none;stroke:#000000;stroke-width:0.14399999;stroke-linecap:butt;stroke-linejoin:miter;stroke-miterlimit:3.25;stroke-dasharray:none;stroke-opacity:1"
         id="path71543"
         inkscape:connector-curvature="0" /><path
         d="m 33.734,128.48 1.59,0"
         style="fill:none;stroke:#000000;stroke-width:0.14399999;stroke-linecap:butt;stroke-linejoin:miter;stroke-miterlimit:3.25;stroke-dasharray:none;stroke-opacity:1"
         id="path71545"
         inkscape:connector-curvature="0" /><path
         d="m 33.734,135.398 1.59,0"
         style="fill:none;stroke:#000000;stroke-width:0.14399999;stroke-linecap:butt;stroke-linejoin:miter;stroke-miterlimit:3.25;stroke-dasharray:none;stroke-opacity:1"
         id="path71547"
         inkscape:connector-curvature="0" /><path
         d="m 33.734,142.32 2.653,0"
         style="fill:none;stroke:#000000;stroke-width:0.14399999;stroke-linecap:butt;stroke-linejoin:miter;stroke-miterlimit:3.25;stroke-dasharray:none;stroke-opacity:1"
         id="path71549"
         inkscape:connector-curvature="0" /><text
         transform="matrix(1,0,0,-1,21.964688,139.31951)"
         style="font-variant:normal;font-weight:normal;font-size:8.63964844px;font-family:Arial;-inkscape-font-specification:ArialMT;writing-mode:lr-tb;fill:#000000;fill-opacity:1;fill-rule:nonzero;stroke:none"
         id="text71551"><tspan
           x="0 4.8036442"
           y="0"
           sodipodi:role="line"
           id="tspan71553">80</tspan></text>
<path
         d="m 33.734,149.238 1.59,0"
         style="fill:none;stroke:#000000;stroke-width:0.14399999;stroke-linecap:butt;stroke-linejoin:miter;stroke-miterlimit:3.25;stroke-dasharray:none;stroke-opacity:1"
         id="path71555"
         inkscape:connector-curvature="0" /><path
         d="m 33.734,156.16 1.59,0"
         style="fill:none;stroke:#000000;stroke-width:0.14399999;stroke-linecap:butt;stroke-linejoin:miter;stroke-miterlimit:3.25;stroke-dasharray:none;stroke-opacity:1"
         id="path71557"
         inkscape:connector-curvature="0" /><path
         d="m 33.734,163.078 1.59,0"
         style="fill:none;stroke:#000000;stroke-width:0.14399999;stroke-linecap:butt;stroke-linejoin:miter;stroke-miterlimit:3.25;stroke-dasharray:none;stroke-opacity:1"
         id="path71559"
         inkscape:connector-curvature="0" /><path
         d="m 33.734,170 2.653,0"
         style="fill:none;stroke:#000000;stroke-width:0.14399999;stroke-linecap:butt;stroke-linejoin:miter;stroke-miterlimit:3.25;stroke-dasharray:none;stroke-opacity:1"
         id="path71561"
         inkscape:connector-curvature="0" /><text
         transform="matrix(1,0,0,-1,17.16,167)"
         style="font-variant:normal;font-weight:normal;font-size:8.63964844px;font-family:Arial;-inkscape-font-specification:ArialMT;writing-mode:lr-tb;fill:#000000;fill-opacity:1;fill-rule:nonzero;stroke:none"
         id="text71563"><tspan
           x="0 4.8036442 9.6072884"
           y="0"
           sodipodi:role="line"
           id="tspan71565">100</tspan></text>
<path
         d="m 38.211,170 0,-2.652"
         style="fill:none;stroke:#000000;stroke-width:0.14399999;stroke-linecap:butt;stroke-linejoin:miter;stroke-miterlimit:3.25;stroke-dasharray:none;stroke-opacity:1"
         id="path71567"
         inkscape:connector-curvature="0" /><path
         d="m 48.961,170 0,-1.59"
         style="fill:none;stroke:#000000;stroke-width:0.14399999;stroke-linecap:butt;stroke-linejoin:miter;stroke-miterlimit:3.25;stroke-dasharray:none;stroke-opacity:1"
         id="path71569"
         inkscape:connector-curvature="0" /><path
         d="m 59.711,170 0,-1.59"
         style="fill:none;stroke:#000000;stroke-width:0.14399999;stroke-linecap:butt;stroke-linejoin:miter;stroke-miterlimit:3.25;stroke-dasharray:none;stroke-opacity:1"
         id="path71571"
         inkscape:connector-curvature="0" /><path
         d="m 70.461,170 0,-1.59"
         style="fill:none;stroke:#000000;stroke-width:0.14399999;stroke-linecap:butt;stroke-linejoin:miter;stroke-miterlimit:3.25;stroke-dasharray:none;stroke-opacity:1"
         id="path71573"
         inkscape:connector-curvature="0" /><path
         d="m 81.211,170 0,-2.652"
         style="fill:none;stroke:#000000;stroke-width:0.14399999;stroke-linecap:butt;stroke-linejoin:miter;stroke-miterlimit:3.25;stroke-dasharray:none;stroke-opacity:1"
         id="path71575"
         inkscape:connector-curvature="0" /><path
         d="m 91.957,170 0,-1.59"
         style="fill:none;stroke:#000000;stroke-width:0.14399999;stroke-linecap:butt;stroke-linejoin:miter;stroke-miterlimit:3.25;stroke-dasharray:none;stroke-opacity:1"
         id="path71577"
         inkscape:connector-curvature="0" /><path
         d="m 102.707,170 0,-1.59"
         style="fill:none;stroke:#000000;stroke-width:0.14399999;stroke-linecap:butt;stroke-linejoin:miter;stroke-miterlimit:3.25;stroke-dasharray:none;stroke-opacity:1"
         id="path71579"
         inkscape:connector-curvature="0" /><path
         d="m 113.457,170 0,-1.59"
         style="fill:none;stroke:#000000;stroke-width:0.14399999;stroke-linecap:butt;stroke-linejoin:miter;stroke-miterlimit:3.25;stroke-dasharray:none;stroke-opacity:1"
         id="path71581"
         inkscape:connector-curvature="0" /><path
         d="m 124.207,170 0,-2.652"
         style="fill:none;stroke:#000000;stroke-width:0.14399999;stroke-linecap:butt;stroke-linejoin:miter;stroke-miterlimit:3.25;stroke-dasharray:none;stroke-opacity:1"
         id="path71583"
         inkscape:connector-curvature="0" /><path
         d="m 134.953,170 0,-1.59"
         style="fill:none;stroke:#000000;stroke-width:0.14399999;stroke-linecap:butt;stroke-linejoin:miter;stroke-miterlimit:3.25;stroke-dasharray:none;stroke-opacity:1"
         id="path71585"
         inkscape:connector-curvature="0" /><path
         d="m 145.703,170 0,-1.59"
         style="fill:none;stroke:#000000;stroke-width:0.14399999;stroke-linecap:butt;stroke-linejoin:miter;stroke-miterlimit:3.25;stroke-dasharray:none;stroke-opacity:1"
         id="path71587"
         inkscape:connector-curvature="0" /><path
         d="m 156.453,170 0,-1.59"
         style="fill:none;stroke:#000000;stroke-width:0.14399999;stroke-linecap:butt;stroke-linejoin:miter;stroke-miterlimit:3.25;stroke-dasharray:none;stroke-opacity:1"
         id="path71589"
         inkscape:connector-curvature="0" /><path
         d="m 167.203,170 0,-2.652"
         style="fill:none;stroke:#000000;stroke-width:0.14399999;stroke-linecap:butt;stroke-linejoin:miter;stroke-miterlimit:3.25;stroke-dasharray:none;stroke-opacity:1"
         id="path71591"
         inkscape:connector-curvature="0" /><path
         d="m 177.953,170 0,-1.59"
         style="fill:none;stroke:#000000;stroke-width:0.14399999;stroke-linecap:butt;stroke-linejoin:miter;stroke-miterlimit:3.25;stroke-dasharray:none;stroke-opacity:1"
         id="path71593"
         inkscape:connector-curvature="0" /><path
         d="m 188.699,170 0,-1.59"
         style="fill:none;stroke:#000000;stroke-width:0.14399999;stroke-linecap:butt;stroke-linejoin:miter;stroke-miterlimit:3.25;stroke-dasharray:none;stroke-opacity:1"
         id="path71595"
         inkscape:connector-curvature="0" /><path
         d="m 199.449,170 0,-1.59"
         style="fill:none;stroke:#000000;stroke-width:0.14399999;stroke-linecap:butt;stroke-linejoin:miter;stroke-miterlimit:3.25;stroke-dasharray:none;stroke-opacity:1"
         id="path71597"
         inkscape:connector-curvature="0" /><path
         d="m 210.199,170 0,-2.652"
         style="fill:none;stroke:#000000;stroke-width:0.14399999;stroke-linecap:butt;stroke-linejoin:miter;stroke-miterlimit:3.25;stroke-dasharray:none;stroke-opacity:1"
         id="path71599"
         inkscape:connector-curvature="0" /><path
         d="m 220.949,170 0,-1.59"
         style="fill:none;stroke:#000000;stroke-width:0.14399999;stroke-linecap:butt;stroke-linejoin:miter;stroke-miterlimit:3.25;stroke-dasharray:none;stroke-opacity:1"
         id="path71601"
         inkscape:connector-curvature="0" /><path
         d="m 231.695,170 0,-1.59"
         style="fill:none;stroke:#000000;stroke-width:0.14399999;stroke-linecap:butt;stroke-linejoin:miter;stroke-miterlimit:3.25;stroke-dasharray:none;stroke-opacity:1"
         id="path71603"
         inkscape:connector-curvature="0" /><path
         d="m 242.445,170 0,-1.59"
         style="fill:none;stroke:#000000;stroke-width:0.14399999;stroke-linecap:butt;stroke-linejoin:miter;stroke-miterlimit:3.25;stroke-dasharray:none;stroke-opacity:1"
         id="path71605"
         inkscape:connector-curvature="0" /><path
         d="m 253.195,170 0,-2.652"
         style="fill:none;stroke:#000000;stroke-width:0.14399999;stroke-linecap:butt;stroke-linejoin:miter;stroke-miterlimit:3.25;stroke-dasharray:none;stroke-opacity:1"
         id="path71607"
         inkscape:connector-curvature="0" /><path
         d="m 257.676,31.598 -2.653,0"
         style="fill:none;stroke:#000000;stroke-width:0.14399999;stroke-linecap:butt;stroke-linejoin:miter;stroke-miterlimit:3.25;stroke-dasharray:none;stroke-opacity:1"
         id="path71609"
         inkscape:connector-curvature="0" /><path
         d="m 257.676,38.52 -1.594,0"
         style="fill:none;stroke:#000000;stroke-width:0.14399999;stroke-linecap:butt;stroke-linejoin:miter;stroke-miterlimit:3.25;stroke-dasharray:none;stroke-opacity:1"
         id="path71611"
         inkscape:connector-curvature="0" /><path
         d="m 257.676,45.438 -1.594,0"
         style="fill:none;stroke:#000000;stroke-width:0.14399999;stroke-linecap:butt;stroke-linejoin:miter;stroke-miterlimit:3.25;stroke-dasharray:none;stroke-opacity:1"
         id="path71613"
         inkscape:connector-curvature="0" /><path
         d="m 257.676,52.359 -1.594,0"
         style="fill:none;stroke:#000000;stroke-width:0.14399999;stroke-linecap:butt;stroke-linejoin:miter;stroke-miterlimit:3.25;stroke-dasharray:none;stroke-opacity:1"
         id="path71615"
         inkscape:connector-curvature="0" /><path
         d="m 257.676,59.277 -2.653,0"
         style="fill:none;stroke:#000000;stroke-width:0.14399999;stroke-linecap:butt;stroke-linejoin:miter;stroke-miterlimit:3.25;stroke-dasharray:none;stroke-opacity:1"
         id="path71617"
         inkscape:connector-curvature="0" /><path
         d="m 257.676,66.199 -1.594,0"
         style="fill:none;stroke:#000000;stroke-width:0.14399999;stroke-linecap:butt;stroke-linejoin:miter;stroke-miterlimit:3.25;stroke-dasharray:none;stroke-opacity:1"
         id="path71619"
         inkscape:connector-curvature="0" /><path
         d="m 257.676,73.117 -1.594,0"
         style="fill:none;stroke:#000000;stroke-width:0.14399999;stroke-linecap:butt;stroke-linejoin:miter;stroke-miterlimit:3.25;stroke-dasharray:none;stroke-opacity:1"
         id="path71621"
         inkscape:connector-curvature="0" /><path
         d="m 257.676,80.039 -1.594,0"
         style="fill:none;stroke:#000000;stroke-width:0.14399999;stroke-linecap:butt;stroke-linejoin:miter;stroke-miterlimit:3.25;stroke-dasharray:none;stroke-opacity:1"
         id="path71623"
         inkscape:connector-curvature="0" /><path
         d="m 257.676,86.957 -2.653,0"
         style="fill:none;stroke:#000000;stroke-width:0.14399999;stroke-linecap:butt;stroke-linejoin:miter;stroke-miterlimit:3.25;stroke-dasharray:none;stroke-opacity:1"
         id="path71625"
         inkscape:connector-curvature="0" /><path
         d="m 257.676,93.879 -1.594,0"
         style="fill:none;stroke:#000000;stroke-width:0.14399999;stroke-linecap:butt;stroke-linejoin:miter;stroke-miterlimit:3.25;stroke-dasharray:none;stroke-opacity:1"
         id="path71627"
         inkscape:connector-curvature="0" /><path
         d="m 257.676,100.797 -1.594,0"
         style="fill:none;stroke:#000000;stroke-width:0.14399999;stroke-linecap:butt;stroke-linejoin:miter;stroke-miterlimit:3.25;stroke-dasharray:none;stroke-opacity:1"
         id="path71629"
         inkscape:connector-curvature="0" /><path
         d="m 257.676,107.719 -1.594,0"
         style="fill:none;stroke:#000000;stroke-width:0.14399999;stroke-linecap:butt;stroke-linejoin:miter;stroke-miterlimit:3.25;stroke-dasharray:none;stroke-opacity:1"
         id="path71631"
         inkscape:connector-curvature="0" /><path
         d="m 257.676,114.641 -2.653,0"
         style="fill:none;stroke:#000000;stroke-width:0.14399999;stroke-linecap:butt;stroke-linejoin:miter;stroke-miterlimit:3.25;stroke-dasharray:none;stroke-opacity:1"
         id="path71633"
         inkscape:connector-curvature="0" /><path
         d="m 257.676,121.559 -1.594,0"
         style="fill:none;stroke:#000000;stroke-width:0.14399999;stroke-linecap:butt;stroke-linejoin:miter;stroke-miterlimit:3.25;stroke-dasharray:none;stroke-opacity:1"
         id="path71635"
         inkscape:connector-curvature="0" /><path
         d="m 257.676,128.48 -1.594,0"
         style="fill:none;stroke:#000000;stroke-width:0.14399999;stroke-linecap:butt;stroke-linejoin:miter;stroke-miterlimit:3.25;stroke-dasharray:none;stroke-opacity:1"
         id="path71637"
         inkscape:connector-curvature="0" /><path
         d="m 257.676,135.398 -1.594,0"
         style="fill:none;stroke:#000000;stroke-width:0.14399999;stroke-linecap:butt;stroke-linejoin:miter;stroke-miterlimit:3.25;stroke-dasharray:none;stroke-opacity:1"
         id="path71639"
         inkscape:connector-curvature="0" /><path
         d="m 257.676,142.32 -2.653,0"
         style="fill:none;stroke:#000000;stroke-width:0.14399999;stroke-linecap:butt;stroke-linejoin:miter;stroke-miterlimit:3.25;stroke-dasharray:none;stroke-opacity:1"
         id="path71641"
         inkscape:connector-curvature="0" /><path
         d="m 257.676,149.238 -1.594,0"
         style="fill:none;stroke:#000000;stroke-width:0.14399999;stroke-linecap:butt;stroke-linejoin:miter;stroke-miterlimit:3.25;stroke-dasharray:none;stroke-opacity:1"
         id="path71643"
         inkscape:connector-curvature="0" /><path
         d="m 257.676,156.16 -1.594,0"
         style="fill:none;stroke:#000000;stroke-width:0.14399999;stroke-linecap:butt;stroke-linejoin:miter;stroke-miterlimit:3.25;stroke-dasharray:none;stroke-opacity:1"
         id="path71645"
         inkscape:connector-curvature="0" /><path
         d="m 257.676,163.078 -1.594,0"
         style="fill:none;stroke:#000000;stroke-width:0.14399999;stroke-linecap:butt;stroke-linejoin:miter;stroke-miterlimit:3.25;stroke-dasharray:none;stroke-opacity:1"
         id="path71647"
         inkscape:connector-curvature="0" /><path
         d="m 257.676,170 -2.653,0"
         style="fill:none;stroke:#000000;stroke-width:0.14399999;stroke-linecap:butt;stroke-linejoin:miter;stroke-miterlimit:3.25;stroke-dasharray:none;stroke-opacity:1"
         id="path71649"
         inkscape:connector-curvature="0" /><text
         transform="matrix(1,0,0,-1,139.38416,3.27756)"
         style="font-variant:normal;font-weight:normal;font-size:8.63964844px;font-family:MathematicaSans;-inkscape-font-specification:MathematicaSans;writing-mode:lr-tb;fill:#000000;fill-opacity:1;fill-rule:nonzero;stroke:none"
         id="text71651"><tspan
           x="0"
           y="0"
           id="tspan71653">ϵ</tspan></text>
<text
         transform="matrix(1,0,0,-1,143.61759,3.27756)"
         style="font-variant:normal;font-weight:normal;font-size:8.63964844px;font-family:MathematicaSans;-inkscape-font-specification:MathematicaSans;writing-mode:lr-tb;fill:#000000;fill-opacity:1;fill-rule:nonzero;stroke:none"
         id="text71655"><tspan
           x="0"
           y="0"
           id="tspan71657">/</tspan></text>
<text
         transform="matrix(1,0,0,-1,146.01077,3.27756)"
         style="font-variant:normal;font-weight:normal;font-size:8.63964844px;font-family:MathematicaSans;-inkscape-font-specification:MathematicaSans;writing-mode:lr-tb;fill:#000000;fill-opacity:1;fill-rule:nonzero;stroke:none"
         id="text71659"><tspan
           x="0"
           y="0"
           id="tspan71661">σ</tspan></text>
<text
         transform="matrix(0,1,1,0,9,92.519483)"
         style="font-variant:normal;font-weight:normal;font-size:8.63964844px;font-family:MathematicaSans;-inkscape-font-specification:MathematicaSans;writing-mode:lr-tb;fill:#000000;fill-opacity:1;fill-rule:nonzero;stroke:none"
         id="text71663"><tspan
           x="0"
           y="0"
           id="tspan71665">ℐ</tspan></text>
<text
         transform="matrix(0,1,1,0,9,98.515399)"
         style="font-variant:normal;font-weight:normal;font-size:8.63964844px;font-family:MathematicaSans;-inkscape-font-specification:MathematicaSans;writing-mode:lr-tb;fill:#000000;fill-opacity:1;fill-rule:nonzero;stroke:none"
         id="text71667"><tspan
           x="0"
           y="0"
           id="tspan71669">(</tspan></text>
<text
         transform="matrix(0,1,1,0,9,101.3924)"
         style="font-variant:normal;font-weight:normal;font-size:8.63964844px;font-family:Arial;-inkscape-font-specification:ArialMT;writing-mode:lr-tb;fill:#000000;fill-opacity:1;fill-rule:nonzero;stroke:none"
         id="text71671"><tspan
           x="0"
           y="0"
           id="tspan71673">d</tspan></text>
<text
         transform="matrix(0,1,1,0,9,106.19605)"
         style="font-variant:normal;font-weight:normal;font-size:8.63964844px;font-family:MathematicaSans;-inkscape-font-specification:MathematicaSans;writing-mode:lr-tb;fill:#000000;fill-opacity:1;fill-rule:nonzero;stroke:none"
         id="text71675"><tspan
           x="0"
           y="0"
           id="tspan71677">)</tspan></text>
</g></g></svg>