<?xml version="1.0" encoding="UTF-8" standalone="no"?>
<!-- Created with Inkscape (http://www.inkscape.org/) -->

<svg
   xmlns:dc="http://purl.org/dc/elements/1.1/"
   xmlns:cc="http://creativecommons.org/ns#"
   xmlns:rdf="http://www.w3.org/1999/02/22-rdf-syntax-ns#"
   xmlns:svg="http://www.w3.org/2000/svg"
   xmlns="http://www.w3.org/2000/svg"
   xmlns:sodipodi="http://sodipodi.sourceforge.net/DTD/sodipodi-0.dtd"
   xmlns:inkscape="http://www.inkscape.org/namespaces/inkscape"
   id="svg10598"
   version="1.1"
   inkscape:version="0.91 r13725"
   xml:space="preserve"
   width="575.07983"
   height="556.35559"
   viewBox="0 0 575.07983 556.35559"
   sodipodi:docname="cw_setup.svg"><metadata
     id="metadata10604"><rdf:RDF><cc:Work
         rdf:about=""><dc:format>image/svg+xml</dc:format><dc:type
           rdf:resource="http://purl.org/dc/dcmitype/StillImage" /><dc:title></dc:title></cc:Work></rdf:RDF></metadata><defs
     id="defs10602"><clipPath
       clipPathUnits="userSpaceOnUse"
       id="clipPath10614"><path
         d="m 0,0 460.06387,0 0,445.08447 L 0,445.08447 0,0 Z"
         id="path10616"
         inkscape:connector-curvature="0" /></clipPath><linearGradient
       x1="209.28719"
       y1="719.48016"
       x2="315.99451"
       y2="719.48016"
       gradientUnits="userSpaceOnUse"
       gradientTransform="matrix(0.8,0,0,-0.8,42.988472,847.13723)"
       spreadMethod="pad"
       id="linearGradient10618"><stop
         style="stop-opacity:0.99107347;stop-color:#ffffff"
         offset="0"
         id="stop10620" /><stop
         style="stop-opacity:1;stop-color:#ffffff"
         offset="1"
         id="stop10622" /></linearGradient><mask
       maskUnits="userSpaceOnUse"
       x="0"
       y="0"
       width="1"
       height="1"
       id="mask10624"><g
         id="g10626"><g
           clip-path="url(#clipPath10614)"
           id="g10628"><g
             id="g10630"><path
               d="m 0,0 460.06387,0 0,445.08447 L 0,445.08447 0,0 Z"
               style="fill:url(#linearGradient10618);fill-opacity:1;fill-rule:nonzero;stroke:none"
               id="path10632"
               inkscape:connector-curvature="0" /></g></g></g></mask><clipPath
       clipPathUnits="userSpaceOnUse"
       id="clipPath10638"><path
         d="m 0,0 460.06387,0 0,445.08447 L 0,445.08447 0,0 Z"
         id="path10640"
         inkscape:connector-curvature="0" /></clipPath><linearGradient
       x1="209.28719"
       y1="719.48016"
       x2="315.99451"
       y2="719.48016"
       gradientUnits="userSpaceOnUse"
       gradientTransform="matrix(0.8,0,0,-0.8,42.988472,847.13723)"
       spreadMethod="pad"
       id="linearGradient10642"><stop
         style="stop-opacity:1;stop-color:#ab5710"
         offset="0"
         id="stop10644" /><stop
         style="stop-opacity:1;stop-color:#bf5752"
         offset="1"
         id="stop10646" /></linearGradient><linearGradient
       x1="10.840259"
       y1="476.97064"
       x2="148.95976"
       y2="476.97064"
       gradientUnits="userSpaceOnUse"
       gradientTransform="matrix(0.8,0,0,-0.8,-4.902152,702.02499)"
       spreadMethod="pad"
       id="linearGradient10690"><stop
         style="stop-opacity:1;stop-color:#2bc812"
         offset="0"
         id="stop10692" /><stop
         style="stop-opacity:1;stop-color:#54cd49"
         offset="1"
         id="stop10694" /></linearGradient><linearGradient
       x1="482.39877"
       y1="424.5546"
       x2="512.32074"
       y2="424.5546"
       gradientUnits="userSpaceOnUse"
       gradientTransform="matrix(0.60469,0,0,-0.892224,94.7124,744.51099)"
       spreadMethod="pad"
       id="linearGradient10750"><stop
         style="stop-opacity:1;stop-color:#505050"
         offset="0"
         id="stop10752" /><stop
         style="stop-opacity:1;stop-color:#cccccc"
         offset="1"
         id="stop10754" /></linearGradient><linearGradient
       x1="256.44986"
       y1="475.52368"
       x2="271.37622"
       y2="475.52368"
       gradientUnits="userSpaceOnUse"
       gradientTransform="matrix(0.8,0,0,-0.8,-4.902152,700.50186)"
       spreadMethod="pad"
       id="linearGradient10788"><stop
         style="stop-opacity:1;stop-color:#505050"
         offset="0"
         id="stop10790" /><stop
         style="stop-opacity:1;stop-color:#cccccc"
         offset="1"
         id="stop10792" /></linearGradient><linearGradient
       x1="256.44986"
       y1="475.52368"
       x2="271.37622"
       y2="475.52368"
       gradientUnits="userSpaceOnUse"
       gradientTransform="matrix(0.8,0,0,-0.8,-54.022288,701.59411)"
       spreadMethod="pad"
       id="linearGradient10800"><stop
         style="stop-opacity:1;stop-color:#505050"
         offset="0"
         id="stop10802" /><stop
         style="stop-opacity:1;stop-color:#cccccc"
         offset="1"
         id="stop10804" /></linearGradient><linearGradient
       x1="256.44986"
       y1="475.52368"
       x2="271.37622"
       y2="475.52368"
       gradientUnits="userSpaceOnUse"
       gradientTransform="matrix(0.513477,0,0,-0.751066,-6.887705,675.74686)"
       spreadMethod="pad"
       id="linearGradient10810"><stop
         style="stop-opacity:1;stop-color:#505050"
         offset="0"
         id="stop10812" /><stop
         style="stop-opacity:1;stop-color:#cccccc"
         offset="1"
         id="stop10814" /></linearGradient><linearGradient
       x1="256.44986"
       y1="475.52368"
       x2="271.37622"
       y2="475.52368"
       gradientUnits="userSpaceOnUse"
       gradientTransform="matrix(0.513477,0,0,-0.751066,51.49892,676.25458)"
       spreadMethod="pad"
       id="linearGradient10820"><stop
         style="stop-opacity:1;stop-color:#505050"
         offset="0"
         id="stop10822" /><stop
         style="stop-opacity:1;stop-color:#cccccc"
         offset="1"
         id="stop10824" /></linearGradient><linearGradient
       x1="193.46207"
       y1="476.32312"
       x2="224.15112"
       y2="476.32312"
       gradientUnits="userSpaceOnUse"
       gradientTransform="matrix(0.8,0,0,-0.8,-8.682473,481.13648)"
       spreadMethod="pad"
       id="linearGradient10840"><stop
         style="stop-opacity:1;stop-color:#505050"
         offset="0"
         id="stop10842" /><stop
         style="stop-opacity:1;stop-color:#cccccc"
         offset="1"
         id="stop10844" /></linearGradient><clipPath
       clipPathUnits="userSpaceOnUse"
       id="clipPath10852"><path
         d="m 0,0 460.06387,0 0,445.08447 L 0,445.08447 0,0 Z"
         id="path10854"
         inkscape:connector-curvature="0" /></clipPath><linearGradient
       x1="209.28719"
       y1="719.48016"
       x2="315.99451"
       y2="719.48016"
       gradientUnits="userSpaceOnUse"
       gradientTransform="matrix(0.8,0,0,-0.8,40.431224,614.42501)"
       spreadMethod="pad"
       id="linearGradient10856"><stop
         style="stop-opacity:0.99107347;stop-color:#ffffff"
         offset="0"
         id="stop10858" /><stop
         style="stop-opacity:1;stop-color:#ffffff"
         offset="1"
         id="stop10860" /></linearGradient><mask
       maskUnits="userSpaceOnUse"
       x="0"
       y="0"
       width="1"
       height="1"
       id="mask10862"><g
         id="g10864"><g
           clip-path="url(#clipPath10852)"
           id="g10866"><g
             id="g10868"><path
               d="m 0,0 460.06387,0 0,445.08447 L 0,445.08447 0,0 Z"
               style="fill:url(#linearGradient10856);fill-opacity:1;fill-rule:nonzero;stroke:none"
               id="path10870"
               inkscape:connector-curvature="0" /></g></g></g></mask><clipPath
       clipPathUnits="userSpaceOnUse"
       id="clipPath10876"><path
         d="m 0,0 460.06387,0 0,445.08447 L 0,445.08447 0,0 Z"
         id="path10878"
         inkscape:connector-curvature="0" /></clipPath><linearGradient
       x1="209.28719"
       y1="719.48016"
       x2="315.99451"
       y2="719.48016"
       gradientUnits="userSpaceOnUse"
       gradientTransform="matrix(0.8,0,0,-0.8,40.431224,614.42501)"
       spreadMethod="pad"
       id="linearGradient10880"><stop
         style="stop-opacity:1;stop-color:#ab5710"
         offset="0"
         id="stop10882" /><stop
         style="stop-opacity:1;stop-color:#bf5752"
         offset="1"
         id="stop10884" /></linearGradient><linearGradient
       x1="256.44986"
       y1="475.52368"
       x2="271.37622"
       y2="475.52368"
       gradientUnits="userSpaceOnUse"
       gradientTransform="matrix(0.8,0,0,-0.8,-8.682473,481.13648)"
       spreadMethod="pad"
       id="linearGradient10940"><stop
         style="stop-opacity:1;stop-color:#505050"
         offset="0"
         id="stop10942" /><stop
         style="stop-opacity:1;stop-color:#cccccc"
         offset="1"
         id="stop10944" /></linearGradient><linearGradient
       x1="10.840259"
       y1="476.97064"
       x2="148.95976"
       y2="476.97064"
       gradientUnits="userSpaceOnUse"
       gradientTransform="matrix(0.8,0,0,-0.8,-8.682473,481.13648)"
       spreadMethod="pad"
       id="linearGradient10952"><stop
         style="stop-opacity:1;stop-color:#2bc812"
         offset="0"
         id="stop10954" /><stop
         style="stop-opacity:1;stop-color:#54cd49"
         offset="1"
         id="stop10956" /></linearGradient><linearGradient
       x1="482.39877"
       y1="424.5546"
       x2="512.32074"
       y2="424.5546"
       gradientUnits="userSpaceOnUse"
       gradientTransform="matrix(0.60469,0,0,-0.892224,90.93208,523.62249)"
       spreadMethod="pad"
       id="linearGradient10984"><stop
         style="stop-opacity:1;stop-color:#505050"
         offset="0"
         id="stop10986" /><stop
         style="stop-opacity:1;stop-color:#cccccc"
         offset="1"
         id="stop10988" /></linearGradient><linearGradient
       x1="376.12247"
       y1="478.84821"
       x2="463.71524"
       y2="478.84821"
       gradientUnits="userSpaceOnUse"
       gradientTransform="matrix(0.8,0,0,-0.8,-8.682473,481.13648)"
       spreadMethod="pad"
       id="linearGradient11012"><stop
         style="stop-opacity:1;stop-color:#505050"
         offset="0"
         id="stop11014" /><stop
         style="stop-opacity:1;stop-color:#cccccc"
         offset="1"
         id="stop11016" /></linearGradient><linearGradient
       x1="256.44986"
       y1="475.52368"
       x2="271.37622"
       y2="475.52368"
       gradientUnits="userSpaceOnUse"
       gradientTransform="matrix(0.513477,0,0,-0.751066,-7.395414,457.93937)"
       spreadMethod="pad"
       id="linearGradient11026"><stop
         style="stop-opacity:1;stop-color:#505050"
         offset="0"
         id="stop11028" /><stop
         style="stop-opacity:1;stop-color:#cccccc"
         offset="1"
         id="stop11030" /></linearGradient><linearGradient
       x1="256.44986"
       y1="475.52368"
       x2="271.37622"
       y2="475.52368"
       gradientUnits="userSpaceOnUse"
       gradientTransform="matrix(0.513477,0,0,-0.751066,47.43724,457.43166)"
       spreadMethod="pad"
       id="linearGradient11036"><stop
         style="stop-opacity:1;stop-color:#505050"
         offset="0"
         id="stop11038" /><stop
         style="stop-opacity:1;stop-color:#cccccc"
         offset="1"
         id="stop11040" /></linearGradient><linearGradient
       x1="256.44986"
       y1="475.52368"
       x2="271.37622"
       y2="475.52368"
       gradientUnits="userSpaceOnUse"
       gradientTransform="matrix(0.513477,0,0,-0.751066,190.10368,541.71148)"
       spreadMethod="pad"
       id="linearGradient11046"><stop
         style="stop-opacity:1;stop-color:#505050"
         offset="0"
         id="stop11048" /><stop
         style="stop-opacity:1;stop-color:#cccccc"
         offset="1"
         id="stop11050" /></linearGradient></defs><sodipodi:namedview
     pagecolor="#ffffff"
     bordercolor="#666666"
     borderopacity="1"
     objecttolerance="10"
     gridtolerance="10"
     guidetolerance="10"
     inkscape:pageopacity="0"
     inkscape:pageshadow="2"
     inkscape:window-width="1918"
     inkscape:window-height="2088"
     id="namedview10600"
     showgrid="false"
     inkscape:zoom="0.42418914"
     inkscape:cx="287.53992"
     inkscape:cy="278.1778"
     inkscape:window-x="1913"
     inkscape:window-y="0"
     inkscape:window-maximized="0"
     inkscape:current-layer="g10606" /><g
     id="g10606"
     inkscape:groupmode="layer"
     inkscape:label="setupcombined"
     transform="matrix(1.25,0,0,-1.25,0,556.35559)"><g
       id="g10608"><g
         id="g10610"><g
           id="g10612" /><g
           id="g10634"
           mask="url(#mask10624)"><g
             id="g10636" /><g
             id="g10648"><g
               clip-path="url(#clipPath10638)"
               id="g10650"><g
                 id="g10652"><path
                   d="m 294.984,271.553 c 0,-21.011 -18.75,-38.043 -41.882,-38.043 -23.133,0 -41.883,17.032 -41.883,38.043 0,21.012 18.75,38.043 41.883,38.043 23.132,0 41.882,-17.031 41.882,-38.043 z"
                   style="fill:url(#linearGradient10642);fill-opacity:1;fill-rule:nonzero;stroke:none"
                   id="path10654"
                   inkscape:connector-curvature="0" /></g></g></g></g></g><g
         id="g10656"
         transform="matrix(1,0,0,-1,0,445.08447)"><path
           d="m 294.984,173.531 c 0,21.012 -18.75,38.043 -41.882,38.043 -23.133,0 -41.883,-17.031 -41.883,-38.043 0,-21.011 18.75,-38.043 41.883,-38.043 23.132,0 41.882,17.032 41.882,38.043 z"
           style="fill:none;stroke:#7c6c58;stroke-width:1.60000002;stroke-linecap:butt;stroke-linejoin:miter;stroke-miterlimit:4;stroke-dasharray:none;stroke-opacity:1"
           id="path10658"
           inkscape:connector-curvature="0" /></g><g
         id="g10660"
         transform="matrix(1,0,0,-1,0,445.08447)"><path
           d="m 211.285,174.578 83.906,0"
           style="fill:none;stroke:#000000;stroke-width:0.69557399;stroke-linecap:butt;stroke-linejoin:miter;stroke-miterlimit:4;stroke-dasharray:none;stroke-opacity:1"
           id="path10662"
           inkscape:connector-curvature="0" /></g><g
         id="g10664"
         transform="matrix(1,0,0,-1,0,445.08447)"><path
           d="m 254.496,173.785 0,37.559"
           style="fill:none;stroke:#000000;stroke-width:0.69296998;stroke-linecap:butt;stroke-linejoin:miter;stroke-miterlimit:4;stroke-dasharray:none;stroke-opacity:1"
           id="path10666"
           inkscape:connector-curvature="0" /></g><g
         id="g10668"
         transform="matrix(1,0,0,-1,0,445.08447)"><path
           d="m 209.391,132.523 87.188,0 0,40.441 -87.188,0 0,-40.441 z"
           style="fill:#ffffff;fill-opacity:1;fill-rule:nonzero;stroke:#ffffff;stroke-width:1.60000002;stroke-linecap:butt;stroke-linejoin:miter;stroke-miterlimit:4;stroke-dasharray:none;stroke-opacity:1"
           id="path10670"
           inkscape:connector-curvature="0" /></g><text
         transform="matrix(1,0,0,-1,229.94426,243.93972)"
         style="font-variant:normal;font-weight:normal;font-size:32px;font-family:Arial;-inkscape-font-specification:ArialMT;writing-mode:lr-tb;fill:#000000;fill-opacity:1;fill-rule:nonzero;stroke:none"
         id="text10672"><tspan
           x="0"
           y="0"
           id="tspan10674">+</tspan><tspan
           x="32.487553"
           y="-3.3150721"
           id="tspan10676">-</tspan></text>
<g
         id="g10678"
         transform="matrix(1,0,0,-1,0,445.08447)"><path
           d="m 112.957,124.809 40.801,0"
           style="fill:#008000;fill-opacity:1;fill-rule:nonzero;stroke:#00c000;stroke-width:1.57114506;stroke-linecap:butt;stroke-linejoin:miter;stroke-miterlimit:4;stroke-dasharray:none;stroke-opacity:1"
           id="path10680"
           inkscape:connector-curvature="0" /></g><g
         id="g10682"
         transform="matrix(1,0,0,-1,0,445.08447)"><path
           d="m 254.289,123.746 0,-84.086 141.18,0 0,85.145 -235.844,0"
           style="fill:none;stroke:#00b900;stroke-width:3.68630791;stroke-linecap:butt;stroke-linejoin:miter;stroke-miterlimit:4;stroke-dasharray:none;stroke-opacity:1"
           id="path10684"
           inkscape:connector-curvature="0" /></g><g
         id="g10686"><g
           id="g10688"
           transform="matrix(1,0,0,-1,0,445.08447)"><path
             d="m 4.57,104.742 108.895,0 0,39.789 -108.895,0 0,-39.789 z"
             style="fill:url(#linearGradient10690);fill-opacity:1;fill-rule:nonzero;stroke:#000000;stroke-width:1.60000002;stroke-linecap:butt;stroke-linejoin:miter;stroke-miterlimit:4;stroke-dasharray:none;stroke-opacity:1"
             id="path10696"
             inkscape:connector-curvature="0" /></g></g><text
         transform="matrix(1,0,0,-1,16.436884,307.53454)"
         style="font-variant:normal;font-weight:normal;font-size:32px;font-family:Arial;-inkscape-font-specification:ArialMT;writing-mode:lr-tb;fill:#000000;fill-opacity:1;fill-rule:nonzero;stroke:none"
         id="text10698"><tspan
           x="0 17.792 35.584 51.584 69.375999"
           y="0"
           sodipodi:role="line"
           id="tspan10700">Laser</tspan></text>
<g
         id="g10702"
         transform="matrix(1,0,0,-1,0,445.08447)"><path
           d="m 233.957,144.141 38.742,-38.739"
           style="fill:none;stroke:#000000;stroke-width:1.36000001;stroke-linecap:butt;stroke-linejoin:miter;stroke-miterlimit:4;stroke-dasharray:none;stroke-opacity:1"
           id="path10704"
           inkscape:connector-curvature="0" /></g><g
         id="g10706"
         transform="matrix(1,0,0,-1,0,445.08447)"><path
           d="m 379.242,144.477 38.742,-38.743"
           style="fill:none;stroke:#000000;stroke-width:1.36000001;stroke-linecap:butt;stroke-linejoin:miter;stroke-miterlimit:4;stroke-dasharray:none;stroke-opacity:1"
           id="path10708"
           inkscape:connector-curvature="0" /></g><g
         id="g10710"
         transform="matrix(1,0,0,-1,0,445.08447)"><path
           d="M 235.477,55.941 274.219,17.203"
           style="fill:none;stroke:#000000;stroke-width:1.36000001;stroke-linecap:butt;stroke-linejoin:miter;stroke-miterlimit:4;stroke-dasharray:none;stroke-opacity:1"
           id="path10712"
           inkscape:connector-curvature="0" /></g><g
         id="g10714"
         transform="matrix(1,0,0,-1,0,445.08447)"><path
           d="M 416.969,57.789 378.227,19.051"
           style="fill:none;stroke:#000000;stroke-width:1.36000001;stroke-linecap:butt;stroke-linejoin:miter;stroke-miterlimit:4;stroke-dasharray:none;stroke-opacity:1"
           id="path10716"
           inkscape:connector-curvature="0" /></g><g
         id="g10718"
         transform="matrix(1,0,0,-1,0,445.08447)"><path
           d="m 254.277,124.809 0,49.586"
           style="fill:none;stroke:#00b500;stroke-width:1.06653798;stroke-linecap:butt;stroke-linejoin:miter;stroke-miterlimit:4;stroke-dasharray:none;stroke-opacity:1"
           id="path10720"
           inkscape:connector-curvature="0" /></g><text
         transform="matrix(1,0,0,-0.93711011,387.98713,430.61698)"
         style="font-variant:normal;font-weight:normal;font-size:21.56744003px;font-family:Arial;-inkscape-font-specification:ArialMT;writing-mode:lr-tb;fill:#000000;fill-opacity:1;fill-rule:nonzero;stroke:none"
         id="text10722"><tspan
           x="0 14.363915"
           y="0"
           sodipodi:role="line"
           id="tspan10724">PM</tspan></text>
<text
         transform="matrix(1,0,0,-0.9865553,412.73178,356.03854)"
         style="font-variant:normal;font-weight:normal;font-size:23.44849968px;font-family:Arial;-inkscape-font-specification:ArialMT;writing-mode:lr-tb;fill:#000000;fill-opacity:1;fill-rule:nonzero;stroke:none"
         id="text10726"><tspan
           x="0 15.616701 31.233402"
           y="0"
           sodipodi:role="line"
           id="tspan10728">SBC</tspan></text>
<g
         id="g10730"
         transform="matrix(1,0,0,-1,0,445.08447)"><path
           d="m 389.953,30.176 6.711,-6.707 15.024,15.023 -6.708,6.711 -15.027,-15.027 z"
           style="fill:#aa4400;fill-opacity:1;fill-rule:nonzero;stroke:#000000;stroke-width:0.80000001;stroke-linecap:butt;stroke-linejoin:miter;stroke-miterlimit:4;stroke-dasharray:none;stroke-opacity:1"
           id="path10732"
           inkscape:connector-curvature="0" /></g><g
         id="g10734"
         transform="matrix(1,0,0,-1,0,445.08447)"><path
           d="m 414.754,30.176 c 20.129,0 12.254,15.465 12.254,15.465"
           style="fill:none;stroke:#000000;stroke-width:0.80000001;stroke-linecap:butt;stroke-linejoin:miter;stroke-miterlimit:4;stroke-dasharray:2.4, 0.8;stroke-dashoffset:0;stroke-opacity:1"
           id="path10736"
           inkscape:connector-curvature="0" /></g><path
         d="m 418.938,412.971 -5.247,1.93 5.247,1.926 c -0.836,-1.137 -0.833,-2.696 0,-3.856 z"
         style="fill:#000000;fill-opacity:1;fill-rule:evenodd;stroke:none"
         id="path10738"
         inkscape:connector-curvature="0" /><path
         d="m 430.633,402.295 -4.102,-3.796 0.664,5.546 c 0.633,-1.265 2.024,-1.964 3.438,-1.75 z"
         style="fill:#000000;fill-opacity:1;fill-rule:evenodd;stroke:none"
         id="path10740"
         inkscape:connector-curvature="0" /><g
         id="g10742"
         transform="matrix(1,0,0,-1,0,445.08447)"><path
           d="m 234.176,105.434 39.645,0 0,37.773 -39.645,0 0,-37.773 z"
           style="fill:none;stroke:#000000;stroke-width:1.20000005;stroke-linecap:butt;stroke-linejoin:miter;stroke-miterlimit:4;stroke-dasharray:none;stroke-opacity:1"
           id="path10744"
           inkscape:connector-curvature="0" /></g><g
         id="g10746"><g
           id="g10748"
           transform="matrix(1,0,0,-1,0,445.08447)"><path
             d="m 387.02,61.855 16.883,0 0,35.031 -16.883,0 0,-35.031 z"
             style="fill:url(#linearGradient10750);fill-opacity:1;fill-rule:nonzero;stroke:#7c6c58;stroke-width:1.46903896;stroke-linecap:butt;stroke-linejoin:miter;stroke-miterlimit:4;stroke-dasharray:none;stroke-opacity:1"
             id="path10756"
             inkscape:connector-curvature="0" /></g></g><text
         transform="matrix(1,0,0,-0.78261223,141.96497,350.47219)"
         style="font-variant:normal;font-weight:normal;font-size:22.48109436px;font-family:Arial;-inkscape-font-specification:ArialMT;writing-mode:lr-tb;fill:#000000;fill-opacity:1;fill-rule:nonzero;stroke:none"
         id="text10758"><tspan
           x="0"
           y="0"
           id="tspan10760">M</tspan></text>
<text
         transform="matrix(1,0,0,-0.78261215,160.71385,346.95339)"
         style="font-variant:normal;font-weight:normal;font-size:14.61291885px;font-family:Arial;-inkscape-font-specification:ArialMT;writing-mode:lr-tb;fill:#000000;fill-opacity:1;fill-rule:nonzero;stroke:none"
         id="text10762"><tspan
           x="0 8.1247826"
           y="0"
           sodipodi:role="line"
           id="tspan10764">pr</tspan></text>
<text
         transform="matrix(0.9812584,0,0,-1,196.376,348.6235)"
         style="font-variant:normal;font-weight:normal;font-size:21.52248955px;font-family:Arial;-inkscape-font-specification:ArialMT;writing-mode:lr-tb;fill:#000000;fill-opacity:1;fill-rule:nonzero;stroke:none"
         id="text10766"><tspan
           x="0 14.333979"
           y="0"
           sodipodi:role="line"
           id="tspan10768">SF</tspan></text>
<text
         transform="matrix(0.9812584,0,0,-1,301.96938,209.85979)"
         style="font-variant:normal;font-weight:normal;font-size:21.52248955px;font-family:Arial;-inkscape-font-specification:ArialMT;writing-mode:lr-tb;fill:#000000;fill-opacity:1;fill-rule:nonzero;stroke:none"
         id="text10770"><tspan
           x="0 15.539238 35.834946"
           y="0"
           sodipodi:role="line"
           id="tspan10772">HWP</tspan></text>
<text
         transform="matrix(0.98125839,0,0,-1,168.67837,282.15003)"
         style="font-variant:normal;font-weight:normal;font-size:15.91165733px;font-family:Arial;-inkscape-font-specification:ArialMT;writing-mode:lr-tb;fill:#000000;fill-opacity:1;fill-rule:nonzero;stroke:none"
         id="text10774"><tspan
           x="0 12.363358 27.36805"
           y="0"
           sodipodi:role="line"
           id="tspan10776">QWP</tspan><tspan
           x="-59.292641 -46.929283 -31.924591"
           y="0.38396102"
           sodipodi:role="line"
           id="tspan10778">QWP</tspan><tspan
           x="-57.740429 -45.377071 -30.372379"
           y="218.19147"
           sodipodi:role="line"
           id="tspan10780">QWP</tspan><tspan
           x="-2.8953025 9.4680548 24.472748"
           y="218.69917"
           sodipodi:role="line"
           id="tspan10782">QWP</tspan></text>
<g
         id="g10784"><g
           id="g10786"
           transform="matrix(1,0,0,-1,0,445.08447)"><path
             d="m 201.059,103.027 10.34,0 0,43.949 -10.34,0 0,-43.949 z"
             style="fill:url(#linearGradient10788);fill-opacity:1;fill-rule:nonzero;stroke:#000000;stroke-width:1.60000002;stroke-linecap:butt;stroke-linejoin:miter;stroke-miterlimit:3.29999995;stroke-dasharray:1.6, 1.6;stroke-dashoffset:0;stroke-opacity:1"
             id="path10794"
             inkscape:connector-curvature="0" /></g></g><g
         id="g10796"><g
           id="g10798"
           transform="matrix(1,0,0,-1,0,445.08447)"><path
             d="m 151.938,101.934 10.34,0 0,43.949 -10.34,0 0,-43.949 z"
             style="fill:url(#linearGradient10800);fill-opacity:1;fill-rule:nonzero;stroke:#000000;stroke-width:1.60000002;stroke-linecap:butt;stroke-linejoin:miter;stroke-miterlimit:3.29999995;stroke-dasharray:none;stroke-opacity:1"
             id="path10806"
             inkscape:connector-curvature="0" /></g></g><g
         id="g10808"><path
           d="m 125.309,339.229 6.637,0 0,-41.262 -6.637,0 0,41.262 z"
           style="fill:url(#linearGradient10810);fill-opacity:1;fill-rule:nonzero;stroke:none"
           id="path10816"
           inkscape:connector-curvature="0" /></g><g
         id="g10818"><path
           d="m 183.695,339.737 6.637,0 0,-41.262 -6.637,0 0,41.262 z"
           style="fill:url(#linearGradient10820);fill-opacity:1;fill-rule:nonzero;stroke:none"
           id="path10826"
           inkscape:connector-curvature="0" /></g><g
         id="g10828"
         transform="matrix(1,0,0,-1,0,445.08447)"><path
           d="m 109.18,345.695 40.797,0"
           style="fill:#008000;fill-opacity:1;fill-rule:nonzero;stroke:#00c000;stroke-width:1.57114506;stroke-linecap:butt;stroke-linejoin:miter;stroke-miterlimit:4;stroke-dasharray:none;stroke-opacity:1"
           id="path10830"
           inkscape:connector-curvature="0" /></g><g
         id="g10832"
         transform="matrix(1,0,0,-1,0,445.08447)"><path
           d="m 250.512,344.637 0,-84.09 141.179,0 0,85.144 -235.847,0"
           style="fill:none;stroke:#00b900;stroke-width:3.68630791;stroke-linecap:butt;stroke-linejoin:miter;stroke-miterlimit:4;stroke-dasharray:none;stroke-opacity:1"
           id="path10834"
           inkscape:connector-curvature="0" /></g><g
         id="g10836"><g
           id="g10838"
           transform="matrix(1,0,0,-1,0,445.08447)"><path
             d="m 156.711,327.59 c -11.637,11.023 -15.492,26.012 0,35.512 l 13.527,0 c -12.797,-9.575 -19.379,-20.36 0,-36.192 l -13.527,0.34 0,0.34 z"
             style="fill:url(#linearGradient10840);fill-opacity:1;fill-rule:nonzero;stroke:#000000;stroke-width:0.80000001;stroke-linecap:butt;stroke-linejoin:miter;stroke-miterlimit:4;stroke-dasharray:none;stroke-opacity:1"
             id="path10846"
             inkscape:connector-curvature="0" /></g></g><g
         id="g10848"><g
           id="g10850" /><g
           id="g10872"
           mask="url(#mask10862)"><g
             id="g10874" /><g
             id="g10886"><g
               clip-path="url(#clipPath10876)"
               id="g10888"><g
                 id="g10890"><path
                   d="m 292.426,38.842 c 0,-21.011 -18.75,-38.047 -41.883,-38.047 -23.129,0 -41.883,17.036 -41.883,38.047 0,21.008 18.754,38.043 41.883,38.043 23.133,0 41.883,-17.035 41.883,-38.043 z"
                   style="fill:url(#linearGradient10880);fill-opacity:1;fill-rule:nonzero;stroke:none"
                   id="path10892"
                   inkscape:connector-curvature="0" /></g></g></g></g></g><g
         id="g10894"
         transform="matrix(1,0,0,-1,0,445.08447)"><path
           d="m 292.426,406.242 c 0,21.012 -18.75,38.047 -41.883,38.047 -23.129,0 -41.883,-17.035 -41.883,-38.047 0,-21.008 18.754,-38.043 41.883,-38.043 23.133,0 41.883,17.035 41.883,38.043 z"
           style="fill:none;stroke:#7c6c58;stroke-width:1.60000002;stroke-linecap:butt;stroke-linejoin:miter;stroke-miterlimit:4;stroke-dasharray:none;stroke-opacity:1"
           id="path10896"
           inkscape:connector-curvature="0" /></g><g
         id="g10898"
         transform="matrix(1,0,0,-1,0,445.08447)"><path
           d="m 208.727,407.289 83.906,0"
           style="fill:none;stroke:#000000;stroke-width:0.69557399;stroke-linecap:butt;stroke-linejoin:miter;stroke-miterlimit:4;stroke-dasharray:none;stroke-opacity:1"
           id="path10900"
           inkscape:connector-curvature="0" /></g><g
         id="g10902"
         transform="matrix(1,0,0,-1,0,445.08447)"><path
           d="m 250.926,407.004 0,37.559"
           style="fill:none;stroke:#000000;stroke-width:0.69296998;stroke-linecap:butt;stroke-linejoin:miter;stroke-miterlimit:4;stroke-dasharray:none;stroke-opacity:1"
           id="path10904"
           inkscape:connector-curvature="0" /></g><g
         id="g10906"
         transform="matrix(1,0,0,-1,0,445.08447)"><path
           d="m 206.832,365.234 87.188,0 0,40.445 -87.188,0 0,-40.445 z"
           style="fill:#ffffff;fill-opacity:1;fill-rule:nonzero;stroke:#ffffff;stroke-width:1.60000002;stroke-linecap:butt;stroke-linejoin:miter;stroke-miterlimit:4;stroke-dasharray:none;stroke-opacity:1"
           id="path10908"
           inkscape:connector-curvature="0" /></g><text
         transform="matrix(1,0,0,-1,227.38699,11.227537)"
         style="font-variant:normal;font-weight:normal;font-size:32px;font-family:Arial;-inkscape-font-specification:ArialMT;writing-mode:lr-tb;fill:#000000;fill-opacity:1;fill-rule:nonzero;stroke:none"
         id="text10910"><tspan
           x="0"
           y="0"
           id="tspan10912">+</tspan><tspan
           x="32.487553"
           y="-3.3150721"
           id="tspan10914">-</tspan></text>
<g
         id="g10916"
         transform="matrix(1,0,0,-1,0,445.08447)"><path
           d="m 230.176,365.031 38.742,-38.742"
           style="fill:none;stroke:#000000;stroke-width:1.36000001;stroke-linecap:butt;stroke-linejoin:miter;stroke-miterlimit:4;stroke-dasharray:none;stroke-opacity:1"
           id="path10918"
           inkscape:connector-curvature="0" /></g><g
         id="g10920"
         transform="matrix(1,0,0,-1,0,445.08447)"><path
           d="m 375.461,365.363 38.742,-38.742"
           style="fill:none;stroke:#000000;stroke-width:1.36000001;stroke-linecap:butt;stroke-linejoin:miter;stroke-miterlimit:4;stroke-dasharray:none;stroke-opacity:1"
           id="path10922"
           inkscape:connector-curvature="0" /></g><g
         id="g10924"
         transform="matrix(1,0,0,-1,0,445.08447)"><path
           d="M 231.699,276.832 270.441,238.09"
           style="fill:none;stroke:#000000;stroke-width:1.36000001;stroke-linecap:butt;stroke-linejoin:miter;stroke-miterlimit:4;stroke-dasharray:none;stroke-opacity:1"
           id="path10926"
           inkscape:connector-curvature="0" /></g><g
         id="g10928"
         transform="matrix(1,0,0,-1,0,445.08447)"><path
           d="M 413.188,278.68 374.445,239.938"
           style="fill:none;stroke:#000000;stroke-width:1.36000001;stroke-linecap:butt;stroke-linejoin:miter;stroke-miterlimit:4;stroke-dasharray:none;stroke-opacity:1"
           id="path10930"
           inkscape:connector-curvature="0" /></g><g
         id="g10932"
         transform="matrix(1,0,0,-1,0,445.08447)"><path
           d="m 251.008,345.695 0,61.008"
           style="fill:none;stroke:#00b500;stroke-width:1.18299997;stroke-linecap:butt;stroke-linejoin:miter;stroke-miterlimit:4;stroke-dasharray:none;stroke-opacity:1"
           id="path10934"
           inkscape:connector-curvature="0" /></g><g
         id="g10936"><g
           id="g10938"
           transform="matrix(1,0,0,-1,0,445.08447)"><path
             d="m 197.277,322.391 10.34,0 0,43.949 -10.34,0 0,-43.949 z"
             style="fill:url(#linearGradient10940);fill-opacity:1;fill-rule:nonzero;stroke:#000000;stroke-width:1.60000002;stroke-linecap:butt;stroke-linejoin:miter;stroke-miterlimit:3.29999995;stroke-dasharray:1.6, 1.6;stroke-dashoffset:0;stroke-opacity:1"
             id="path10946"
             inkscape:connector-curvature="0" /></g></g><g
         id="g10948"><g
           id="g10950"
           transform="matrix(1,0,0,-1,0,445.08447)"><path
             d="m 0.789,325.629 108.895,0 0,39.789 -108.895,0 0,-39.789 z"
             style="fill:url(#linearGradient10952);fill-opacity:1;fill-rule:nonzero;stroke:#000000;stroke-width:1.60000002;stroke-linecap:butt;stroke-linejoin:miter;stroke-miterlimit:4;stroke-dasharray:none;stroke-opacity:1"
             id="path10958"
             inkscape:connector-curvature="0" /></g></g><text
         transform="matrix(1,0,0,-1,12.656561,86.646092)"
         style="font-variant:normal;font-weight:normal;font-size:32px;font-family:Arial;-inkscape-font-specification:ArialMT;writing-mode:lr-tb;fill:#000000;fill-opacity:1;fill-rule:nonzero;stroke:none"
         id="text10960"><tspan
           x="0 17.792 35.584 51.584 69.375999"
           y="0"
           sodipodi:role="line"
           id="tspan10962">Laser</tspan></text>
<text
         transform="matrix(1,0,0,-0.9865553,408.95145,135.15005)"
         style="font-variant:normal;font-weight:normal;font-size:23.44850159px;font-family:Arial;-inkscape-font-specification:ArialMT;writing-mode:lr-tb;fill:#000000;fill-opacity:1;fill-rule:nonzero;stroke:none"
         id="text10964"><tspan
           x="0 15.616702 31.233404"
           y="0"
           sodipodi:role="line"
           id="tspan10966">SBC</tspan></text>
<g
         id="g10968"
         transform="matrix(1,0,0,-1,0,445.08447)"><path
           d="m 230.398,326.32 39.641,0 0,37.773 -39.641,0 0,-37.773 z"
           style="fill:none;stroke:#000000;stroke-width:1.20000005;stroke-linecap:butt;stroke-linejoin:miter;stroke-miterlimit:4;stroke-dasharray:none;stroke-opacity:1"
           id="path10970"
           inkscape:connector-curvature="0" /></g><g
         id="g10972"
         transform="matrix(1,0,0,-1,0,445.08447)"><path
           d="m 275.02,353.664 c 9.468,17.766 -7.883,18.086 -7.883,18.086"
           style="fill:none;stroke:#000000;stroke-width:0.80000001;stroke-linecap:butt;stroke-linejoin:miter;stroke-miterlimit:4;stroke-dasharray:2.4, 0.8;stroke-dashoffset:0;stroke-opacity:1"
           id="path10974"
           inkscape:connector-curvature="0" /></g><path
         d="m 275.277,86.819 -0.761,5.535 4.168,-3.723 c -1.399,0.203 -2.774,-0.531 -3.407,-1.812 z"
         style="fill:#000000;fill-opacity:1;fill-rule:evenodd;stroke:none"
         id="path10976"
         inkscape:connector-curvature="0" /><path
         d="m 271.355,71.475 -5.277,1.832 5.207,2.027 c -0.816,-1.156 -0.781,-2.71 0.07,-3.859 z"
         style="fill:#000000;fill-opacity:1;fill-rule:evenodd;stroke:none"
         id="path10978"
         inkscape:connector-curvature="0" /><g
         id="g10980"><g
           id="g10982"
           transform="matrix(1,0,0,-1,0,445.08447)"><path
             d="m 383.238,282.742 16.883,0 0,35.035 -16.883,0 0,-35.035 z"
             style="fill:url(#linearGradient10984);fill-opacity:1;fill-rule:nonzero;stroke:#7c6c58;stroke-width:1.46903896;stroke-linecap:butt;stroke-linejoin:miter;stroke-miterlimit:4;stroke-dasharray:none;stroke-opacity:1"
             id="path10990"
             inkscape:connector-curvature="0" /></g></g><text
         transform="matrix(1,0,0,-0.78261223,137.3696,129.076)"
         style="font-variant:normal;font-weight:normal;font-size:22.48109436px;font-family:Arial;-inkscape-font-specification:ArialMT;writing-mode:lr-tb;fill:#000000;fill-opacity:1;fill-rule:nonzero;stroke:none"
         id="text10992"><tspan
           x="0"
           y="0"
           id="tspan10994">M</tspan></text>
<text
         transform="matrix(1,0,0,-0.78261215,156.11848,125.5572)"
         style="font-variant:normal;font-weight:normal;font-size:14.61291885px;font-family:Arial;-inkscape-font-specification:ArialMT;writing-mode:lr-tb;fill:#000000;fill-opacity:1;fill-rule:nonzero;stroke:none"
         id="text10996"><tspan
           x="0 8.1247826"
           y="0"
           sodipodi:role="line"
           id="tspan10998">pr</tspan></text>
<text
         transform="matrix(0.9812584,0,0,-1,192.59567,127.73501)"
         style="font-variant:normal;font-weight:normal;font-size:21.52248955px;font-family:Arial;-inkscape-font-specification:ArialMT;writing-mode:lr-tb;fill:#000000;fill-opacity:1;fill-rule:nonzero;stroke:none"
         id="text11000"><tspan
           x="0 14.333979"
           y="0"
           sodipodi:role="line"
           id="tspan11002">SF</tspan></text>
<text
         transform="matrix(0.9812584,0,0,-1,256.03669,55.004715)"
         style="font-variant:normal;font-weight:normal;font-size:21.52248955px;font-family:Arial;-inkscape-font-specification:ArialMT;writing-mode:lr-tb;fill:#000000;fill-opacity:1;fill-rule:nonzero;stroke:none"
         id="text11004"><tspan
           x="0 14.333979"
           y="0"
           sodipodi:role="line"
           id="tspan11006">BS</tspan></text>
<g
         id="g11008"><g
           id="g11010"
           transform="matrix(1,0,0,-1,0,445.08447)"><path
             d="m 293.016,363.59 19.23,-33.309 29.91,0 19.332,33.492 -68.472,-0.183 z"
             style="fill:url(#linearGradient11012);fill-opacity:1;fill-rule:nonzero;stroke:#000000;stroke-width:1.60000002;stroke-linecap:butt;stroke-linejoin:miter;stroke-miterlimit:4;stroke-dasharray:none;stroke-opacity:1"
             id="path11018"
             inkscape:connector-curvature="0" /></g></g><text
         transform="matrix(0.9812584,0,0,-1,313.02209,57.172586)"
         style="font-variant:normal;font-weight:normal;font-size:21.52248955px;font-family:Arial;-inkscape-font-specification:ArialMT;writing-mode:lr-tb;fill:#000000;fill-opacity:1;fill-rule:nonzero;stroke:none"
         id="text11020"><tspan
           x="0 15.539238"
           y="0"
           sodipodi:role="line"
           id="tspan11022">DP</tspan></text>
<g
         id="g11024"><path
           d="m 124.801,121.42 6.637,0 0,-41.262 -6.637,0 0,41.262 z"
           style="fill:url(#linearGradient11026);fill-opacity:1;fill-rule:nonzero;stroke:none"
           id="path11032"
           inkscape:connector-curvature="0" /></g><g
         id="g11034"><path
           d="m 179.633,120.913 6.637,0 0,-41.262 -6.637,0 0,41.262 z"
           style="fill:url(#linearGradient11036);fill-opacity:1;fill-rule:nonzero;stroke:none"
           id="path11042"
           inkscape:connector-curvature="0" /></g><g
         id="g11044"><path
           d="m 322.297,205.194 6.641,0 0,-41.262 -6.641,0 0,41.262 z"
           style="fill:url(#linearGradient11046);fill-opacity:1;fill-rule:nonzero;stroke:none"
           id="path11052"
           inkscape:connector-curvature="0" /></g></g></g></svg>