<?xml version="1.0" encoding="UTF-8" standalone="no"?>
<!-- Created with Inkscape (http://www.inkscape.org/) -->

<svg
   xmlns:dc="http://purl.org/dc/elements/1.1/"
   xmlns:cc="http://creativecommons.org/ns#"
   xmlns:rdf="http://www.w3.org/1999/02/22-rdf-syntax-ns#"
   xmlns:svg="http://www.w3.org/2000/svg"
   xmlns="http://www.w3.org/2000/svg"
   xmlns:sodipodi="http://sodipodi.sourceforge.net/DTD/sodipodi-0.dtd"
   xmlns:inkscape="http://www.inkscape.org/namespaces/inkscape"
   id="svg3538"
   version="1.1"
   inkscape:version="0.91 r13725"
   xml:space="preserve"
   width="576.34082"
   height="401.91138"
   viewBox="0 0 576.34082 401.91138"
   sodipodi:docname="displaced_sagnac.svg"><metadata
     id="metadata3544"><rdf:RDF><cc:Work
         rdf:about=""><dc:format>image/svg+xml</dc:format><dc:type
           rdf:resource="http://purl.org/dc/dcmitype/StillImage" /><dc:title></dc:title></cc:Work></rdf:RDF></metadata><defs
     id="defs3542" /><sodipodi:namedview
     pagecolor="#ffffff"
     bordercolor="#666666"
     borderopacity="1"
     objecttolerance="10"
     gridtolerance="10"
     guidetolerance="10"
     inkscape:pageopacity="0"
     inkscape:pageshadow="2"
     inkscape:window-width="640"
     inkscape:window-height="480"
     id="namedview3540"
     showgrid="false"
     inkscape:zoom="0.58719413"
     inkscape:cx="288.17041"
     inkscape:cy="200.95569"
     inkscape:window-x="2512"
     inkscape:window-y="1057"
     inkscape:window-maximized="0"
     inkscape:current-layer="g3546" /><g
     id="g3546"
     inkscape:groupmode="layer"
     inkscape:label="displaced_sagnac"
     transform="matrix(1.25,0,0,-1.25,0,401.91139)"><g
       id="g3548"><g
         id="g3550"
         transform="matrix(1,0,0,-1,0,321.52911)"><path
           d="m 115.426,26.262 115.41,0 0,127.648"
           style="fill:none;stroke:#387f05;stroke-width:1.60000002;stroke-linecap:butt;stroke-linejoin:miter;stroke-miterlimit:4;stroke-dasharray:none;stroke-opacity:1"
           id="path3552"
           inkscape:connector-curvature="0" /></g><g
         id="g3554"
         transform="matrix(1,0,0,-1,0,321.52911)"><path
           d="m 230.398,155.66 0,92.676 220.766,0 0,-60.328 -187.027,0"
           style="fill:none;stroke:#ff0000;stroke-width:1.60000002;stroke-linecap:butt;stroke-linejoin:miter;stroke-miterlimit:4;stroke-dasharray:4.8, 1.6;stroke-dashoffset:0;stroke-opacity:1"
           id="path3556"
           inkscape:connector-curvature="0" /></g><g
         id="g3558"
         transform="matrix(1,0,0,-1,0,321.52911)"><path
           d="m 229.961,153.035 185.355,0 0,131.149 -149.945,0 0,-96.176"
           style="fill:none;stroke:#0000ff;stroke-width:1.60000002;stroke-linecap:butt;stroke-linejoin:miter;stroke-miterlimit:4;stroke-dasharray:1.6, 3.2;stroke-dashoffset:0;stroke-opacity:1"
           id="path3560"
           inkscape:connector-curvature="0" /></g><g
         id="g3562"
         transform="matrix(1,0,0,-1,0,321.52911)"><path
           d="m 264.063,188.008 -228.637,0"
           style="fill:none;stroke:#387f05;stroke-width:1.60000002;stroke-linecap:butt;stroke-linejoin:miter;stroke-miterlimit:4;stroke-dasharray:none;stroke-opacity:1"
           id="path3564"
           inkscape:connector-curvature="0" /></g><g
         id="g3566"
         transform="matrix(1,0,0,-1,0,321.52911)"><path
           d="m 0.398,3.848 118.773,0 0,45.414 -118.773,0 0,-45.414 z"
           style="fill:#387f05;fill-opacity:1;fill-rule:evenodd;stroke:#000000;stroke-width:0.80000001;stroke-linecap:butt;stroke-linejoin:miter;stroke-miterlimit:4;stroke-dasharray:none;stroke-opacity:1"
           id="path3568"
           inkscape:connector-curvature="0" /></g><g
         id="g3570"
         transform="matrix(1,1,1,-1,0,321.52911)"><path
           d="m 102.188,106.688 3.087,10e-4 0,46.317 -3.087,-0.002 0,-46.316 z"
           style="fill:none;stroke:#000000;stroke-width:1.41421402;stroke-linecap:butt;stroke-linejoin:miter;stroke-miterlimit:4;stroke-dasharray:none;stroke-opacity:1"
           id="path3572"
           inkscape:connector-curvature="0" /></g><g
         id="g3574"
         transform="matrix(-1,1,1,1,0,321.52911)"><path
           d="m -353.23,57.039 3.085,0 0.002,46.315 -3.087,0.001 0,-46.316 z"
           style="fill:none;stroke:#000000;stroke-width:1.41421402;stroke-linecap:butt;stroke-linejoin:miter;stroke-miterlimit:4;stroke-dasharray:none;stroke-opacity:1"
           id="path3576"
           inkscape:connector-curvature="0" /></g><g
         id="g3578"
         transform="matrix(1,0,0,-1,0,321.52911)"><path
           d="m 215.688,139.223 62.008,0 0,62.008 -62.008,0 0,-62.008 z"
           style="fill:none;stroke:#000000;stroke-width:2;stroke-linecap:butt;stroke-linejoin:miter;stroke-miterlimit:4;stroke-dasharray:none;stroke-opacity:1"
           id="path3580"
           inkscape:connector-curvature="0" /></g><g
         id="g3582"
         transform="matrix(1,0,0,-1,0,321.52911)"><path
           d="m 215.25,138.789 63.098,63.098"
           style="fill:none;stroke:#000000;stroke-width:0.80000001;stroke-linecap:butt;stroke-linejoin:miter;stroke-miterlimit:4;stroke-dasharray:none;stroke-opacity:1"
           id="path3584"
           inkscape:connector-curvature="0" /></g><g
         id="g3586"
         transform="matrix(1,1,1,-1,0,321.52911)"><path
           d="m 131.482,278.771 3.088,0.002 0,46.317 -3.088,-0.002 0,-46.317 z"
           style="fill:none;stroke:#000000;stroke-width:1.41421402;stroke-linecap:butt;stroke-linejoin:miter;stroke-miterlimit:4;stroke-dasharray:none;stroke-opacity:1"
           id="path3588"
           inkscape:connector-curvature="0" /></g><g
         id="g3590"
         transform="matrix(1,1,1,-1,0,321.52911)"><path
           d="m -12.189,229.389 3.087,-0.002 0,46.316 -3.087,-0.002 0,-46.312 z"
           style="fill:none;stroke:#000000;stroke-width:1.41421402;stroke-linecap:butt;stroke-linejoin:miter;stroke-miterlimit:4;stroke-dasharray:none;stroke-opacity:1"
           id="path3592"
           inkscape:connector-curvature="0" /></g><g
         id="g3594"
         transform="matrix(1,0,0,-1,0,321.52911)"><path
           d="m 298.926,142.871 72.348,0 0,22.078 -72.348,0 0,-22.078 z"
           style="fill:#f48a0d;fill-opacity:1;fill-rule:nonzero;stroke:#000000;stroke-width:1.60000002;stroke-linecap:butt;stroke-linejoin:miter;stroke-miterlimit:2;stroke-dasharray:none;stroke-opacity:1"
           id="path3596"
           inkscape:connector-curvature="0" /></g><g
         id="g3598"
         transform="matrix(1,0,0,-1,0,321.52911)"><path
           d="m 40.879,229.961 c -3.242,-1.125 -8.09,-6.391 -10.586,-11.488 -9.203,-18.801 -8.539,-47.762 1.48,-64.578 2.903,-4.875 8.415,-9.282 11.622,-9.297 l 0.98,-0.004 0,43.062 c 0,40.731 -0.039,43.059 -0.762,43.024 -0.422,-0.02 -1.652,-0.34 -2.734,-0.719 z"
           style="fill:#f48a0d;fill-opacity:1;fill-rule:nonzero;stroke:#000000;stroke-width:0.87431699;stroke-linecap:butt;stroke-linejoin:miter;stroke-miterlimit:2;stroke-dasharray:none;stroke-opacity:1"
           id="path3600"
           inkscape:connector-curvature="0" /></g><g
         id="g3602"
         transform="matrix(1,0,0,-1,0,321.52911)"><path
           d="m 45.688,165.578 c 0,-23.832 -0.383,-21.863 3.859,-19.89 5.687,2.648 10.992,10.957 13.816,21.64 1.2,4.539 2.434,13.094 2.434,16.852 l 0,2.383 -20.109,0 0,-20.985 z"
           style="fill:#f48a0d;fill-opacity:1;fill-rule:nonzero;stroke:#000000;stroke-width:0.87431699;stroke-linecap:butt;stroke-linejoin:miter;stroke-miterlimit:2;stroke-dasharray:none;stroke-opacity:1"
           id="path3604"
           inkscape:connector-curvature="0" /></g><g
         id="g3606"
         transform="matrix(1,0,0,-1,0,321.52911)"><path
           d="m 45.688,209.777 0,-21.031 20.109,0 -0.008,2.516 c -0.012,3.09 -1.016,10.707 -1.918,14.535 -3.156,13.406 -9.719,22.961 -16.98,24.723 l -1.203,0.289 0,-21.032 z"
           style="fill:#f48a0d;fill-opacity:1;fill-rule:nonzero;stroke:#000000;stroke-width:0.87431699;stroke-linecap:butt;stroke-linejoin:miter;stroke-miterlimit:2;stroke-dasharray:none;stroke-opacity:1"
           id="path3608"
           inkscape:connector-curvature="0" /></g><text
         transform="matrix(1,0,0,-1,36.455023,256.96389)"
         style="font-variant:normal;font-weight:normal;font-size:14.05926514px;font-family:Verdana;-inkscape-font-specification:Verdana;writing-mode:lr-tb;fill:#000000;fill-opacity:1;fill-rule:nonzero;stroke:none"
         id="text3610"><tspan
           x="0 9.602478 18.122393 27.007849 32.997093 40.307911"
           y="0"
           sodipodi:role="line"
           id="tspan3612">Source</tspan><tspan
           x="196.11058 205.74118"
           y="34.552387"
           sodipodi:role="line"
           id="tspan3614">BS</tspan></text>
<g
         id="g3616"
         transform="matrix(1,0,0,-1,0,321.52911)"><path
           d="m 393.684,282.59 c 0,0 -23.168,40.656 20.984,32.785"
           style="fill:none;stroke:#000000;stroke-width:0.80000001;stroke-linecap:butt;stroke-linejoin:miter;stroke-miterlimit:4;stroke-dasharray:none;stroke-opacity:1"
           id="path3618"
           inkscape:connector-curvature="0" /></g><g
         id="g3620"
         transform="matrix(-0.569893,-1,-1,0.569893,0,321.52911)"><path
           d="m 50.906,-418.734 2.782,-2.781 -9.732,2.781 9.729,2.78 -2.779,-2.78 z"
           style="fill:#000000;fill-opacity:1;fill-rule:evenodd;stroke:#000000;stroke-width:0.69505399;stroke-linecap:butt;stroke-linejoin:miter;stroke-miterlimit:4;stroke-dasharray:none;stroke-opacity:1"
           id="path3622"
           inkscape:connector-curvature="0" /></g><g
         id="g3624"
         transform="matrix(-1,-0.178218,-0.178218,1,0,321.52911)"><path
           d="m -339.552,-377.295 3.151,-3.15 -11.027,3.152 11.025,3.149 -3.149,-3.151 z"
           style="fill:#000000;fill-opacity:1;fill-rule:evenodd;stroke:#000000;stroke-width:0.78759003;stroke-linecap:butt;stroke-linejoin:miter;stroke-miterlimit:4;stroke-dasharray:none;stroke-opacity:1"
           id="path3626"
           inkscape:connector-curvature="0" /></g><text
         transform="matrix(1,0,0,-1,377.87073,9.938747)"
         style="font-variant:normal;font-weight:normal;font-size:14.05926514px;font-family:Verdana;-inkscape-font-specification:Verdana;writing-mode:lr-tb;fill:#000000;fill-opacity:1;fill-rule:nonzero;stroke:none"
         id="text3628"><tspan
           x="0"
           y="0"
           id="tspan3630">k</tspan></text>
<g
         id="g3632"
         transform="matrix(1,0,0,-1,0,321.52911)"><path
           d="m 66.902,187.574 c 0,24.383 -9.882,44.153 -22.078,44.153 -12.191,0 -22.074,-19.77 -22.074,-44.153 0,-24.386 9.883,-44.156 22.074,-44.156 12.196,0 22.078,19.77 22.078,44.156 z"
           style="fill:none;stroke:#000000;stroke-width:1.60000002;stroke-linecap:butt;stroke-linejoin:miter;stroke-miterlimit:2;stroke-dasharray:none;stroke-opacity:1"
           id="path3634"
           inkscape:connector-curvature="0" /></g><g
         id="g3636"
         transform="matrix(1,0,0,-1,0,321.52911)"><path
           d="m 45.043,143.855 0,87.434"
           style="fill:none;stroke:#000000;stroke-width:0.80000001;stroke-linecap:butt;stroke-linejoin:miter;stroke-miterlimit:4;stroke-dasharray:none;stroke-opacity:1"
           id="path3638"
           inkscape:connector-curvature="0" /></g><text
         transform="matrix(1,0,0,-1,29.892548,181.74204)"
         style="font-variant:normal;font-weight:normal;font-size:14.05926514px;font-family:Verdana;-inkscape-font-specification:Verdana;writing-mode:lr-tb;fill:#000000;fill-opacity:1;fill-rule:nonzero;stroke:none"
         id="text3640"><tspan
           x="0 8.4777365 18.080215"
           y="0"
           sodipodi:role="line"
           id="tspan3642">PSD</tspan><tspan
           x="279.34427 289.11545 297.87439 302.80917 310.12 318.48526 322.33749"
           y="-3.4972422"
           sodipodi:role="line"
           id="tspan3644">Rb cell</tspan></text>
</g></g></svg>