<?xml version="1.0" encoding="UTF-8" standalone="no"?>
<!-- Created with Inkscape (http://www.inkscape.org/) -->

<svg
   xmlns:dc="http://purl.org/dc/elements/1.1/"
   xmlns:cc="http://creativecommons.org/ns#"
   xmlns:rdf="http://www.w3.org/1999/02/22-rdf-syntax-ns#"
   xmlns:svg="http://www.w3.org/2000/svg"
   xmlns="http://www.w3.org/2000/svg"
   xmlns:sodipodi="http://sodipodi.sourceforge.net/DTD/sodipodi-0.dtd"
   xmlns:inkscape="http://www.inkscape.org/namespaces/inkscape"
   id="svg72065"
   version="1.1"
   inkscape:version="0.91 r13725"
   xml:space="preserve"
   width="407.46158"
   height="155.77193"
   viewBox="0 0 407.46158 155.77193"
   sodipodi:docname="heisenberg_setup.svg"><metadata
     id="metadata72071"><rdf:RDF><cc:Work
         rdf:about=""><dc:format>image/svg+xml</dc:format><dc:type
           rdf:resource="http://purl.org/dc/dcmitype/StillImage" /><dc:title></dc:title></cc:Work></rdf:RDF></metadata><defs
     id="defs72069" /><sodipodi:namedview
     pagecolor="#ffffff"
     bordercolor="#666666"
     borderopacity="1"
     objecttolerance="10"
     gridtolerance="10"
     guidetolerance="10"
     inkscape:pageopacity="0"
     inkscape:pageshadow="2"
     inkscape:window-width="640"
     inkscape:window-height="480"
     id="namedview72067"
     showgrid="false"
     inkscape:zoom="0.86633935"
     inkscape:cx="203.73079"
     inkscape:cy="77.885963"
     inkscape:window-x="2168"
     inkscape:window-y="470"
     inkscape:window-maximized="0"
     inkscape:current-layer="g72073" /><g
     id="g72073"
     inkscape:groupmode="layer"
     inkscape:label="heisenberg_setup"
     transform="matrix(1.25,0,0,-1.25,0,155.77192)"><g
       id="g72075"><g
         id="g72077"
         transform="matrix(1,0,0,-1,0,124.61754)"><path
           d="m 37.277,62.008 35.016,-35.016 151.949,0 36.887,36.891"
           style="fill:none;stroke:#ff0000;stroke-width:0.895899;stroke-linecap:butt;stroke-linejoin:miter;stroke-miterlimit:4;stroke-dasharray:none;stroke-opacity:1"
           id="path72079"
           inkscape:connector-curvature="0" /></g><g
         id="g72081"
         transform="matrix(1,0,0,-1,0,124.61754)"><path
           d="m 95.906,26.504 0,22.801"
           style="fill:none;stroke:#ff0000;stroke-width:0.74658298;stroke-linecap:butt;stroke-linejoin:miter;stroke-miterlimit:4;stroke-dasharray:none;stroke-opacity:1"
           id="path72083"
           inkscape:connector-curvature="0" /></g><g
         id="g72085"
         transform="matrix(1,0,0,-1,0,124.61754)"><path
           d="m 181.898,27.48 0,22.801"
           style="fill:none;stroke:#ff0000;stroke-width:0.74658298;stroke-linecap:butt;stroke-linejoin:miter;stroke-miterlimit:4;stroke-dasharray:none;stroke-opacity:1"
           id="path72087"
           inkscape:connector-curvature="0" /></g><g
         id="g72089"
         transform="matrix(1,0,0,-1,0,124.61754)"><path
           d="m 261.375,63.965 39.086,-39.09"
           style="fill:none;stroke:#ff0000;stroke-width:0.895899;stroke-linecap:butt;stroke-linejoin:miter;stroke-miterlimit:4;stroke-dasharray:none;stroke-opacity:1"
           id="path72091"
           inkscape:connector-curvature="0" /></g><g
         id="g72093"
         transform="matrix(1,0,0,-1,0,124.61754)"><path
           d="m 259.418,62.984 39.086,39.086"
           style="fill:none;stroke:#ff0000;stroke-width:0.895899;stroke-linecap:butt;stroke-linejoin:miter;stroke-miterlimit:4;stroke-dasharray:none;stroke-opacity:1"
           id="path72095"
           inkscape:connector-curvature="0" /></g><g
         id="g72097"
         transform="matrix(1,0,0,-1,0,124.61754)"><path
           d="m 284.172,8.188 c 1.281,-0.321 37.379,37.378 37.379,37.378 0,0 21.933,-55.296 -37.379,-37.378 z"
           style="fill:#a67100;fill-opacity:1;fill-rule:nonzero;stroke:#000000;stroke-width:0.88249099;stroke-linecap:butt;stroke-linejoin:miter;stroke-miterlimit:4;stroke-dasharray:none;stroke-opacity:1"
           id="path72099"
           inkscape:connector-curvature="0" /></g><g
         id="g72101"
         transform="matrix(1,0,0,-1,0,124.61754)"><path
           d="m 279.789,120.602 c 1.281,0.324 37.379,-37.375 37.379,-37.375 0,0 21.934,55.296 -37.379,37.375 z"
           style="fill:#a67100;fill-opacity:1;fill-rule:nonzero;stroke:#000000;stroke-width:0.895899;stroke-linecap:butt;stroke-linejoin:miter;stroke-miterlimit:4;stroke-dasharray:none;stroke-opacity:1"
           id="path72103"
           inkscape:connector-curvature="0" /></g><g
         id="g72105"
         transform="matrix(1,0,0,-1,0,124.61754)"><path
           d="m 18.422,61.395 37.082,0 0,1.379 -37.082,0 0,-1.379 z"
           style="fill:#000000;fill-opacity:1;fill-rule:nonzero;stroke:#000000;stroke-width:0.74658298;stroke-linecap:butt;stroke-linejoin:miter;stroke-miterlimit:3.29999995;stroke-dasharray:none;stroke-opacity:1"
           id="path72107"
           inkscape:connector-curvature="0" /></g><g
         id="g72109"
         transform="matrix(1,0,0,-1,0,124.61754)"><path
           d="m 84.508,13.801 25.406,0 0,23.777 -25.406,0 0,-23.777 z"
           style="fill:none;stroke:#000000;stroke-width:0.74658298;stroke-linecap:butt;stroke-linejoin:miter;stroke-miterlimit:3.29999995;stroke-dasharray:none;stroke-opacity:1"
           id="path72111"
           inkscape:connector-curvature="0" /></g><g
         id="g72113"
         transform="matrix(1,0,0,-1,0,124.61754)"><path
           d="M 109.262,14.129 85.16,36.93"
           style="fill:none;stroke:#000000;stroke-width:0.37329099;stroke-linecap:butt;stroke-linejoin:miter;stroke-miterlimit:4;stroke-dasharray:none;stroke-opacity:1"
           id="path72115"
           inkscape:connector-curvature="0" /></g><g
         id="g72117"
         transform="matrix(1,0,0,-1,0,124.61754)"><path
           d="m 123.918,13.477 4.887,0 0,24.43 -4.887,0 0,-24.43 z"
           style="fill:#a67100;fill-opacity:1;fill-rule:nonzero;stroke:#000000;stroke-width:0.74658298;stroke-linecap:butt;stroke-linejoin:miter;stroke-miterlimit:3.29999995;stroke-dasharray:none;stroke-opacity:1"
           id="path72119"
           inkscape:connector-curvature="0" /></g><g
         id="g72121"
         transform="translate(0,124.61754)"><path
           d="m 168.867,-13.965 25.406,0 0,-23.777 -25.406,0 0,23.777 z"
           style="fill:none;stroke:#000000;stroke-width:0.74658298;stroke-linecap:butt;stroke-linejoin:miter;stroke-miterlimit:3.29999995;stroke-dasharray:none;stroke-opacity:1"
           id="path72123"
           inkscape:connector-curvature="0" /></g><g
         id="g72125"
         transform="matrix(1,0,0,-1,0,124.61754)"><path
           d="M 193.625,37.418 169.52,14.617"
           style="fill:none;stroke:#000000;stroke-width:0.37329099;stroke-linecap:butt;stroke-linejoin:miter;stroke-miterlimit:4;stroke-dasharray:none;stroke-opacity:1"
           id="path72127"
           inkscape:connector-curvature="0" /></g><g
         id="g72129"
         transform="matrix(1,0,0,-1,0,124.61754)"><path
           d="m 82.902,49.59 27.402,0 0,0.699 -27.402,0 0,-0.699 z"
           style="fill:#000000;fill-opacity:1;fill-rule:nonzero;stroke:#000000;stroke-width:0.45629701;stroke-linecap:butt;stroke-linejoin:miter;stroke-miterlimit:3.29999995;stroke-dasharray:none;stroke-opacity:1"
           id="path72131"
           inkscape:connector-curvature="0" /></g><g
         id="g72133"
         transform="matrix(1,0,0,-1,0,124.61754)"><path
           d="m 168.195,49.609 27.402,0 0,0.695 -27.402,0 0,-0.695 z"
           style="fill:#000000;fill-opacity:1;fill-rule:nonzero;stroke:#000000;stroke-width:0.45629701;stroke-linecap:butt;stroke-linejoin:miter;stroke-miterlimit:3.29999995;stroke-dasharray:none;stroke-opacity:1"
           id="path72135"
           inkscape:connector-curvature="0" /></g><g
         id="g72137"
         transform="matrix(1,0,0,-1,0,124.61754)"><path
           d="m 141.184,20.316 14.004,0 0,13.68 -14.004,0 0,-13.68 z"
           style="fill:#a67100;fill-opacity:1;fill-rule:nonzero;stroke:#000000;stroke-width:0.74658298;stroke-linecap:butt;stroke-linejoin:miter;stroke-miterlimit:3.29999995;stroke-dasharray:none;stroke-opacity:1"
           id="path72139"
           inkscape:connector-curvature="0" /></g><text
         transform="matrix(1,0,0,-1,144.81455,93.195602)"
         style="font-variant:normal;font-weight:normal;font-size:12.28978062px;font-family:Arial;-inkscape-font-specification:ArialMT;writing-mode:lr-tb;fill:#000000;fill-opacity:1;fill-rule:nonzero;stroke:none"
         id="text72141"><tspan
           x="0"
           y="0"
           id="tspan72143">θ</tspan></text>
<text
         transform="matrix(1,0,0,-1,86.576465,116.95036)"
         style="font-variant:normal;font-weight:normal;font-size:10.53143597px;font-family:Arial;-inkscape-font-specification:ArialMT;writing-mode:lr-tb;fill:#000000;fill-opacity:1;fill-rule:nonzero;stroke:none"
         id="text72145"><tspan
           x="0 7.0139365 14.027873"
           y="0"
           sodipodi:role="line"
           id="tspan72147">PBS</tspan><tspan
           x="84.317383 91.331322 98.345253"
           y="0.13269083"
           sodipodi:role="line"
           id="tspan72149">PBS</tspan><tspan
           x="32.202255 39.216194"
           y="2.0869882"
           sodipodi:role="line"
           id="tspan72151">PC</tspan></text>
<g
         id="g72153"
         transform="matrix(1,0,0,-1,0,124.61754)"><path
           d="m 0.309,99.629 37.296,-37.293 35.829,35.828 154.39,0 33.711,-33.711"
           style="fill:none;stroke:#ff0000;stroke-width:0.895899;stroke-linecap:butt;stroke-linejoin:miter;stroke-miterlimit:4;stroke-dasharray:none;stroke-opacity:1"
           id="path72155"
           inkscape:connector-curvature="0" /></g><g
         id="g72157"
         transform="matrix(1,0,0,-1,0,124.61754)"><path
           d="m 158.121,88.066 c 0,5.579 -4.961,10.098 -11.074,10.098 -6.117,0 -11.074,-4.519 -11.074,-10.098 0,-5.578 4.957,-10.097 11.074,-10.097 6.113,0 11.074,4.519 11.074,10.097 z"
           style="fill:none;stroke:#000000;stroke-width:0.895899;stroke-linecap:butt;stroke-linejoin:miter;stroke-miterlimit:4;stroke-dasharray:none;stroke-opacity:1"
           id="path72159"
           inkscape:connector-curvature="0" /></g><g
         id="g72161"
         transform="matrix(1,0,0,-1,0,124.61754)"><path
           d="m 159.75,88.066 c 0,5.579 -4.961,10.098 -11.074,10.098 -6.117,0 -11.074,-4.519 -11.074,-10.098 0,-5.578 4.957,-10.097 11.074,-10.097 6.113,0 11.074,4.519 11.074,10.097 z"
           style="fill:none;stroke:#000000;stroke-width:0.895899;stroke-linecap:butt;stroke-linejoin:miter;stroke-miterlimit:4;stroke-dasharray:none;stroke-opacity:1"
           id="path72163"
           inkscape:connector-curvature="0" /></g><g
         id="g72165"
         transform="matrix(1,0,0,-1,0,124.61754)"><path
           d="m 161.379,87.742 c 0,5.574 -4.961,10.094 -11.074,10.094 -6.117,0 -11.078,-4.52 -11.078,-10.094 0,-5.578 4.961,-10.097 11.078,-10.097 6.113,0 11.074,4.519 11.074,10.097 z"
           style="fill:none;stroke:#000000;stroke-width:0.895899;stroke-linecap:butt;stroke-linejoin:miter;stroke-miterlimit:4;stroke-dasharray:none;stroke-opacity:1"
           id="path72167"
           inkscape:connector-curvature="0" /></g><g
         id="g72169"
         transform="matrix(1,0,0,-1,0,124.61754)"><path
           d="m 242.508,63.273 37.082,0 0,1.379 -37.082,0 0,-1.379 z"
           style="fill:#000000;fill-opacity:1;fill-rule:nonzero;stroke:#000000;stroke-width:0.74658298;stroke-linecap:butt;stroke-linejoin:miter;stroke-miterlimit:3.29999995;stroke-dasharray:none;stroke-opacity:1"
           id="path72171"
           inkscape:connector-curvature="0" /></g><g
         id="g72173"
         transform="matrix(1,0,0,-1,0,124.61754)"><path
           d="m 18.738,61.316 37.082,0 0,1.383 -37.082,0 0,-1.383 z"
           style="fill:#000000;fill-opacity:1;fill-rule:nonzero;stroke:#000000;stroke-width:0.74658298;stroke-linecap:butt;stroke-linejoin:miter;stroke-miterlimit:3.29999995;stroke-dasharray:none;stroke-opacity:1"
           id="path72175"
           inkscape:connector-curvature="0" /></g></g></g></svg>