<?xml version="1.0" encoding="UTF-8" standalone="no"?>
<!-- Created with Inkscape (http://www.inkscape.org/) -->

<svg
   xmlns:dc="http://purl.org/dc/elements/1.1/"
   xmlns:cc="http://creativecommons.org/ns#"
   xmlns:rdf="http://www.w3.org/1999/02/22-rdf-syntax-ns#"
   xmlns:svg="http://www.w3.org/2000/svg"
   xmlns="http://www.w3.org/2000/svg"
   xmlns:sodipodi="http://sodipodi.sourceforge.net/DTD/sodipodi-0.dtd"
   xmlns:inkscape="http://www.inkscape.org/namespaces/inkscape"
   id="svg6168"
   version="1.1"
   inkscape:version="0.91 r13725"
   xml:space="preserve"
   width="545.01685"
   height="222.33311"
   viewBox="0 0 545.01685 222.33311"
   sodipodi:docname="pulsed_schematic.svg"><metadata
     id="metadata6174"><rdf:RDF><cc:Work
         rdf:about=""><dc:format>image/svg+xml</dc:format><dc:type
           rdf:resource="http://purl.org/dc/dcmitype/StillImage" /><dc:title></dc:title></cc:Work></rdf:RDF></metadata><defs
     id="defs6172" /><sodipodi:namedview
     pagecolor="#ffffff"
     bordercolor="#666666"
     borderopacity="1"
     objecttolerance="10"
     gridtolerance="10"
     guidetolerance="10"
     inkscape:pageopacity="0"
     inkscape:pageshadow="2"
     inkscape:window-width="1918"
     inkscape:window-height="2088"
     id="namedview6170"
     showgrid="false"
     inkscape:zoom="0.57612898"
     inkscape:cx="272.50842"
     inkscape:cy="111.16656"
     inkscape:window-x="1913"
     inkscape:window-y="0"
     inkscape:window-maximized="0"
     inkscape:current-layer="g6176" /><g
     id="g6176"
     inkscape:groupmode="layer"
     inkscape:label="schematic"
     transform="matrix(1.25,0,0,-1.25,0,222.33311)"><g
       id="g6178"><g
         id="g6180"
         transform="matrix(1,0,0,-1,0,177.86649)"><path
           d="m 234.145,22.699 0,43.489"
           style="fill:none;stroke:#008400;stroke-width:1.63329601;stroke-linecap:butt;stroke-linejoin:miter;stroke-miterlimit:4;stroke-dasharray:none;stroke-opacity:1"
           id="path6182"
           inkscape:connector-curvature="0" /></g><g
         id="g6184"
         transform="matrix(1,0,0,-1,0,177.86649)"><path
           d="m 135.781,68.422 0,40.129"
           style="fill:none;stroke:#008400;stroke-width:8.22128677;stroke-linecap:butt;stroke-linejoin:miter;stroke-miterlimit:4;stroke-dasharray:none;stroke-opacity:1"
           id="path6186"
           inkscape:connector-curvature="0" /></g><g
         id="g6188"
         transform="matrix(1,0,0,-1,0,177.86649)"><path
           d="m 0.934,52.461 71.043,0 0,30.941 -71.043,0 0,-30.941 z"
           style="fill:#008400;fill-opacity:1;fill-rule:evenodd;stroke:#000000;stroke-width:1.84918404;stroke-linecap:butt;stroke-linejoin:miter;stroke-miterlimit:4;stroke-dasharray:none;stroke-opacity:1"
           id="path6190"
           inkscape:connector-curvature="0" /></g><g
         id="g6192"
         transform="matrix(1,0,0,-1,0,177.86649)"><path
           d="m 66.781,67.934 164.239,0"
           style="fill:none;stroke:#008400;stroke-width:8.22128677;stroke-linecap:butt;stroke-linejoin:miter;stroke-miterlimit:4;stroke-dasharray:none;stroke-opacity:1"
           id="path6194"
           inkscape:connector-curvature="0" /></g><g
         id="g6196"
         transform="matrix(1,0,0,-1,0,177.86649)"><path
           d="m 178.762,48.902 11.762,0 0,38.062 -11.762,0 0,-38.062 z"
           style="fill:none;stroke:#000000;stroke-width:2.74042892;stroke-linecap:butt;stroke-linejoin:miter;stroke-miterlimit:4;stroke-dasharray:none;stroke-opacity:1"
           id="path6198"
           inkscape:connector-curvature="0" /></g><g
         id="g6200"
         transform="matrix(1,0,0,-1,0,177.86649)"><path
           d="m 233.938,69.441 0,77.278"
           style="fill:none;stroke:#008400;stroke-width:5.74475288;stroke-linecap:butt;stroke-linejoin:miter;stroke-miterlimit:4;stroke-dasharray:none;stroke-opacity:1"
           id="path6202"
           inkscape:connector-curvature="0" /></g><g
         id="g6204"
         transform="matrix(1,0,0,-1,0,177.86649)"><path
           d="m 384.906,69.527 0,80.707"
           style="fill:none;stroke:#008400;stroke-width:5.74475288;stroke-linecap:butt;stroke-linejoin:miter;stroke-miterlimit:4;stroke-dasharray:none;stroke-opacity:1"
           id="path6206"
           inkscape:connector-curvature="0" /></g><g
         id="g6208"
         transform="matrix(1,0,0,-1,0,177.86649)"><path
           d="m 382.199,68.246 -158.004,0"
           style="fill:none;stroke:#008400;stroke-width:5.74475288;stroke-linecap:butt;stroke-linejoin:miter;stroke-miterlimit:4;stroke-dasharray:none;stroke-opacity:1"
           id="path6210"
           inkscape:connector-curvature="0" /></g><g
         id="g6212"
         transform="matrix(-1,-1,-1,1,0,177.86649)"><path
           d="m -160.455,-244.053 3.424,-0.002 0.002,37.682 -3.426,0 0,-37.68 z"
           style="fill:#ffffff;fill-opacity:1;fill-rule:nonzero;stroke:#000000;stroke-width:1.93777597;stroke-linecap:butt;stroke-linejoin:miter;stroke-miterlimit:4;stroke-dasharray:none;stroke-opacity:1"
           id="path6214"
           inkscape:connector-curvature="0" /></g><g
         id="g6216"
         transform="matrix(1,0,0,-1,0,177.86649)"><path
           d="M 151.93,49.957 116.695,86.172"
           style="fill:none;stroke:#000000;stroke-width:2.74042892;stroke-linecap:butt;stroke-linejoin:miter;stroke-miterlimit:4;stroke-dasharray:none;stroke-opacity:1"
           id="path6218"
           inkscape:connector-curvature="0" /></g><g
         id="g6220"
         transform="matrix(1,0,0,-1,0,177.86649)"><path
           d="m 116.426,49.262 35.773,0 0,37.605 -35.773,0 0,-37.605 z"
           style="fill:none;stroke:#000000;stroke-width:2.74042892;stroke-linecap:butt;stroke-linejoin:miter;stroke-miterlimit:4;stroke-dasharray:none;stroke-opacity:1"
           id="path6222"
           inkscape:connector-curvature="0" /></g><g
         id="g6224"
         transform="matrix(0,-1,-1,0,0,177.86649)"><path
           d="m 107.594,-109.137 4.848,0 0,-53.289 -4.848,0 0,53.289 z"
           style="fill:#ffffff;fill-opacity:1;fill-rule:nonzero;stroke:#000000;stroke-width:2.74042892;stroke-linecap:butt;stroke-linejoin:miter;stroke-miterlimit:4;stroke-dasharray:none;stroke-opacity:1"
           id="path6226"
           inkscape:connector-curvature="0" /></g><g
         id="g6228"
         transform="translate(0,177.86649)"><path
           d="m 257.387,-26.828 c 0,6.758 -10.407,12.234 -23.242,12.234 -12.84,0 -23.247,-5.476 -23.247,-12.234 l 46.489,0 z"
           style="fill:#ffffff;fill-opacity:1;fill-rule:nonzero;stroke:#000000;stroke-width:2.74042892;stroke-linecap:butt;stroke-linejoin:miter;stroke-miterlimit:4;stroke-dasharray:none;stroke-opacity:1"
           id="path6230"
           inkscape:connector-curvature="0" /></g><g
         id="g6232"
         transform="matrix(1,0,0,-1,0,177.86649)"><path
           d="m 234.145,14.969 0,10.879"
           style="fill:none;stroke:#000000;stroke-width:2.88894796;stroke-linecap:butt;stroke-linejoin:miter;stroke-miterlimit:4;stroke-dasharray:none;stroke-opacity:1"
           id="path6234"
           inkscape:connector-curvature="0" /></g><text
         transform="matrix(1,0,0,-1,237.50801,152.97893)"
         style="font-variant:normal;font-weight:normal;font-size:10.96171474px;font-family:'DejaVu Sans';-inkscape-font-specification:DejaVuSans;writing-mode:lr-tb;fill:#000000;fill-opacity:1;fill-rule:nonzero;stroke:none"
         id="text6236"><tspan
           x="0"
           y="0"
           id="tspan6238">+</tspan></text>
<text
         transform="matrix(1,0,0,-0.3907363,219.41246,153.81011)"
         style="font-variant:normal;font-weight:normal;font-size:28.05399704px;font-family:'DejaVu Sans';-inkscape-font-specification:DejaVuSans;writing-mode:lr-tb;fill:#000000;fill-opacity:1;fill-rule:nonzero;stroke:none"
         id="text6240"><tspan
           x="0"
           y="0"
           id="tspan6242">-</tspan></text>
<text
         transform="matrix(1,0,0,-1,123.6321,136.84875)"
         style="font-variant:normal;font-weight:normal;font-size:10.96171474px;font-family:'DejaVu Sans';-inkscape-font-specification:DejaVuSans;writing-mode:lr-tb;fill:#000000;fill-opacity:1;fill-rule:nonzero;stroke:none"
         id="text6244"><tspan
           x="0 6.6099143 13.93234 53.62471 60.234623"
           y="0"
           sodipodi:role="line"
           id="tspan6246">PBSPC</tspan></text>
<g
         id="g6248"
         transform="matrix(0,-1,-1,0,0,177.86649)"><path
           d="m 103.211,-365.875 11.762,0 0,-38.066 -11.762,0 0,38.066 z"
           style="fill:none;stroke:#000000;stroke-width:2.74042892;stroke-linecap:butt;stroke-linejoin:miter;stroke-miterlimit:4;stroke-dasharray:none;stroke-opacity:1"
           id="path6250"
           inkscape:connector-curvature="0" /></g><text
         transform="matrix(1,0,0,-1,410.702,64.779393)"
         style="font-variant:normal;font-weight:normal;font-size:10.96171474px;font-family:'DejaVu Sans';-inkscape-font-specification:DejaVuSans;writing-mode:lr-tb;fill:#000000;fill-opacity:1;fill-rule:nonzero;stroke:none"
         id="text6252"><tspan
           x="0 8.2322483 19.062422"
           y="0"
           sodipodi:role="line"
           id="tspan6254">HWP</tspan></text>
<g
         id="g6256"
         transform="matrix(1,0,0,-1,0,177.86649)"><path
           d="m 382.648,149.59 -145.277,0"
           style="fill:none;stroke:#008400;stroke-width:5.74475288;stroke-linecap:butt;stroke-linejoin:miter;stroke-miterlimit:4;stroke-dasharray:none;stroke-opacity:1"
           id="path6258"
           inkscape:connector-curvature="0" /></g><g
         id="g6260"
         transform="matrix(-1,-1,-1,1,0,177.86649)"><path
           d="m -44.379,-210.488 3.426,0 0,37.679 -3.426,0 0,-37.679 z"
           style="fill:#ffffff;fill-opacity:1;fill-rule:nonzero;stroke:#000000;stroke-width:1.93777597;stroke-linecap:butt;stroke-linejoin:miter;stroke-miterlimit:4;stroke-dasharray:none;stroke-opacity:1"
           id="path6262"
           inkscape:connector-curvature="0" /></g><g
         id="g6264"
         transform="matrix(-1,1,1,1,0,177.86649)"><path
           d="m -268.449,99.953 3.426,0 0,37.68 -3.426,0 0,-37.68 z"
           style="fill:#ffffff;fill-opacity:1;fill-rule:nonzero;stroke:#000000;stroke-width:1.93777597;stroke-linecap:butt;stroke-linejoin:miter;stroke-miterlimit:4;stroke-dasharray:none;stroke-opacity:1"
           id="path6266"
           inkscape:connector-curvature="0" /></g><g
         id="g6268"
         transform="matrix(1,0,0,-1,0,177.86649)"><path
           d="m 304.039,130.555 11.766,0 0,38.066 -11.766,0 0,-38.066 z"
           style="fill:none;stroke:#000000;stroke-width:2.74042892;stroke-linecap:butt;stroke-linejoin:miter;stroke-miterlimit:4;stroke-dasharray:none;stroke-opacity:1"
           id="path6270"
           inkscape:connector-curvature="0" /></g><text
         transform="matrix(1,0,0,-1,298.89024,51.593328)"
         style="font-variant:normal;font-weight:normal;font-size:10.96171474px;font-family:'DejaVu Sans';-inkscape-font-specification:DejaVuSans;writing-mode:lr-tb;fill:#000000;fill-opacity:1;fill-rule:nonzero;stroke:none"
         id="text6272"><tspan
           x="0 6.9497275 14.272153"
           y="0"
           sodipodi:role="line"
           id="tspan6274">SBC</tspan><tspan
           x="91.404297 97.784012 100.8204 107.56186 113.3058"
           y="34.646877"
           sodipodi:role="line"
           id="tspan6276">Piezo</tspan><tspan
           x="-297.53519 -291.1116 -284.17285 -281.13644 -275.43637 -268.69492 -261.74518 -258.27032 -252.16464 -245.45607 -239.75598 -233.01453"
           y="-85.159073"
           sodipodi:role="line"
           id="tspan6278">Pulsed Laser</tspan><tspan
           x="-102.89141 -95.941689 -88.991959 -85.955566 -82.919167 -78.622177 -75.147316 -66.706795 -59.96534 -55.668346 -48.926891 -42.908909 -38.611919 -31.91431"
           y="-117.94482"
           sodipodi:role="line"
           id="tspan6280">Split Detector</tspan></text>
<g
         id="g6282"
         transform="matrix(1,0,0,-1,0,177.86649)"><path
           d="M 252.25,85.551 216.035,50.316"
           style="fill:none;stroke:#000000;stroke-width:2.74042892;stroke-linecap:butt;stroke-linejoin:miter;stroke-miterlimit:4;stroke-dasharray:none;stroke-opacity:1"
           id="path6284"
           inkscape:connector-curvature="0" /></g><text
         transform="matrix(1,0,0,-1,252.97439,82.265745)"
         style="font-variant:normal;font-weight:normal;font-size:11.01371765px;font-family:'DejaVu Sans';-inkscape-font-specification:DejaVuSans;writing-mode:lr-tb;fill:#000000;fill-opacity:1;fill-rule:nonzero;stroke:none"
         id="text6286"><tspan
           x="0 7.0047245 14.009449 17.710058 24.714783"
           y="0"
           sodipodi:role="line"
           id="tspan6288">50:50</tspan></text>
<g
         id="g6290"
         transform="matrix(1,0,0,-1,0,177.86649)"><path
           d="m 357.016,162.129 c 0,0 -1.614,13.738 13.738,13.738"
           style="fill:none;stroke:#000000;stroke-width:0.80000001;stroke-linecap:butt;stroke-linejoin:miter;stroke-miterlimit:4;stroke-dasharray:none;stroke-opacity:1"
           id="path6292"
           inkscape:connector-curvature="0" /></g><g
         id="g6294"
         transform="matrix(-0.117647,-1,-1,0.117647,0,177.86649)"><path
           d="m 121.663,-370.958 1.59,-1.589 -5.563,1.592 5.562,1.588 -1.589,-1.591 z"
           style="fill:#000000;fill-opacity:1;fill-rule:evenodd;stroke:#000000;stroke-width:0.39726001;stroke-linecap:butt;stroke-linejoin:miter;stroke-miterlimit:4;stroke-dasharray:none;stroke-opacity:1"
           id="path6296"
           inkscape:connector-curvature="0" /></g><g
         id="g6298"
         transform="matrix(-1,0,0,1,0,177.86649)"><path
           d="m -367.555,-175.867 1.602,-1.598 -5.602,1.598 5.602,1.601 -1.602,-1.601 z"
           style="fill:#000000;fill-opacity:1;fill-rule:evenodd;stroke:#000000;stroke-width:0.40000001;stroke-linecap:butt;stroke-linejoin:miter;stroke-miterlimit:4;stroke-dasharray:none;stroke-opacity:1"
           id="path6300"
           inkscape:connector-curvature="0" /></g></g></g></svg>