<?xml version="1.0" encoding="UTF-8" standalone="no"?>
<!-- Created with Inkscape (http://www.inkscape.org/) -->

<svg
   xmlns:dc="http://purl.org/dc/elements/1.1/"
   xmlns:cc="http://creativecommons.org/ns#"
   xmlns:rdf="http://www.w3.org/1999/02/22-rdf-syntax-ns#"
   xmlns:svg="http://www.w3.org/2000/svg"
   xmlns="http://www.w3.org/2000/svg"
   xmlns:sodipodi="http://sodipodi.sourceforge.net/DTD/sodipodi-0.dtd"
   xmlns:inkscape="http://www.inkscape.org/namespaces/inkscape"
   id="svg3336"
   version="1.1"
   inkscape:version="0.91 r13725"
   xml:space="preserve"
   width="539.76709"
   height="439.61636"
   viewBox="0 0 539.76709 439.61636"
   sodipodi:docname="rochester_wva.svg"><metadata
     id="metadata3342"><rdf:RDF><cc:Work
         rdf:about=""><dc:format>image/svg+xml</dc:format><dc:type
           rdf:resource="http://purl.org/dc/dcmitype/StillImage" /><dc:title></dc:title></cc:Work></rdf:RDF></metadata><defs
     id="defs3340" /><sodipodi:namedview
     pagecolor="#ffffff"
     bordercolor="#666666"
     borderopacity="1"
     objecttolerance="10"
     gridtolerance="10"
     guidetolerance="10"
     inkscape:pageopacity="0"
     inkscape:pageshadow="2"
     inkscape:window-width="1918"
     inkscape:window-height="2088"
     id="namedview3338"
     showgrid="false"
     inkscape:zoom="2.192821"
     inkscape:cx="269.88354"
     inkscape:cy="219.80818"
     inkscape:window-x="1913"
     inkscape:window-y="0"
     inkscape:window-maximized="0"
     inkscape:current-layer="g3344" /><g
     id="g3344"
     inkscape:groupmode="layer"
     inkscape:label="jitter_setup"
     transform="matrix(1.25,0,0,-1.25,0,439.61636)"><g
       id="g3346"><g
         id="g3348"
         transform="matrix(1,0,0,-1,0,351.69308)"><path
           d="m 118.926,27.574 110.597,0 0,274.098 145.137,0 0,-133.336 -338.359,0"
           style="fill:none;stroke:#387f05;stroke-width:1.60000002;stroke-linecap:butt;stroke-linejoin:miter;stroke-miterlimit:2;stroke-dasharray:none;stroke-opacity:1"
           id="path3350"
           inkscape:connector-curvature="0" /></g><g
         id="g3352"
         transform="matrix(1,0,0,-1,0,351.69308)"><path
           d="m 0.398,3.848 118.773,0 0,45.414 -118.773,0 0,-45.414 z"
           style="fill:#387f05;fill-opacity:1;fill-rule:evenodd;stroke:#000000;stroke-width:0.80000001;stroke-linecap:butt;stroke-linejoin:miter;stroke-miterlimit:4;stroke-dasharray:none;stroke-opacity:1"
           id="path3354"
           inkscape:connector-curvature="0" /></g><g
         id="g3356"
         transform="matrix(1,1,1,-1,0,351.69308)"><path
           d="m 102.188,106.688 3.087,10e-4 0,46.317 -3.087,-0.002 0,-46.316 z"
           style="fill:none;stroke:#000000;stroke-width:1.41421402;stroke-linecap:butt;stroke-linejoin:miter;stroke-miterlimit:4;stroke-dasharray:none;stroke-opacity:1"
           id="path3358"
           inkscape:connector-curvature="0" /></g><g
         id="g3360"
         transform="matrix(-1,1,1,1,0,351.69308)"><path
           d="m -342.301,15.945 3.086,0 0,46.317 -3.086,0 0,-46.317 z"
           style="fill:none;stroke:#000000;stroke-width:1.41421402;stroke-linecap:butt;stroke-linejoin:miter;stroke-miterlimit:4;stroke-dasharray:none;stroke-opacity:1"
           id="path3362"
           inkscape:connector-curvature="0" /></g><g
         id="g3364"
         transform="matrix(1,0,0,-1,0,351.69308)"><path
           d="m 199.512,138.352 62.008,0 0,62.004 -62.008,0 0,-62.004 z"
           style="fill:none;stroke:#000000;stroke-width:2;stroke-linecap:butt;stroke-linejoin:miter;stroke-miterlimit:4;stroke-dasharray:none;stroke-opacity:1"
           id="path3366"
           inkscape:connector-curvature="0" /></g><g
         id="g3368"
         transform="matrix(1,0,0,-1,0,351.69308)"><path
           d="m 199.074,137.914 63.098,63.098"
           style="fill:none;stroke:#000000;stroke-width:0.80000001;stroke-linecap:butt;stroke-linejoin:miter;stroke-miterlimit:4;stroke-dasharray:none;stroke-opacity:1"
           id="path3370"
           inkscape:connector-curvature="0" /></g><g
         id="g3372"
         transform="matrix(1,1,1,-1,0,351.69308)"><path
           d="m 104.598,247.078 3.088,0.002 -0.002,46.315 -3.086,0 0,-46.317 z"
           style="fill:none;stroke:#000000;stroke-width:1.41421402;stroke-linecap:butt;stroke-linejoin:miter;stroke-miterlimit:4;stroke-dasharray:none;stroke-opacity:1"
           id="path3374"
           inkscape:connector-curvature="0" /></g><g
         id="g3376"
         transform="matrix(1,1,1,-1,0,351.69308)"><path
           d="m -40.387,240.973 3.09,0 -0.002,46.314 -3.086,0 -0.002,-46.314 z"
           style="fill:none;stroke:#000000;stroke-width:1.41421402;stroke-linecap:butt;stroke-linejoin:miter;stroke-miterlimit:4;stroke-dasharray:none;stroke-opacity:1"
           id="path3378"
           inkscape:connector-curvature="0" /></g><g
         id="g3380"
         transform="matrix(1,0,0,-1,0,351.69308)"><path
           d="m 289.852,151.289 12.242,0 0,34.098 -12.242,0 0,-34.098 z"
           style="fill:#f48a0d;fill-opacity:1;fill-rule:nonzero;stroke:#000000;stroke-width:1.60000002;stroke-linecap:butt;stroke-linejoin:miter;stroke-miterlimit:2;stroke-dasharray:none;stroke-opacity:1"
           id="path3382"
           inkscape:connector-curvature="0" /></g><g
         id="g3384"
         transform="matrix(1,0,0,-1,0,351.69308)"><path
           d="m 31.699,210.727 c -3.242,-1.129 -8.09,-6.391 -10.586,-11.489 -9.203,-18.8 -8.539,-47.761 1.481,-64.578 2.902,-4.875 8.414,-9.281 11.617,-9.297 l 0.984,-0.004 0,43.063 c 0,40.73 -0.039,43.055 -0.765,43.023 -0.418,-0.019 -1.649,-0.343 -2.731,-0.718 z"
           style="fill:#f48a0d;fill-opacity:1;fill-rule:nonzero;stroke:#000000;stroke-width:0.87431699;stroke-linecap:butt;stroke-linejoin:miter;stroke-miterlimit:2;stroke-dasharray:none;stroke-opacity:1"
           id="path3386"
           inkscape:connector-curvature="0" /></g><g
         id="g3388"
         transform="matrix(1,0,0,-1,0,351.69308)"><path
           d="m 36.508,146.344 c 0,-23.836 -0.383,-21.867 3.859,-19.891 5.688,2.649 10.992,10.957 13.813,21.641 1.203,4.539 2.437,13.09 2.437,16.851 l 0,2.383 -20.109,0 0,-20.984 z"
           style="fill:#f48a0d;fill-opacity:1;fill-rule:nonzero;stroke:#000000;stroke-width:0.87431699;stroke-linecap:butt;stroke-linejoin:miter;stroke-miterlimit:2;stroke-dasharray:none;stroke-opacity:1"
           id="path3390"
           inkscape:connector-curvature="0" /></g><g
         id="g3392"
         transform="matrix(1,0,0,-1,0,351.69308)"><path
           d="m 36.508,190.543 0,-21.031 20.109,0 -0.008,2.515 c -0.011,3.09 -1.015,10.707 -1.918,14.536 -3.156,13.406 -9.722,22.96 -16.98,24.718 l -1.203,0.293 0,-21.031 z"
           style="fill:#f48a0d;fill-opacity:1;fill-rule:nonzero;stroke:#000000;stroke-width:0.87431699;stroke-linecap:butt;stroke-linejoin:miter;stroke-miterlimit:2;stroke-dasharray:none;stroke-opacity:1"
           id="path3394"
           inkscape:connector-curvature="0" /></g><g
         id="g3396"
         transform="matrix(0,-1,-1,0,0,351.69308)"><path
           d="m 227.828,-356.336 6.484,0 0,-38.398 -6.484,0 0,38.398 z"
           style="fill:#f48a0d;fill-opacity:1;fill-rule:nonzero;stroke:#000000;stroke-width:1.23577595;stroke-linecap:butt;stroke-linejoin:miter;stroke-miterlimit:2;stroke-dasharray:none;stroke-opacity:1"
           id="path3398"
           inkscape:connector-curvature="0" /></g><text
         transform="matrix(1,0,0,-1,36.455023,287.12785)"
         style="font-variant:normal;font-weight:normal;font-size:14.05926514px;font-family:Verdana;-inkscape-font-specification:Verdana;writing-mode:lr-tb;fill:#000000;fill-opacity:1;fill-rule:nonzero;stroke:none"
         id="text3400"><tspan
           x="0 9.602478 18.122393 27.007849 32.997093 40.307911"
           y="0"
           sodipodi:role="line"
           id="tspan3402">Source</tspan><tspan
           x="208.35101 217.98161"
           y="66.464966"
           sodipodi:role="line"
           id="tspan3404">BS</tspan></text>
<g
         id="g3406"
         transform="matrix(1,0,0,-1,0,351.69308)"><path
           d="m 239.578,58.609 c 0,0 40.656,23.172 32.789,-20.98"
           style="fill:none;stroke:#000000;stroke-width:0.80000001;stroke-linecap:butt;stroke-linejoin:miter;stroke-miterlimit:4;stroke-dasharray:none;stroke-opacity:1"
           id="path3408"
           inkscape:connector-curvature="0" /></g><g
         id="g3410"
         transform="matrix(1,-0.569893,-0.569893,-1,0,351.69308)"><path
           d="m 213.009,-58.822 2.779,-2.779 -9.731,2.78 9.733,2.781 -2.781,-2.782 z"
           style="fill:#000000;fill-opacity:1;fill-rule:evenodd;stroke:#000000;stroke-width:0.69505399;stroke-linecap:butt;stroke-linejoin:miter;stroke-miterlimit:4;stroke-dasharray:none;stroke-opacity:1"
           id="path3412"
           inkscape:connector-curvature="0" /></g><g
         id="g3414"
         transform="matrix(0.178218,-1,-1,-0.178218,0,351.69308)"><path
           d="m 91.392,-257.482 3.151,-3.149 -11.026,3.148 11.024,3.152 -3.149,-3.151 z"
           style="fill:#000000;fill-opacity:1;fill-rule:evenodd;stroke:#000000;stroke-width:0.78759003;stroke-linecap:butt;stroke-linejoin:miter;stroke-miterlimit:4;stroke-dasharray:none;stroke-opacity:1"
           id="path3416"
           inkscape:connector-curvature="0" /></g><text
         transform="matrix(1,0,0,-1,265.95813,278.79123)"
         style="font-variant:normal;font-weight:normal;font-size:14.05926514px;font-family:Verdana;-inkscape-font-specification:Verdana;writing-mode:lr-tb;fill:#000000;fill-opacity:1;fill-rule:nonzero;stroke:none"
         id="text3418"><tspan
           x="0"
           y="0"
           id="tspan3420">q</tspan></text>
<g
         id="g3422"
         transform="matrix(1,0,0,-1,0,351.69308)"><path
           d="m 341.664,312.754 c 0,0 -23.172,40.656 20.984,32.785"
           style="fill:none;stroke:#000000;stroke-width:0.80000001;stroke-linecap:butt;stroke-linejoin:miter;stroke-miterlimit:4;stroke-dasharray:none;stroke-opacity:1"
           id="path3424"
           inkscape:connector-curvature="0" /></g><g
         id="g3426"
         transform="matrix(-0.569893,-1,-1,0.569893,0,351.69308)"><path
           d="m 96.053,-392.443 2.782,-2.781 -9.732,2.781 9.731,2.782 -2.781,-2.782 z"
           style="fill:#000000;fill-opacity:1;fill-rule:evenodd;stroke:#000000;stroke-width:0.69505399;stroke-linecap:butt;stroke-linejoin:miter;stroke-miterlimit:4;stroke-dasharray:none;stroke-opacity:1"
           id="path3428"
           inkscape:connector-curvature="0" /></g><g
         id="g3430"
         transform="matrix(-1,-0.178218,-0.178218,1,0,351.69308)"><path
           d="m -283.92,-397.545 3.147,-3.15 -11.026,3.152 11.028,3.149 -3.149,-3.151 z"
           style="fill:#000000;fill-opacity:1;fill-rule:evenodd;stroke:#000000;stroke-width:0.78759003;stroke-linecap:butt;stroke-linejoin:miter;stroke-miterlimit:4;stroke-dasharray:none;stroke-opacity:1"
           id="path3432"
           inkscape:connector-curvature="0" /></g><text
         transform="matrix(1,0,0,-1,325.84885,9.93879)"
         style="font-variant:normal;font-weight:normal;font-size:14.05926514px;font-family:Verdana;-inkscape-font-specification:Verdana;writing-mode:lr-tb;fill:#000000;fill-opacity:1;fill-rule:nonzero;stroke:none"
         id="text3434"><tspan
           x="0"
           y="0"
           id="tspan3436">k</tspan></text>
<g
         id="g3438"
         transform="matrix(1,0,0,-1,0,351.69308)"><path
           d="m 57.723,168.336 c 0,24.387 -9.883,44.156 -22.078,44.156 -12.192,0 -22.075,-19.769 -22.075,-44.156 0,-24.383 9.883,-44.152 22.075,-44.152 12.195,0 22.078,19.769 22.078,44.152 z"
           style="fill:none;stroke:#000000;stroke-width:1.60000002;stroke-linecap:butt;stroke-linejoin:miter;stroke-miterlimit:2;stroke-dasharray:none;stroke-opacity:1"
           id="path3440"
           inkscape:connector-curvature="0" /></g><g
         id="g3442"
         transform="matrix(1,0,0,-1,0,351.69308)"><path
           d="m 35.863,124.621 0,87.434"
           style="fill:none;stroke:#000000;stroke-width:0.80000001;stroke-linecap:butt;stroke-linejoin:miter;stroke-miterlimit:4;stroke-dasharray:none;stroke-opacity:1"
           id="path3444"
           inkscape:connector-curvature="0" /></g><text
         transform="matrix(1,0,0,-1,20.71222,231.14096)"
         style="font-variant:normal;font-weight:normal;font-size:14.05926514px;font-family:Verdana;-inkscape-font-specification:Verdana;writing-mode:lr-tb;fill:#000000;fill-opacity:1;fill-rule:nonzero;stroke:none"
         id="text3446"><tspan
           x="0 8.4777365 18.080215"
           y="0"
           sodipodi:role="line"
           id="tspan3448">PSD</tspan><tspan
           x="260.98361 270.58609 280.21667"
           y="26.229513"
           sodipodi:role="line"
           id="tspan3450">SBC</tspan><tspan
           x="378.57568 389.13419 403.02475"
           y="114.97268"
           sodipodi:role="line"
           id="tspan3452">HWP</tspan></text>
</g><rect
       style="fill:#ffffff;fill-rule:evenodd;stroke:none;stroke-width:0.80000001px;stroke-linecap:butt;stroke-linejoin:miter;stroke-opacity:1;fill-opacity:1"
       id="rect3454"
       width="65.304008"
       height="32.469589"
       x="234.94849"
       y="-299.88766"
       transform="scale(1,-1)" /><rect
       style="fill:#ffffff;fill-opacity:1;stroke:none"
       id="rect4256"
       width="29.550976"
       height="39.401299"
       x="261.94568"
       y="-328.70898"
       transform="scale(1,-1)" /></g></svg>