<?xml version="1.0" encoding="UTF-8" standalone="no"?>
<!-- Created with Inkscape (http://www.inkscape.org/) -->

<svg
   xmlns:dc="http://purl.org/dc/elements/1.1/"
   xmlns:cc="http://creativecommons.org/ns#"
   xmlns:rdf="http://www.w3.org/1999/02/22-rdf-syntax-ns#"
   xmlns:svg="http://www.w3.org/2000/svg"
   xmlns="http://www.w3.org/2000/svg"
   xmlns:sodipodi="http://sodipodi.sourceforge.net/DTD/sodipodi-0.dtd"
   xmlns:inkscape="http://www.inkscape.org/namespaces/inkscape"
   id="svg3336"
   version="1.1"
   inkscape:version="0.91 r13725"
   xml:space="preserve"
   width="606.55829"
   height="565.6015"
   viewBox="0 0 606.55829 565.6015"
   sodipodi:docname="squeezing_setup.svg"><metadata
     id="metadata3342"><rdf:RDF><cc:Work
         rdf:about=""><dc:format>image/svg+xml</dc:format><dc:type
           rdf:resource="http://purl.org/dc/dcmitype/StillImage" /><dc:title></dc:title></cc:Work></rdf:RDF></metadata><defs
     id="defs3340" /><sodipodi:namedview
     pagecolor="#ffffff"
     bordercolor="#666666"
     borderopacity="1"
     objecttolerance="10"
     gridtolerance="10"
     guidetolerance="10"
     inkscape:pageopacity="0"
     inkscape:pageshadow="2"
     inkscape:window-width="1918"
     inkscape:window-height="1028"
     id="namedview3338"
     showgrid="false"
     inkscape:zoom="0.4172549"
     inkscape:cx="303.27914"
     inkscape:cy="282.80075"
     inkscape:window-x="1913"
     inkscape:window-y="1060"
     inkscape:window-maximized="0"
     inkscape:current-layer="g3344" /><g
     id="g3344"
     inkscape:groupmode="layer"
     inkscape:label="squeezing_setup"
     transform="matrix(1.25,0,0,-1.25,0,565.6015)"><g
       id="g3346"><g
         id="g3348"
         transform="matrix(1,0,0,-1,0,452.4812)"><path
           d="m 0.961,153.543 97.516,0 0,38.195 -97.516,0 0,-38.195 z"
           style="fill:#759800;fill-opacity:1;fill-rule:nonzero;stroke:#000000;stroke-width:1.91999996;stroke-linecap:butt;stroke-linejoin:miter;stroke-miterlimit:4;stroke-dasharray:none;stroke-opacity:1"
           id="path3350"
           inkscape:connector-curvature="0" /></g><g
         id="g3352"
         transform="matrix(1,0,0,-1,0,452.4812)"><path
           d="m 157.797,149.48 46.32,0 0,46.32 -46.32,0 0,-46.32 z"
           style="fill:none;stroke:#000000;stroke-width:1.91999996;stroke-linecap:butt;stroke-linejoin:miter;stroke-miterlimit:4;stroke-dasharray:none;stroke-opacity:1"
           id="path3354"
           inkscape:connector-curvature="0" /></g><g
         id="g3356"
         transform="matrix(1,0,0,-1,0,452.4812)"><path
           d="m 156.984,149.48 45.914,45.915"
           style="fill:none;stroke:#000000;stroke-width:1.60000002;stroke-linecap:butt;stroke-linejoin:miter;stroke-miterlimit:4;stroke-dasharray:none;stroke-opacity:1"
           id="path3358"
           inkscape:connector-curvature="0" /></g><g
         id="g3360"
         transform="matrix(0,-1,-1,0,0,452.4812)"><path
           d="m 150.699,-279.613 46.32,0 0,-46.32 -46.32,0 0,46.32 z"
           style="fill:none;stroke:#000000;stroke-width:1.91999996;stroke-linecap:butt;stroke-linejoin:miter;stroke-miterlimit:4;stroke-dasharray:none;stroke-opacity:1"
           id="path3362"
           inkscape:connector-curvature="0" /></g><g
         id="g3364"
         transform="matrix(1,0,0,-1,0,452.4812)"><path
           d="m 324.715,150.699 -45.914,45.914"
           style="fill:none;stroke:#000000;stroke-width:1.60000002;stroke-linecap:butt;stroke-linejoin:miter;stroke-miterlimit:4;stroke-dasharray:none;stroke-opacity:1"
           id="path3366"
           inkscape:connector-curvature="0" /></g><g
         id="g3368"
         transform="matrix(1,0,0,-1,0,452.4812)"><path
           d="M 322.152,1.379 276.238,47.293"
           style="fill:none;stroke:#000000;stroke-width:1.60000002;stroke-linecap:butt;stroke-linejoin:miter;stroke-miterlimit:4;stroke-dasharray:none;stroke-opacity:1"
           id="path3370"
           inkscape:connector-curvature="0" /></g><g
         id="g3372"
         transform="matrix(1,0,0,-1,0,452.4812)"><path
           d="M 435.516,0.566 481.43,46.48"
           style="fill:none;stroke:#000000;stroke-width:1.60000002;stroke-linecap:butt;stroke-linejoin:miter;stroke-miterlimit:4;stroke-dasharray:none;stroke-opacity:1"
           id="path3374"
           inkscape:connector-curvature="0" /></g><g
         id="g3376"
         transform="matrix(1,0,0,-1,0,452.4812)"><path
           d="m 484.68,150.09 -45.914,45.914"
           style="fill:none;stroke:#000000;stroke-width:1.60000002;stroke-linecap:butt;stroke-linejoin:miter;stroke-miterlimit:4;stroke-dasharray:none;stroke-opacity:1"
           id="path3378"
           inkscape:connector-curvature="0" /></g><g
         id="g3380"
         transform="matrix(1,0,0,-1,0,452.4812)"><path
           d="m 155.156,304.492 45.914,45.914"
           style="fill:none;stroke:#000000;stroke-width:1.60000002;stroke-linecap:butt;stroke-linejoin:miter;stroke-miterlimit:4;stroke-dasharray:none;stroke-opacity:1"
           id="path3382"
           inkscape:connector-curvature="0" /></g><g
         id="g3384"
         transform="matrix(1,0,0,-1,0,452.4812)"><path
           d="m 277.176,305.914 46.32,0 0,46.32 -46.32,0 0,-46.32 z"
           style="fill:none;stroke:#000000;stroke-width:1.91999996;stroke-linecap:butt;stroke-linejoin:miter;stroke-miterlimit:4;stroke-dasharray:none;stroke-opacity:1"
           id="path3386"
           inkscape:connector-curvature="0" /></g><g
         id="g3388"
         transform="matrix(1,0,0,-1,0,452.4812)"><path
           d="m 276.363,305.914 45.914,45.914"
           style="fill:none;stroke:#000000;stroke-width:1.60000002;stroke-linecap:butt;stroke-linejoin:miter;stroke-miterlimit:4;stroke-dasharray:none;stroke-opacity:1"
           id="path3390"
           inkscape:connector-curvature="0" /></g><g
         id="g3392"
         transform="matrix(1,0,0,-1,0,452.4812)"><path
           d="m 411.34,304.695 29.254,0 0,46.321 -30.879,0 c 0,0 31.285,-16.661 1.625,-46.321 z"
           style="fill:none;stroke:#000000;stroke-width:1.60000002;stroke-linecap:butt;stroke-linejoin:miter;stroke-miterlimit:4;stroke-dasharray:none;stroke-opacity:1"
           id="path3394"
           inkscape:connector-curvature="0" /></g><g
         id="g3396"
         transform="matrix(1,0,0,-1,0,452.4812)"><path
           d="m 423.531,328.262 -123.523,0 0,-303.114 157.652,0 0,148.711 -157.652,0"
           style="fill:none;stroke:#ff0000;stroke-width:2.4000001;stroke-linecap:butt;stroke-linejoin:miter;stroke-miterlimit:4;stroke-dasharray:none;stroke-opacity:1"
           id="path3398"
           inkscape:connector-curvature="0" /></g><g
         id="g3400"
         transform="matrix(1,0,0,-1,0,452.4812)"><path
           d="m 300.008,173.859 -199.906,0"
           style="fill:none;stroke:#ff0000;stroke-width:1.20000005;stroke-linecap:butt;stroke-linejoin:miter;stroke-miterlimit:4;stroke-dasharray:none;stroke-opacity:1"
           id="path3402"
           inkscape:connector-curvature="0" /></g><g
         id="g3404"
         transform="matrix(1,0,0,-1,0,452.4812)"><path
           d="m 180.551,173.859 0,99.953"
           style="fill:none;stroke:#ff0000;stroke-width:1.20000005;stroke-linecap:butt;stroke-linejoin:miter;stroke-miterlimit:4;stroke-dasharray:none;stroke-opacity:1"
           id="path3406"
           inkscape:connector-curvature="0" /></g><g
         id="g3408"
         transform="matrix(1,0,0,-1,0,452.4812)"><path
           d="m 299.195,327.449 -118.644,0 0,-53.637"
           style="fill:none;stroke:#00ff00;stroke-width:1.20000005;stroke-linecap:butt;stroke-linejoin:miter;stroke-miterlimit:4;stroke-dasharray:2.4, 1.2;stroke-dashoffset:0;stroke-opacity:1"
           id="path3410"
           inkscape:connector-curvature="0" /></g><g
         id="g3412"
         transform="matrix(1,0,0,-1,0,452.4812)"><path
           d="m 298.305,327.664 -40.391,0"
           style="fill:none;stroke:#5000d3;stroke-width:2;stroke-linecap:butt;stroke-linejoin:miter;stroke-miterlimit:4;stroke-dasharray:none;stroke-opacity:1"
           id="path3414"
           inkscape:connector-curvature="0" /></g><g
         id="g3416"
         transform="matrix(1,0,0,-1,0,452.4812)"><path
           d="m 268.379,332.504 -13.113,-4.82 13.113,-4.825 c -2.094,2.848 -2.082,6.743 0,9.645 z"
           style="fill:#5000d3;fill-opacity:1;fill-rule:evenodd;stroke:#5000d3;stroke-width:0.75;stroke-linecap:butt;stroke-linejoin:round;stroke-miterlimit:4;stroke-dasharray:none;stroke-opacity:1"
           id="path3418"
           inkscape:connector-curvature="0" /></g><text
         transform="matrix(1,0,0,-1,351.20564,343.63192)"
         style="font-variant:normal;font-weight:normal;font-size:32px;font-family:'DejaVu Sans';-inkscape-font-specification:DejaVuSans;writing-mode:lr-tb;fill:#000000;fill-opacity:1;fill-rule:nonzero;stroke:none"
         id="text3420"><tspan
           x="0 9.408 29.664 42.208 52.352001"
           y="0"
           sodipodi:role="line"
           id="tspan3422">Int 1</tspan><tspan
           x="-138.14793 -128.73993 -108.48393 -95.939934 -85.795937"
           y="153.588"
           sodipodi:role="line"
           id="tspan3424">Int 2</tspan></text>
<text
         transform="matrix(1,0,0,-1,408.36382,160.03636)"
         style="font-variant:normal;font-weight:normal;font-size:20.56379128px;font-family:'DejaVu Sans';-inkscape-font-specification:DejaVuSans;writing-mode:lr-tb;fill:#000000;fill-opacity:1;fill-rule:nonzero;stroke:none"
         id="text3426"><tspan
           x="0"
           y="0"
           id="tspan3428">M</tspan></text>
<text
         transform="matrix(1,0,0,-1,426.11615,155.9236)"
         style="font-variant:normal;font-weight:normal;font-size:13.36665344px;font-family:'DejaVu Sans';-inkscape-font-specification:DejaVuSans;writing-mode:lr-tb;fill:#000000;fill-opacity:1;fill-rule:nonzero;stroke:none"
         id="text3430"><tspan
           x="0 8.4744577"
           y="0"
           sodipodi:role="line"
           id="tspan3432">SR</tspan></text>
<text
         transform="matrix(1,0,0,-1,9.086346,268.86949)"
         style="font-variant:normal;font-weight:normal;font-size:32px;font-family:'DejaVu Sans';-inkscape-font-specification:DejaVuSans;writing-mode:lr-tb;fill:#000000;fill-opacity:1;fill-rule:nonzero;stroke:none"
         id="text3434"><tspan
           x="0 17.823999 37.408001 54.048 73.727997"
           y="0"
           sodipodi:role="line"
           id="tspan3436">Laser</tspan></text>
<text
         transform="matrix(1,0,0,-1,56.42138,210.83431)"
         style="font-variant:normal;font-weight:normal;font-size:19.93207741px;font-family:'DejaVu Sans';-inkscape-font-specification:DejaVuSans;writing-mode:lr-tb;fill:#000000;fill-opacity:1;fill-rule:nonzero;stroke:none"
         id="text3438"><tspan
           x="0 12.636937 25.273874 37.890877 50.149105 62.407333 72.851738 78.372925 90.989929"
           y="0"
           sodipodi:role="line"
           id="tspan3440">Squeezing</tspan><tspan
           x="0 15.686544 28.323481 36.136856 41.658039 52.60075"
           y="24.915096"
           sodipodi:role="line"
           id="tspan3442">Optics</tspan></text>
<g
         id="g3444"
         transform="matrix(1,0,0,-1,0,452.4812)"><path
           d="m 165.926,220.18 30.879,0 0,53.633 -30.879,0 0,-53.633 z"
           style="fill:#759800;fill-opacity:1;fill-rule:nonzero;stroke:#000000;stroke-width:1.60000002;stroke-linecap:butt;stroke-linejoin:miter;stroke-miterlimit:4;stroke-dasharray:none;stroke-opacity:1"
           id="path3446"
           inkscape:connector-curvature="0" /></g><g
         id="g3448"
         transform="matrix(1,0,0,-1,0,452.4812)"><path
           d="m 256.941,408.711 91.829,0 c 0,0 -47.133,96.703 -91.829,0 z"
           style="fill:none;stroke:#000000;stroke-width:1.60000002;stroke-linecap:butt;stroke-linejoin:miter;stroke-miterlimit:4;stroke-dasharray:none;stroke-opacity:1"
           id="path3450"
           inkscape:connector-curvature="0" /></g><g
         id="g3452"
         transform="matrix(1,0,0,-1,0,452.4812)"><path
           d="m 300.008,450.156 0,-41.445"
           style="fill:none;stroke:#000000;stroke-width:1.60000002;stroke-linecap:butt;stroke-linejoin:miter;stroke-miterlimit:4;stroke-dasharray:none;stroke-opacity:1"
           id="path3454"
           inkscape:connector-curvature="0" /></g><text
         transform="matrix(1,0,0,-1,276.44321,17.765294)"
         style="font-variant:normal;font-weight:normal;font-size:32px;font-family:'DejaVu Sans';-inkscape-font-specification:DejaVuSans;writing-mode:lr-tb;fill:#000000;fill-opacity:1;fill-rule:nonzero;stroke:none"
         id="text3456"><tspan
           x="0"
           y="0"
           id="tspan3458">+</tspan><tspan
           x="35.755936"
           y="-3.2505281"
           id="tspan3460">-</tspan></text>
<g
         id="g3462"
         transform="matrix(1,0,0,-1,0,452.4812)"><path
           d="m 300.008,328.262 0,79.636"
           style="fill:none;stroke:#ff0000;stroke-width:1.20000005;stroke-linecap:butt;stroke-linejoin:miter;stroke-miterlimit:4;stroke-dasharray:none;stroke-opacity:1"
           id="path3464"
           inkscape:connector-curvature="0" /></g><g
         id="g3466"
         transform="matrix(1,0,0,-1,0,452.4812)"><path
           d="m 298.383,327.449 0,80.449"
           style="fill:none;stroke:#00ff00;stroke-width:1.20000005;stroke-linecap:butt;stroke-linejoin:miter;stroke-miterlimit:4;stroke-dasharray:2.4, 1.2;stroke-dashoffset:0;stroke-opacity:1"
           id="path3468"
           inkscape:connector-curvature="0" /></g></g></g></svg>