<?xml version="1.0" encoding="UTF-8" standalone="no"?>
<!-- Created with Inkscape (http://www.inkscape.org/) -->

<svg
   xmlns:dc="http://purl.org/dc/elements/1.1/"
   xmlns:cc="http://creativecommons.org/ns#"
   xmlns:rdf="http://www.w3.org/1999/02/22-rdf-syntax-ns#"
   xmlns:svg="http://www.w3.org/2000/svg"
   xmlns="http://www.w3.org/2000/svg"
   xmlns:sodipodi="http://sodipodi.sourceforge.net/DTD/sodipodi-0.dtd"
   xmlns:inkscape="http://www.inkscape.org/namespaces/inkscape"
   id="svg3478"
   version="1.1"
   inkscape:version="0.91 r13725"
   xml:space="preserve"
   width="389.66095"
   height="529.13354"
   viewBox="0 0 389.66095 529.13354"
   sodipodi:docname="wv_frequency_prism.svg"><metadata
     id="metadata3484"><rdf:RDF><cc:Work
         rdf:about=""><dc:format>image/svg+xml</dc:format><dc:type
           rdf:resource="http://purl.org/dc/dcmitype/StillImage" /><dc:title></dc:title></cc:Work></rdf:RDF></metadata><defs
     id="defs3482" /><sodipodi:namedview
     pagecolor="#ffffff"
     bordercolor="#666666"
     borderopacity="1"
     objecttolerance="10"
     gridtolerance="10"
     guidetolerance="10"
     inkscape:pageopacity="0"
     inkscape:pageshadow="2"
     inkscape:window-width="640"
     inkscape:window-height="480"
     id="namedview3480"
     showgrid="false"
     inkscape:zoom="0.44601217"
     inkscape:cx="194.83047"
     inkscape:cy="264.56677"
     inkscape:window-x="0"
     inkscape:window-y="0"
     inkscape:window-maximized="0"
     inkscape:current-layer="g3486" /><g
     id="g3486"
     inkscape:groupmode="layer"
     inkscape:label="deflection"
     transform="matrix(1.25,0,0,-1.25,0,529.13357)"><g
       id="g3488"><g
         id="g3490"
         transform="matrix(1,0,0,-1,0,423.30685)"><path
           d="m 109.363,53.105 45.703,0 L 132,0.996 109.363,53.105 Z"
           style="fill:none;stroke:#000000;stroke-width:0.80000001;stroke-linecap:butt;stroke-linejoin:miter;stroke-miterlimit:4;stroke-dasharray:none;stroke-opacity:1"
           id="path3492"
           inkscape:connector-curvature="0" /></g><g
         id="g3494"
         transform="matrix(1,0,0,-1,0,423.30685)"><path
           d="m 3.434,102.656 9.824,0 0,66.633 -9.824,0 0,-66.633 z"
           style="fill:#ffc35b;fill-opacity:1;fill-rule:evenodd;stroke:#000000;stroke-width:0.80000001;stroke-linecap:butt;stroke-linejoin:miter;stroke-miterlimit:4;stroke-dasharray:none;stroke-opacity:1"
           id="path3496"
           inkscape:connector-curvature="0" /></g><g
         id="g3498"
         transform="matrix(1,-0.176327,-0.176327,-1,0,423.30685)"><path
           d="m 262.673,52.574 9.676,0.001 0,65.621 -9.676,-0.001 0,-65.621 z"
           style="fill:#ffc35b;fill-opacity:1;fill-rule:evenodd;stroke:#000000;stroke-width:0.78784603;stroke-linecap:butt;stroke-linejoin:miter;stroke-miterlimit:4;stroke-dasharray:none;stroke-opacity:1"
           id="path3500"
           inkscape:connector-curvature="0" /></g><path
         d="m 47,226.256 126.859,0 0,-122.164 -126.859,0 0,122.164 z"
         style="fill:#ffffff;fill-opacity:1;fill-rule:nonzero;stroke:none"
         id="path3502"
         inkscape:connector-curvature="0" /><g
         id="g3504"
         transform="matrix(1,1,1,-1,0,423.30685)"><path
           d="m -88.363,162.883 53.158,0.002 0,54.969 -53.158,10e-4 0,-54.972 z"
           style="fill:#ffffff;fill-opacity:1;fill-rule:nonzero;stroke:#000000;stroke-width:0.56568497;stroke-linecap:butt;stroke-linejoin:miter;stroke-miterlimit:4;stroke-dasharray:none;stroke-opacity:1"
           id="path3506"
           inkscape:connector-curvature="0" /></g><g
         id="g3508"
         transform="matrix(1,0,0,-1,0,423.30685)"><path
           d="M 129.438,305.547 127.305,198.332"
           style="fill:none;stroke:#000000;stroke-width:0.80000001;stroke-linecap:butt;stroke-linejoin:miter;stroke-miterlimit:4;stroke-dasharray:none;stroke-opacity:1"
           id="path3510"
           inkscape:connector-curvature="0" /></g><g
         id="g3512"
         transform="matrix(-1,1,1,1,0,423.30685)"><path
           d="m -349.719,-73.023 60.709,0.002 0,22.046 -60.709,0.002 0,-22.05 z"
           style="fill:#00a300;fill-opacity:1;fill-rule:nonzero;stroke:#000000;stroke-width:0.56568497;stroke-linecap:butt;stroke-linejoin:miter;stroke-miterlimit:4;stroke-dasharray:none;stroke-opacity:1"
           id="path3514"
           inkscape:connector-curvature="0" /></g><g
         id="g3516"
         transform="matrix(1,0,0,-1,0,423.30685)"><path
           d="M 228.109,352.105 14.324,138.32 115.559,37.09 l 32.675,0 92.793,92.797 3.203,3.203 1.926,1.922 -222.859,222.859"
           style="fill:none;stroke:#00a300;stroke-width:0.80000001;stroke-linecap:butt;stroke-linejoin:miter;stroke-miterlimit:4;stroke-dasharray:none;stroke-opacity:1"
           id="path3518"
           inkscape:connector-curvature="0" /></g><g
         id="g3520"
         transform="matrix(1,0,0,-1,0,423.30685)"><path
           d="m 3.09,336.84 44.699,44.699 c 0,0 -60.707,12.988 -44.699,-44.699 z"
           style="fill:#ffc35b;fill-opacity:1;fill-rule:evenodd;stroke:#000000;stroke-width:0.80000001;stroke-linecap:butt;stroke-linejoin:miter;stroke-miterlimit:4;stroke-dasharray:none;stroke-opacity:1"
           id="path3522"
           inkscape:connector-curvature="0" /></g><text
         transform="matrix(1,0,0,-1,257.58032,75.474506)"
         style="font-variant:normal;font-weight:normal;font-size:16px;font-family:'DejaVu Sans';-inkscape-font-specification:DejaVuSans;writing-mode:lr-tb;fill:#000000;fill-opacity:1;fill-rule:nonzero;stroke:none"
         id="text3524"><tspan
           x="0 10.144 19.92 30.048 36.304001 45.088001"
           y="0"
           sodipodi:role="line"
           id="tspan3526">Source</tspan><tspan
           x="-250.30309 -240.65509 -230.51109"
           y="51.256641"
           sodipodi:role="line"
           id="tspan3528">PSD</tspan></text>
<g
         id="g3530"
         transform="matrix(1,0,0,-1,0,423.30685)"><path
           d="m 255.855,86.723 -9.398,48.265 0,-48.265"
           style="fill:none;stroke:#000000;stroke-width:0.80000001;stroke-linecap:butt;stroke-linejoin:miter;stroke-miterlimit:4;stroke-dasharray:1.6, 0.8;stroke-dashoffset:0;stroke-opacity:1"
           id="path3532"
           inkscape:connector-curvature="0" /></g><text
         transform="matrix(1,0,0,-1,246.88599,339.57504)"
         style="font-variant:normal;font-weight:normal;font-size:14px;font-family:'DejaVu Sans';-inkscape-font-specification:DejaVuSans;writing-mode:lr-tb;fill:#000000;fill-opacity:1;fill-rule:nonzero;stroke:none"
         id="text3534"><tspan
           x="0"
           y="0"
           id="tspan3536">k</tspan></text>
</g></g></svg>